<svg width="60" height="61" viewBox="0 0 60 61" version="1.1" xmlns="http://www.w3.org/2000/svg" xmlns:xlink="http://www.w3.org/1999/xlink">
<title>Group</title>
<desc>Created using Figma</desc>
<g id="Canvas" transform="translate(-492 -7133)">
<g id="Group">
<g id="Ellipse 3">
<use xlink:href="#path0_fill" transform="translate(492.272 7133.95)" fill="#07DA91"/>
<mask id="mask0_outline_ins">
<use xlink:href="#path0_fill" fill="white" transform="translate(492.272 7133.95)"/>
</mask>
<g mask="url(#mask0_outline_ins)">
<use xlink:href="#path1_stroke_2x" transform="translate(492.272 7133.95)" fill="#07DA91"/>
</g>
</g>
<g id="3">
<use xlink:href="#path2_fill" transform="translate(507 7131.18)" fill="#FFFFFF"/>
</g>
</g>
</g>
<defs>
<path id="path0_fill" d="M 59.4568 29.7284C 59.4568 46.1469 46.1469 59.4568 29.7284 59.4568C 13.3098 59.4568 0 46.1469 0 29.7284C 0 13.3098 13.3098 0 29.7284 0C 46.1469 0 59.4568 13.3098 59.4568 29.7284Z"/>
<path id="path1_stroke_2x" d="M 58.4568 29.7284C 58.4568 45.5946 45.5946 58.4568 29.7284 58.4568L 29.7284 60.4568C 46.6992 60.4568 60.4568 46.6992 60.4568 29.7284L 58.4568 29.7284ZM 29.7284 58.4568C 13.8621 58.4568 1 45.5946 1 29.7284L -1 29.7284C -1 46.6992 12.7576 60.4568 29.7284 60.4568L 29.7284 58.4568ZM 1 29.7284C 1 13.8621 13.8621 1 29.7284 1L 29.7284 -1C 12.7576 -1 -1 12.7576 -1 29.7284L 1 29.7284ZM 29.7284 1C 45.5946 1 58.4568 13.8621 58.4568 29.7284L 60.4568 29.7284C 60.4568 12.7576 46.6992 -1 29.7284 -1L 29.7284 1Z"/>
<path id="path2_fill" d="M 1.40977 37.6C 1.80977 41.9 3.85977 44.75 5.55977 46.3C 8.45977 49 11.9098 49.75 15.1098 49.75C 20.0598 49.75 23.2598 48 25.0598 46.2C 26.4598 44.8 28.0098 42.45 28.0098 38.9C 28.0098 37 27.5598 35.4 26.6098 34C 25.9098 33 24.7098 31.7 22.6598 30.95C 23.8598 30.35 24.6098 29.5 25.2098 28.4C 25.9598 27.05 26.2098 25.75 26.2098 24.3C 26.2098 21.75 25.1598 19.5 23.5098 17.85C 21.0098 15.4 17.7098 14.9 15.2098 14.9C 12.0098 14.9 8.85977 15.6 6.40977 18.15C 4.90977 19.65 3.35977 22.3 3.15977 25.8L 11.2098 25.8C 11.2098 24.75 11.6098 23.55 12.3598 22.85C 12.8598 22.35 13.7098 22 14.7598 22C 15.7098 22 16.6598 22.35 17.2098 22.9C 17.7098 23.4 18.1098 24.4 18.1098 25.3C 18.1098 26.05 17.8098 26.95 17.0098 27.65C 16.3098 28.25 15.2098 28.75 13.4598 28.5L 13.4598 34.35C 13.9098 34.2 14.3598 34.15 14.9098 34.15C 15.9598 34.15 17.2598 34.4 18.1098 35.1C 18.7098 35.6 19.4098 36.6 19.4098 38.05C 19.4098 39.05 19.1598 39.95 18.4098 40.8C 17.7598 41.5 16.7098 42.25 15.0098 42.25C 13.5598 42.25 12.3598 41.75 11.6098 40.95C 10.8098 40.15 10.3098 38.85 10.2598 37.6L 1.40977 37.6Z"/>
</defs>
</svg>
