<svg width="60" height="60" viewBox="0 0 60 60" version="1.1" xmlns="http://www.w3.org/2000/svg" xmlns:xlink="http://www.w3.org/1999/xlink">
<title>Group</title>
<desc>Created using Figma</desc>
<g id="Canvas" transform="translate(-492 -7617)">
<g id="Group">
<g id="Ellipse 3">
<use xlink:href="#path0_fill" transform="translate(492.272 7617.35)" fill="#07DA91"/>
<mask id="mask0_outline_ins">
<use xlink:href="#path0_fill" fill="white" transform="translate(492.272 7617.35)"/>
</mask>
<g mask="url(#mask0_outline_ins)">
<use xlink:href="#path1_stroke_2x" transform="translate(492.272 7617.35)" fill="#07DA91"/>
</g>
</g>
<g id="5">
<use xlink:href="#path2_fill" transform="translate(507 7614.58)" fill="#FFFFFF"/>
</g>
</g>
</g>
<defs>
<path id="path0_fill" d="M 59.4568 29.7284C 59.4568 46.1469 46.1469 59.4568 29.7284 59.4568C 13.3098 59.4568 0 46.1469 0 29.7284C 0 13.3098 13.3098 0 29.7284 0C 46.1469 0 59.4568 13.3098 59.4568 29.7284Z"/>
<path id="path1_stroke_2x" d="M 58.4568 29.7284C 58.4568 45.5946 45.5946 58.4568 29.7284 58.4568L 29.7284 60.4568C 46.6992 60.4568 60.4568 46.6992 60.4568 29.7284L 58.4568 29.7284ZM 29.7284 58.4568C 13.8621 58.4568 1 45.5946 1 29.7284L -1 29.7284C -1 46.6992 12.7576 60.4568 29.7284 60.4568L 29.7284 58.4568ZM 1 29.7284C 1 13.8621 13.8621 1 29.7284 1L 29.7284 -1C 12.7576 -1 -1 12.7576 -1 29.7284L 1 29.7284ZM 29.7284 1C 45.5946 1 58.4568 13.8621 58.4568 29.7284L 60.4568 29.7284C 60.4568 12.7576 46.6992 -1 29.7284 -1L 29.7284 1Z"/>
<path id="path2_fill" d="M 24.7598 15.65L 7.40977 15.65L 4.50977 33.6C 6.30977 32.7 8.30977 32.2 10.6598 32.2C 11.7598 32.2 14.8598 32.25 16.6598 33.85C 17.4098 34.5 18.2598 35.7 18.2598 37.45C 18.2598 38.85 17.7098 40.05 16.9598 40.85C 15.9598 41.9 14.3598 42.5 12.6098 42.5C 10.9598 42.5 9.10977 42.05 7.60977 41.35C 7.05977 41.1 5.35977 40.25 3.60977 38.65L 2.30977 46.75C 5.00977 48.45 8.50977 49.75 13.5598 49.75C 16.7598 49.75 20.8598 49.2 23.9598 46C 25.5598 44.35 27.1598 41.65 27.1598 37.65C 27.1598 33.8 25.6098 31.25 24.1098 29.75C 22.5598 28.15 19.7598 26.45 15.3098 26.45C 14.8598 26.45 13.8598 26.5 12.6098 26.7L 13.2098 23L 24.7598 23L 24.7598 15.65Z"/>
</defs>
</svg>
