<svg width="428" height="37" viewBox="0 0 428 37" version="1.1" xmlns="http://www.w3.org/2000/svg" xmlns:xlink="http://www.w3.org/1999/xlink">
<title>1TRH = 2.8$ = 0.01ETH = 2$</title>
<desc>Created using Figma</desc>
<g id="Canvas" transform="translate(-61 -1899)">
<g id="1TRH = 2.8$ = 0.01ETH = 2$">
<use xlink:href="#path0_fill" transform="translate(54.3199 1884.55)" fill="#181818"/>
<use xlink:href="#path1_fill" transform="translate(54.3199 1884.55)" fill="#07DA91"/>
</g>
</g>
<defs>
<path id="path0_fill" d="M 43.8477 33.7891L 38.3633 33.7891L 38.3633 49L 36.125 49L 36.125 33.7891L 30.6523 33.7891L 30.6523 31.9375L 43.8477 31.9375L 43.8477 33.7891ZM 52.6367 42.0977L 48.6289 42.0977L 48.6289 49L 46.3672 49L 46.3672 31.9375L 52.0156 31.9375C 53.9375 31.9375 55.4141 32.375 56.4453 33.25C 57.4844 34.125 58.0039 35.3984 58.0039 37.0703C 58.0039 38.1328 57.7148 39.0586 57.1367 39.8477C 56.5664 40.6367 55.7695 41.2266 54.7461 41.6172L 58.7539 48.8594L 58.7539 49L 56.3398 49L 52.6367 42.0977ZM 48.6289 40.2578L 52.0859 40.2578C 53.2031 40.2578 54.0898 39.9687 54.7461 39.3906C 55.4102 38.8125 55.7422 38.0391 55.7422 37.0703C 55.7422 36.0156 55.4258 35.207 54.793 34.6445C 54.168 34.082 53.2617 33.7969 52.0742 33.7891L 48.6289 33.7891L 48.6289 40.2578ZM 74.2812 49L 72.0195 49L 72.0195 41.1133L 63.418 41.1133L 63.418 49L 61.168 49L 61.168 31.9375L 63.418 31.9375L 63.418 39.2734L 72.0195 39.2734L 72.0195 31.9375L 74.2812 31.9375L 74.2812 49ZM 93.8047 39.4609L 84.0312 39.4609L 84.0312 37.5742L 93.8047 37.5742L 93.8047 39.4609ZM 93.8047 44.3242L 84.0312 44.3242L 84.0312 42.4492L 93.8047 42.4492L 93.8047 44.3242ZM 186.504 44.6055C 186.504 43.8867 186.25 43.2812 185.742 42.7891C 185.242 42.2969 184.395 41.8516 183.199 41.4531C 181.535 40.9453 180.32 40.2852 179.555 39.4727C 178.797 38.6523 178.418 37.6133 178.418 36.3555C 178.418 35.0742 178.789 34.0234 179.531 33.2031C 180.281 32.3828 181.309 31.8945 182.613 31.7383L 182.613 29.1719L 184.359 29.1719L 184.359 31.75C 185.672 31.9297 186.691 32.4805 187.418 33.4023C 188.152 34.3242 188.52 35.5859 188.52 37.1875L 186.363 37.1875C 186.363 36.0859 186.102 35.2109 185.578 34.5625C 185.055 33.9141 184.348 33.5898 183.457 33.5898C 182.527 33.5898 181.816 33.832 181.324 34.3164C 180.832 34.793 180.586 35.4609 180.586 36.3203C 180.586 37.1172 180.844 37.7539 181.359 38.2305C 181.883 38.6992 182.738 39.1289 183.926 39.5195C 185.121 39.9023 186.051 40.3281 186.715 40.7969C 187.387 41.2578 187.879 41.7969 188.191 42.4141C 188.512 43.0312 188.672 43.7539 188.672 44.582C 188.672 45.9023 188.273 46.9648 187.477 47.7695C 186.688 48.5742 185.578 49.0508 184.148 49.1992L 184.148 51.4375L 182.414 51.4375L 182.414 49.1992C 180.961 49.0664 179.82 48.5508 178.992 47.6523C 178.172 46.7461 177.762 45.5195 177.762 43.9727L 179.93 43.9727C 179.93 45.0586 180.215 45.8945 180.785 46.4805C 181.355 47.0664 182.164 47.3594 183.211 47.3594C 184.234 47.3594 185.039 47.1133 185.625 46.6211C 186.211 46.1289 186.504 45.457 186.504 44.6055ZM 207.457 39.4609L 197.684 39.4609L 197.684 37.5742L 207.457 37.5742L 207.457 39.4609ZM 207.457 44.3242L 197.684 44.3242L 197.684 42.4492L 207.457 42.4492L 207.457 44.3242ZM 333.688 41.1133L 326.293 41.1133L 326.293 47.1602L 334.883 47.1602L 334.883 49L 324.043 49L 324.043 31.9375L 334.766 31.9375L 334.766 33.7891L 326.293 33.7891L 326.293 39.2734L 333.688 39.2734L 333.688 41.1133ZM 349.707 33.7891L 344.223 33.7891L 344.223 49L 341.984 49L 341.984 33.7891L 336.512 33.7891L 336.512 31.9375L 349.707 31.9375L 349.707 33.7891ZM 365.352 49L 363.09 49L 363.09 41.1133L 354.488 41.1133L 354.488 49L 352.238 49L 352.238 31.9375L 354.488 31.9375L 354.488 39.2734L 363.09 39.2734L 363.09 31.9375L 365.352 31.9375L 365.352 49ZM 384.875 39.4609L 375.102 39.4609L 375.102 37.5742L 384.875 37.5742L 384.875 39.4609ZM 384.875 44.3242L 375.102 44.3242L 375.102 42.4492L 384.875 42.4492L 384.875 44.3242ZM 432.457 44.6055C 432.457 43.8867 432.203 43.2812 431.695 42.7891C 431.195 42.2969 430.348 41.8516 429.152 41.4531C 427.488 40.9453 426.273 40.2852 425.508 39.4727C 424.75 38.6523 424.371 37.6133 424.371 36.3555C 424.371 35.0742 424.742 34.0234 425.484 33.2031C 426.234 32.3828 427.262 31.8945 428.566 31.7383L 428.566 29.1719L 430.312 29.1719L 430.312 31.75C 431.625 31.9297 432.645 32.4805 433.371 33.4023C 434.105 34.3242 434.473 35.5859 434.473 37.1875L 432.316 37.1875C 432.316 36.0859 432.055 35.2109 431.531 34.5625C 431.008 33.9141 430.301 33.5898 429.41 33.5898C 428.48 33.5898 427.77 33.832 427.277 34.3164C 426.785 34.793 426.539 35.4609 426.539 36.3203C 426.539 37.1172 426.797 37.7539 427.312 38.2305C 427.836 38.6992 428.691 39.1289 429.879 39.5195C 431.074 39.9023 432.004 40.3281 432.668 40.7969C 433.34 41.2578 433.832 41.7969 434.145 42.4141C 434.465 43.0312 434.625 43.7539 434.625 44.582C 434.625 45.9023 434.227 46.9648 433.43 47.7695C 432.641 48.5742 431.531 49.0508 430.102 49.1992L 430.102 51.4375L 428.367 51.4375L 428.367 49.1992C 426.914 49.0664 425.773 48.5508 424.945 47.6523C 424.125 46.7461 423.715 45.5195 423.715 43.9727L 425.883 43.9727C 425.883 45.0586 426.168 45.8945 426.738 46.4805C 427.309 47.0664 428.117 47.3594 429.164 47.3594C 430.187 47.3594 430.992 47.1133 431.578 46.6211C 432.164 46.1289 432.457 45.457 432.457 44.6055Z"/>
<path id="path1_fill" d="M 11.7977 49L 20.4477 49L 20.4477 15.65L 7.04766 15.65L 7.04766 23L 11.7977 23L 11.7977 49ZM 129.425 41.65L 118.525 41.65L 124.125 36.45C 127.125 33.65 129.075 30.75 129.075 26.55C 129.075 22.25 127.175 19.7 125.825 18.35C 124.325 16.85 121.425 14.9 116.425 14.9C 112.275 14.9 109.225 16.25 106.975 18.5C 105.225 20.25 103.325 23.4 103.275 27.75L 112.225 27.75C 112.275 26.6 112.625 24.7 113.425 23.65C 113.975 22.95 114.925 22.3 116.325 22.3C 117.425 22.3 118.275 22.75 118.775 23.3C 119.775 24.4 119.775 26.15 119.775 26.5C 119.775 28.65 118.875 30.3 117.975 31.7C 116.375 34.25 114.125 37 111.125 40.15L 102.675 49L 129.425 49L 129.425 41.65ZM 138.955 49.95C 140.255 49.95 141.555 49.45 142.605 48.4C 143.505 47.5 144.105 46.4 144.105 44.75C 144.105 43.1 143.505 42 142.655 41.15C 141.555 40.05 140.205 39.55 138.955 39.55C 137.855 39.55 136.505 39.9 135.305 41.1C 134.655 41.75 133.755 42.95 133.755 44.75C 133.755 46.55 134.655 47.75 135.305 48.4C 136.505 49.6 137.855 49.95 138.955 49.95ZM 167.392 31.45C 168.692 31 169.992 30.2 170.792 29.4C 171.942 28.25 172.842 26.6 172.842 24.2C 172.842 21.35 171.642 19.35 170.392 18.1C 168.442 16.1 165.392 14.9 161.792 14.9C 158.142 14.9 154.942 16.05 152.892 17.95C 151.242 19.5 150.142 21.75 150.142 24.25C 150.142 26.8 151.342 28.5 152.392 29.55C 153.142 30.3 154.242 31 155.392 31.45C 153.942 31.9 152.242 32.85 151.192 33.9C 149.792 35.3 148.742 37.7 148.742 39.9C 148.742 42.05 149.692 44.45 151.492 46.25C 152.792 47.55 155.742 49.75 161.442 49.75C 167.392 49.75 170.392 47.35 171.542 46.2C 173.292 44.45 174.242 42.15 174.242 39.9C 174.242 38.25 173.742 36 171.692 34C 170.642 32.95 169.192 32 167.392 31.45ZM 161.592 20.7C 162.542 20.7 163.292 21.05 163.992 21.7C 164.742 22.4 165.142 23.45 165.142 24.35C 165.142 25.2 164.742 26.15 163.992 26.9C 163.192 27.7 162.292 27.9 161.542 27.9C 160.642 27.9 159.642 27.6 158.892 26.8C 158.292 26.15 157.842 25.25 157.842 24.4C 157.842 23.5 158.192 22.55 158.842 21.85C 159.442 21.2 160.342 20.7 161.592 20.7ZM 161.492 34.95C 162.342 34.95 163.392 35.25 164.292 36.1C 165.092 36.85 165.492 37.75 165.492 38.85C 165.492 40 165.092 40.9 164.292 41.7C 163.542 42.45 162.692 42.85 161.492 42.85C 160.342 42.85 159.342 42.35 158.642 41.65C 157.792 40.8 157.492 39.75 157.492 38.85C 157.492 37.9 157.892 36.9 158.692 36.1C 159.492 35.35 160.542 34.95 161.492 34.95ZM 235.744 22.65C 236.744 22.65 237.744 23.1 238.394 23.7C 240.144 25.25 241.294 29.5 241.294 32.45C 241.294 35.3 240.244 39.5 238.394 41.1C 237.744 41.7 236.744 42.15 235.744 42.15C 234.744 42.15 233.744 41.7 233.094 41.1C 231.144 39.4 230.194 35.05 230.194 32.4C 230.194 29.3 231.294 25.25 233.094 23.7C 233.744 23.1 234.744 22.65 235.744 22.65ZM 249.894 32.35C 249.894 26.45 247.944 21.65 244.944 18.7C 242.344 16.15 238.994 14.9 235.744 14.9C 232.494 14.9 229.144 16.15 226.544 18.7C 223.544 21.65 221.594 26.45 221.594 32.35C 221.594 38.2 223.544 43 226.544 45.95C 229.144 48.5 232.494 49.75 235.744 49.75C 238.994 49.75 242.344 48.5 244.944 45.95C 247.944 43 249.894 38.2 249.894 32.35ZM 258.325 49.95C 259.625 49.95 260.925 49.45 261.975 48.4C 262.875 47.5 263.475 46.4 263.475 44.75C 263.475 43.1 262.875 42 262.025 41.15C 260.925 40.05 259.575 39.55 258.325 39.55C 257.225 39.55 255.875 39.9 254.675 41.1C 254.025 41.75 253.125 42.95 253.125 44.75C 253.125 46.55 254.025 47.75 254.675 48.4C 255.875 49.6 257.225 49.95 258.325 49.95ZM 280.861 22.65C 281.861 22.65 282.861 23.1 283.511 23.7C 285.261 25.25 286.411 29.5 286.411 32.45C 286.411 35.3 285.361 39.5 283.511 41.1C 282.861 41.7 281.861 42.15 280.861 42.15C 279.861 42.15 278.861 41.7 278.211 41.1C 276.261 39.4 275.311 35.05 275.311 32.4C 275.311 29.3 276.411 25.25 278.211 23.7C 278.861 23.1 279.861 22.65 280.861 22.65ZM 295.011 32.35C 295.011 26.45 293.061 21.65 290.061 18.7C 287.461 16.15 284.111 14.9 280.861 14.9C 277.611 14.9 274.261 16.15 271.661 18.7C 268.661 21.65 266.711 26.45 266.711 32.35C 266.711 38.2 268.661 43 271.661 45.95C 274.261 48.5 277.611 49.75 280.861 49.75C 284.111 49.75 287.461 48.5 290.061 45.95C 293.061 43 295.011 38.2 295.011 32.35ZM 303.782 49L 312.432 49L 312.432 15.65L 299.032 15.65L 299.032 23L 303.782 23L 303.782 49ZM 420.495 41.65L 409.595 41.65L 415.195 36.45C 418.195 33.65 420.145 30.75 420.145 26.55C 420.145 22.25 418.245 19.7 416.895 18.35C 415.395 16.85 412.495 14.9 407.495 14.9C 403.345 14.9 400.295 16.25 398.045 18.5C 396.295 20.25 394.395 23.4 394.345 27.75L 403.295 27.75C 403.345 26.6 403.695 24.7 404.495 23.65C 405.045 22.95 405.995 22.3 407.395 22.3C 408.495 22.3 409.345 22.75 409.845 23.3C 410.845 24.4 410.845 26.15 410.845 26.5C 410.845 28.65 409.945 30.3 409.045 31.7C 407.445 34.25 405.195 37 402.195 40.15L 393.745 49L 420.495 49L 420.495 41.65Z"/>
</defs>
</svg>
