<svg width="55" height="55" viewBox="0 0 55 55" version="1.1" xmlns="http://www.w3.org/2000/svg" xmlns:xlink="http://www.w3.org/1999/xlink">
<title>Group</title>
<desc>Created using Figma</desc>
<g id="Canvas" transform="translate(-944 310)">
<g id="Group">
<g id="Ellipse 6" filter="url(#filter0_d)">
<mask id="mask0_outline_ins">
<use xlink:href="#path0_fill" fill="white" transform="translate(954.708 -302.373)"/>
</mask>
<g mask="url(#mask0_outline_ins)">
<use xlink:href="#path1_stroke_2x" transform="translate(954.708 -302.373)" fill="#07DA91"/>
</g>
</g>
<g id="Group">
<g id="Vector">
<use xlink:href="#path2_fill" transform="translate(968.154 -291.945)" fill="#07DA91"/>
</g>
</g>
</g>
</g>
<defs>
<filter id="filter0_d" filterUnits="userSpaceOnUse" x="944" y="-310" width="55" height="55" color-interpolation-filters="sRGB">
<feFlood flood-opacity="0" result="BackgroundImageFix"/>
<feColorMatrix in="SourceAlpha" type="matrix" values="0 0 0 0 0 0 0 0 0 0 0 0 0 0 0 0 0 0 255 0"/>
<feOffset dx="0" dy="3"/>
<feGaussianBlur stdDeviation="5"/>
<feColorMatrix type="matrix" values="0 0 0 0 0 0 0 0 0 0 0 0 0 0 0 0 0 0 0.05 0"/>
<feBlend mode="normal" in2="BackgroundImageFix" result="effect1_dropShadow"/>
<feBlend mode="normal" in="SourceGraphic" in2="effect1_dropShadow" result="shape"/>
</filter>
<path id="path0_fill" d="M 34 17C 34 26.3888 26.3888 34 17 34C 7.61116 34 0 26.3888 0 17C 0 7.61116 7.61116 0 17 0C 26.3888 0 34 7.61116 34 17Z"/>
<path id="path1_stroke_2x" d="M 33 17C 33 25.8366 25.8366 33 17 33L 17 35C 26.9411 35 35 26.9411 35 17L 33 17ZM 17 33C 8.16344 33 1 25.8366 1 17L -1 17C -1 26.9411 7.05887 35 17 35L 17 33ZM 1 17C 1 8.16344 8.16344 1 17 1L 17 -1C 7.05887 -1 -1 7.05887 -1 17L 1 17ZM 17 1C 25.8366 1 33 8.16344 33 17L 35 17C 35 7.05887 26.9411 -1 17 -1L 17 1Z"/>
<path id="path2_fill" d="M 6.83852 0.00273475L 5.13409 0C 3.21921 0 1.98174 1.26961 1.98174 3.23467L 1.98174 4.72606L 0.268006 4.72606C 0.119919 4.72606 -4.59019e-08 4.84612 -4.59019e-08 4.9942L -4.59019e-08 7.15507C -4.59019e-08 7.30316 0.120056 7.42307 0.268006 7.42307L 1.98174 7.42307L 1.98174 12.8756C 1.98174 13.0237 2.10166 13.1436 2.24974 13.1436L 4.48568 13.1436C 4.63376 13.1436 4.75368 13.0236 4.75368 12.8756L 4.75368 7.42307L 6.75744 7.42307C 6.90552 7.42307 7.02544 7.30316 7.02544 7.15507L 7.02626 4.9942C 7.02626 4.9231 6.99796 4.85501 6.94777 4.80469C 6.89759 4.75437 6.82922 4.72606 6.75812 4.72606L 4.75368 4.72606L 4.75368 3.46179C 4.75368 2.85412 4.89849 2.54564 5.69006 2.54564L 6.83825 2.54523C 6.9862 2.54523 7.10612 2.42518 7.10612 2.27723L 7.10612 0.27074C 7.10612 0.122927 6.98633 0.00300823 6.83852 0.00273475Z"/>
</defs>
</svg>
