<svg width="1080" height="792" viewBox="0 0 1080 792" version="1.1" xmlns="http://www.w3.org/2000/svg" xmlns:xlink="http://www.w3.org/1999/xlink">
<title>Group</title>
<desc>Created using Figma</desc>
<g id="Canvas" transform="matrix(4 0 0 4 -212 -19848)">
<g id="Group">
<g id="Rectangle 9">
<use xlink:href="#path0_fill" transform="translate(53 5022.19)" fill="url(#paint0_linear)"/>
</g>
<g id="1TRH = 2.8$ (&#226;&#136;&#146;65%)">
<use xlink:href="#path1_fill" transform="translate(53 4947.19)" fill="#181818"/>
<use xlink:href="#path2_fill" transform="translate(53 4947.19)" fill="#07DA91"/>
</g>
<g id="&#208;&#154;&#208;&#190;&#208;&#187;-&#208;&#178;&#208;&#190; &#209;&#130;&#208;&#190;&#208;&#186;&#208;&#181;&#208;&#189;&#208;&#190;&#208;&#178;: 504 000 &#208;&#148;&#208;&#176;&#209;&#130;&#209;&#139;: 10&#226;&#128;&#147;30 &#209;&#129;&#208;&#181;&#208;&#189;&#209;&#130;&#209;&#143;&#208;&#177;&#209;&#128;&#209;&#143;">
<use xlink:href="#path3_fill" transform="translate(73 5042.19)" fill="#FFFFFF"/>
<use xlink:href="#path4_fill" transform="translate(73 5042.19)" fill="#FFFFFF" fill-opacity="0.8"/>
</g>
<g id="&#208;&#148;&#208;&#190;&#209;&#133;&#208;&#190;&#208;&#180;: 35% &#208;&#181;&#208;&#182;&#208;&#181;&#208;&#188;&#208;&#181;&#209;&#129;&#209;&#143;&#209;&#135;&#208;&#189;&#208;&#190;">
<use xlink:href="#path5_fill" transform="translate(73 5121.24)" fill="#FFFFFF"/>
<use xlink:href="#path6_fill" transform="translate(73 5121.24)" fill="#FFFFFF" fill-opacity="0.8"/>
</g>
</g>
</g>
<defs>
<linearGradient id="paint0_linear" x1="0" y1="0" x2="1" y2="0" gradientUnits="userSpaceOnUse" gradientTransform="matrix(1.6349e-14 137.501 -267 8.41952e-15 267 -8.41952e-15)">
<stop offset="0" stop-color="#1DFCAF"/>
<stop offset="1" stop-color="#07DA91"/>
</linearGradient>
<path id="path0_fill" d="M 0 5C 0 2.23858 2.23858 0 5 0L 262 0C 264.761 0 267 2.23858 267 5L 267 132.501C 267 135.263 264.761 137.501 262 137.501L 5 137.501C 2.23858 137.501 0 135.263 0 132.501L 0 5Z"/>
<path id="path1_fill" d="M 43.9531 33.7891L 38.4688 33.7891L 38.4688 49L 36.2305 49L 36.2305 33.7891L 30.7578 33.7891L 30.7578 31.9375L 43.9531 31.9375L 43.9531 33.7891ZM 52.7422 42.0977L 48.7344 42.0977L 48.7344 49L 46.4727 49L 46.4727 31.9375L 52.1211 31.9375C 54.043 31.9375 55.5195 32.375 56.5508 33.25C 57.5898 34.125 58.1094 35.3984 58.1094 37.0703C 58.1094 38.1328 57.8203 39.0586 57.2422 39.8477C 56.6719 40.6367 55.875 41.2266 54.8516 41.6172L 58.8594 48.8594L 58.8594 49L 56.4453 49L 52.7422 42.0977ZM 48.7344 40.2578L 52.1914 40.2578C 53.3086 40.2578 54.1953 39.9687 54.8516 39.3906C 55.5156 38.8125 55.8477 38.0391 55.8477 37.0703C 55.8477 36.0156 55.5312 35.207 54.8984 34.6445C 54.2734 34.082 53.3672 33.7969 52.1797 33.7891L 48.7344 33.7891L 48.7344 40.2578ZM 74.3867 49L 72.125 49L 72.125 41.1133L 63.5234 41.1133L 63.5234 49L 61.2734 49L 61.2734 31.9375L 63.5234 31.9375L 63.5234 39.2734L 72.125 39.2734L 72.125 31.9375L 74.3867 31.9375L 74.3867 49ZM 93.9102 39.4609L 84.1367 39.4609L 84.1367 37.5742L 93.9102 37.5742L 93.9102 39.4609ZM 93.9102 44.3242L 84.1367 44.3242L 84.1367 42.4492L 93.9102 42.4492L 93.9102 44.3242ZM 186.609 44.6055C 186.609 43.8867 186.355 43.2812 185.848 42.7891C 185.348 42.2969 184.5 41.8516 183.305 41.4531C 181.641 40.9453 180.426 40.2852 179.66 39.4727C 178.902 38.6523 178.523 37.6133 178.523 36.3555C 178.523 35.0742 178.895 34.0234 179.637 33.2031C 180.387 32.3828 181.414 31.8945 182.719 31.7383L 182.719 29.1719L 184.465 29.1719L 184.465 31.75C 185.777 31.9297 186.797 32.4805 187.523 33.4023C 188.258 34.3242 188.625 35.5859 188.625 37.1875L 186.469 37.1875C 186.469 36.0859 186.207 35.2109 185.684 34.5625C 185.16 33.9141 184.453 33.5898 183.562 33.5898C 182.633 33.5898 181.922 33.832 181.43 34.3164C 180.938 34.793 180.691 35.4609 180.691 36.3203C 180.691 37.1172 180.949 37.7539 181.465 38.2305C 181.988 38.6992 182.844 39.1289 184.031 39.5195C 185.227 39.9023 186.156 40.3281 186.82 40.7969C 187.492 41.2578 187.984 41.7969 188.297 42.4141C 188.617 43.0312 188.777 43.7539 188.777 44.582C 188.777 45.9023 188.379 46.9648 187.582 47.7695C 186.793 48.5742 185.684 49.0508 184.254 49.1992L 184.254 51.4375L 182.52 51.4375L 182.52 49.1992C 181.066 49.0664 179.926 48.5508 179.098 47.6523C 178.277 46.7461 177.867 45.5195 177.867 43.9727L 180.035 43.9727C 180.035 45.0586 180.32 45.8945 180.891 46.4805C 181.461 47.0664 182.27 47.3594 183.316 47.3594C 184.34 47.3594 185.145 47.1133 185.73 46.6211C 186.316 46.1289 186.609 45.457 186.609 44.6055ZM 197.566 42.0742C 197.566 40.3086 197.801 38.6133 198.27 36.9883C 198.746 35.3633 199.453 33.8867 200.391 32.5586C 201.328 31.2305 202.301 30.293 203.309 29.7461L 203.754 31.1758C 202.613 32.0508 201.676 33.3867 200.941 35.1836C 200.215 36.9805 199.816 38.9922 199.746 41.2188L 199.734 42.2148C 199.734 45.2305 200.285 47.8477 201.387 50.0664C 202.051 51.3945 202.84 52.4336 203.754 53.1836L 203.309 54.5078C 202.27 53.9297 201.277 52.9609 200.332 51.6016C 198.488 48.9453 197.566 45.7695 197.566 42.0742ZM 215.965 41.3711L 206.18 41.3711L 206.18 39.6016L 215.965 39.6016L 215.965 41.3711ZM 227.848 31.9258L 227.848 33.7656L 227.449 33.7656C 225.762 33.7969 224.418 34.2969 223.418 35.2656C 222.418 36.2344 221.84 37.5977 221.684 39.3555C 222.582 38.3242 223.809 37.8086 225.363 37.8086C 226.848 37.8086 228.031 38.332 228.914 39.3789C 229.805 40.4258 230.25 41.7773 230.25 43.4336C 230.25 45.1914 229.77 46.5977 228.809 47.6523C 227.855 48.707 226.574 49.2344 224.965 49.2344C 223.332 49.2344 222.008 48.6094 220.992 47.3594C 219.977 46.1016 219.469 44.4844 219.469 42.5078L 219.469 41.6758C 219.469 38.5352 220.137 36.1367 221.473 34.4805C 222.816 32.8164 224.812 31.9648 227.461 31.9258L 227.848 31.9258ZM 225 39.6133C 224.258 39.6133 223.574 39.8359 222.949 40.2812C 222.324 40.7266 221.891 41.2852 221.648 41.957L 221.648 42.7539C 221.648 44.1602 221.965 45.293 222.598 46.1523C 223.23 47.0117 224.02 47.4414 224.965 47.4414C 225.941 47.4414 226.707 47.082 227.262 46.3633C 227.824 45.6445 228.105 44.7031 228.105 43.5391C 228.105 42.3672 227.82 41.4219 227.25 40.7031C 226.688 39.9766 225.938 39.6133 225 39.6133ZM 233.812 40.4453L 234.68 31.9375L 243.422 31.9375L 243.422 33.9414L 236.52 33.9414L 236.004 38.5938C 236.84 38.1016 237.789 37.8555 238.852 37.8555C 240.406 37.8555 241.641 38.3711 242.555 39.4023C 243.469 40.4258 243.926 41.8125 243.926 43.5625C 243.926 45.3203 243.449 46.707 242.496 47.7227C 241.551 48.7305 240.227 49.2344 238.523 49.2344C 237.016 49.2344 235.785 48.8164 234.832 47.9805C 233.879 47.1445 233.336 45.9883 233.203 44.5117L 235.254 44.5117C 235.387 45.4883 235.734 46.2266 236.297 46.7266C 236.859 47.2188 237.602 47.4648 238.523 47.4648C 239.531 47.4648 240.32 47.1211 240.891 46.4336C 241.469 45.7461 241.758 44.7969 241.758 43.5859C 241.758 42.4453 241.445 41.5313 240.82 40.8438C 240.203 40.1484 239.379 39.8008 238.348 39.8008C 237.402 39.8008 236.66 40.0078 236.121 40.4219L 235.547 40.8906L 233.812 40.4453ZM 246.105 35.2188C 246.105 34.1953 246.43 33.3516 247.078 32.6875C 247.734 32.0234 248.574 31.6914 249.598 31.6914C 250.637 31.6914 251.477 32.0273 252.117 32.6992C 252.766 33.3633 253.09 34.2266 253.09 35.2891L 253.09 36.1211C 253.09 37.1523 252.762 37.9961 252.105 38.6523C 251.457 39.3008 250.629 39.625 249.621 39.625C 248.605 39.625 247.766 39.3008 247.102 38.6523C 246.437 37.9961 246.105 37.125 246.105 36.0391L 246.105 35.2188ZM 247.723 36.1211C 247.723 36.7305 247.895 37.2344 248.238 37.6328C 248.582 38.0234 249.043 38.2188 249.621 38.2188C 250.176 38.2188 250.621 38.0273 250.957 37.6445C 251.301 37.2617 251.473 36.7383 251.473 36.0742L 251.473 35.2188C 251.473 34.6094 251.305 34.1055 250.969 33.707C 250.633 33.3086 250.176 33.1094 249.598 33.1094C 249.02 33.1094 248.562 33.3086 248.227 33.707C 247.891 34.1055 247.723 34.625 247.723 35.2656L 247.723 36.1211ZM 254.414 44.8164C 254.414 43.793 254.738 42.9531 255.387 42.2969C 256.043 41.6328 256.883 41.3008 257.906 41.3008C 258.93 41.3008 259.77 41.6289 260.426 42.2852C 261.082 42.9414 261.41 43.8125 261.41 44.8984L 261.41 45.7305C 261.41 46.7539 261.082 47.5977 260.426 48.2617C 259.777 48.918 258.945 49.2461 257.93 49.2461C 256.914 49.2461 256.074 48.9219 255.41 48.2734C 254.746 47.6172 254.414 46.7461 254.414 45.6602L 254.414 44.8164ZM 256.031 45.7305C 256.031 46.3477 256.203 46.8555 256.547 47.2539C 256.891 47.6445 257.352 47.8398 257.93 47.8398C 258.492 47.8398 258.941 47.6484 259.277 47.2656C 259.613 46.875 259.781 46.3477 259.781 45.6836L 259.781 44.8164C 259.781 44.1992 259.609 43.6953 259.266 43.3047C 258.93 42.9141 258.477 42.7188 257.906 42.7188C 257.352 42.7188 256.898 42.9141 256.547 43.3047C 256.203 43.6875 256.031 44.207 256.031 44.8633L 256.031 45.7305ZM 250.113 47.7109L 248.883 46.9375L 257.215 33.6016L 258.445 34.375L 250.113 47.7109ZM 269.098 42.1914C 269.098 43.9336 268.867 45.6055 268.406 47.207C 267.953 48.8008 267.254 50.2734 266.309 51.625C 265.371 52.9766 264.387 53.9375 263.355 54.5078L 262.898 53.1836C 264.102 52.2617 265.066 50.832 265.793 48.8945C 266.527 46.9492 266.902 44.793 266.918 42.4258L 266.918 42.0508C 266.918 40.4102 266.746 38.8867 266.402 37.4805C 266.059 36.0664 265.578 34.8008 264.961 33.6836C 264.352 32.5664 263.664 31.6953 262.898 31.0703L 263.355 29.7461C 264.387 30.3164 265.367 31.2695 266.297 32.6055C 267.234 33.9414 267.934 35.4141 268.395 37.0234C 268.863 38.6328 269.098 40.3555 269.098 42.1914Z"/>
<path id="path2_fill" d="M 11.9031 49L 20.5531 49L 20.5531 15.65L 7.15312 15.65L 7.15312 23L 11.9031 23L 11.9031 49ZM 129.53 41.65L 118.63 41.65L 124.23 36.45C 127.23 33.65 129.18 30.75 129.18 26.55C 129.18 22.25 127.28 19.7 125.93 18.35C 124.43 16.85 121.53 14.9 116.53 14.9C 112.38 14.9 109.33 16.25 107.08 18.5C 105.33 20.25 103.43 23.4 103.38 27.75L 112.33 27.75C 112.38 26.6 112.73 24.7 113.53 23.65C 114.08 22.95 115.03 22.3 116.43 22.3C 117.53 22.3 118.38 22.75 118.88 23.3C 119.88 24.4 119.88 26.15 119.88 26.5C 119.88 28.65 118.98 30.3 118.08 31.7C 116.48 34.25 114.23 37 111.23 40.15L 102.78 49L 129.53 49L 129.53 41.65ZM 139.061 49.95C 140.361 49.95 141.661 49.45 142.711 48.4C 143.611 47.5 144.211 46.4 144.211 44.75C 144.211 43.1 143.611 42 142.761 41.15C 141.661 40.05 140.311 39.55 139.061 39.55C 137.961 39.55 136.611 39.9 135.411 41.1C 134.761 41.75 133.861 42.95 133.861 44.75C 133.861 46.55 134.761 47.75 135.411 48.4C 136.611 49.6 137.961 49.95 139.061 49.95ZM 167.498 31.45C 168.798 31 170.098 30.2 170.898 29.4C 172.048 28.25 172.948 26.6 172.948 24.2C 172.948 21.35 171.748 19.35 170.498 18.1C 168.548 16.1 165.498 14.9 161.898 14.9C 158.248 14.9 155.048 16.05 152.998 17.95C 151.348 19.5 150.248 21.75 150.248 24.25C 150.248 26.8 151.448 28.5 152.498 29.55C 153.248 30.3 154.348 31 155.498 31.45C 154.048 31.9 152.348 32.85 151.298 33.9C 149.898 35.3 148.848 37.7 148.848 39.9C 148.848 42.05 149.798 44.45 151.598 46.25C 152.898 47.55 155.848 49.75 161.548 49.75C 167.498 49.75 170.498 47.35 171.648 46.2C 173.398 44.45 174.348 42.15 174.348 39.9C 174.348 38.25 173.848 36 171.798 34C 170.748 32.95 169.298 32 167.498 31.45ZM 161.698 20.7C 162.648 20.7 163.398 21.05 164.098 21.7C 164.848 22.4 165.248 23.45 165.248 24.35C 165.248 25.2 164.848 26.15 164.098 26.9C 163.298 27.7 162.398 27.9 161.648 27.9C 160.748 27.9 159.748 27.6 158.998 26.8C 158.398 26.15 157.948 25.25 157.948 24.4C 157.948 23.5 158.298 22.55 158.948 21.85C 159.548 21.2 160.448 20.7 161.698 20.7ZM 161.598 34.95C 162.448 34.95 163.498 35.25 164.398 36.1C 165.198 36.85 165.598 37.75 165.598 38.85C 165.598 40 165.198 40.9 164.398 41.7C 163.648 42.45 162.798 42.85 161.598 42.85C 160.448 42.85 159.448 42.35 158.748 41.65C 157.898 40.8 157.598 39.75 157.598 38.85C 157.598 37.9 157.998 36.9 158.798 36.1C 159.598 35.35 160.648 34.95 161.598 34.95Z"/>
<path id="path3_fill" d="M 141.082 10.584L 141.732 4.20312L 148.289 4.20312L 148.289 5.70605L 143.112 5.70605L 142.726 9.19531C 143.353 8.82617 144.064 8.6416 144.861 8.6416C 146.027 8.6416 146.953 9.02832 147.639 9.80176C 148.324 10.5693 148.667 11.6094 148.667 12.9219C 148.667 14.2402 148.31 15.2803 147.595 16.042C 146.886 16.7979 145.893 17.1758 144.615 17.1758C 143.484 17.1758 142.562 16.8623 141.847 16.2354C 141.132 15.6084 140.725 14.7412 140.625 13.6338L 142.163 13.6338C 142.263 14.3662 142.523 14.9199 142.945 15.2949C 143.367 15.6641 143.924 15.8486 144.615 15.8486C 145.371 15.8486 145.963 15.5908 146.391 15.0752C 146.824 14.5596 147.041 13.8477 147.041 12.9395C 147.041 12.084 146.807 11.3984 146.338 10.8828C 145.875 10.3613 145.257 10.1006 144.483 10.1006C 143.774 10.1006 143.218 10.2559 142.813 10.5664L 142.383 10.918L 141.082 10.584ZM 158.467 11.542C 158.467 13.4463 158.142 14.8613 157.491 15.7871C 156.841 16.7129 155.824 17.1758 154.441 17.1758C 153.076 17.1758 152.065 16.7246 151.409 15.8223C 150.753 14.9141 150.413 13.5605 150.39 11.7617L 150.39 9.59082C 150.39 7.70996 150.715 6.3125 151.365 5.39844C 152.016 4.48438 153.035 4.02734 154.424 4.02734C 155.801 4.02734 156.814 4.46973 157.465 5.35449C 158.115 6.2334 158.449 7.59277 158.467 9.43262L 158.467 11.542ZM 156.841 9.31836C 156.841 7.94141 156.647 6.93945 156.261 6.3125C 155.874 5.67969 155.262 5.36328 154.424 5.36328C 153.592 5.36328 152.985 5.67676 152.604 6.30371C 152.224 6.93066 152.027 7.89453 152.016 9.19531L 152.016 11.7969C 152.016 13.1797 152.215 14.2021 152.613 14.8643C 153.018 15.5205 153.627 15.8486 154.441 15.8486C 155.244 15.8486 155.839 15.5381 156.226 14.917C 156.618 14.2959 156.823 13.3174 156.841 11.9814L 156.841 9.31836ZM 167.414 12.7021L 169.189 12.7021L 169.189 14.0293L 167.414 14.0293L 167.414 17L 165.779 17L 165.779 14.0293L 159.952 14.0293L 159.952 13.0713L 165.683 4.20312L 167.414 4.20312L 167.414 12.7021ZM 161.798 12.7021L 165.779 12.7021L 165.779 6.42676L 165.586 6.77832L 161.798 12.7021ZM 183.146 11.542C 183.146 13.4463 182.821 14.8613 182.171 15.7871C 181.521 16.7129 180.504 17.1758 179.121 17.1758C 177.756 17.1758 176.745 16.7246 176.089 15.8223C 175.433 14.9141 175.093 13.5605 175.069 11.7617L 175.069 9.59082C 175.069 7.70996 175.395 6.3125 176.045 5.39844C 176.695 4.48438 177.715 4.02734 179.104 4.02734C 180.48 4.02734 181.494 4.46973 182.145 5.35449C 182.795 6.2334 183.129 7.59277 183.146 9.43262L 183.146 11.542ZM 181.521 9.31836C 181.521 7.94141 181.327 6.93945 180.94 6.3125C 180.554 5.67969 179.941 5.36328 179.104 5.36328C 178.271 5.36328 177.665 5.67676 177.284 6.30371C 176.903 6.93066 176.707 7.89453 176.695 9.19531L 176.695 11.7969C 176.695 13.1797 176.895 14.2021 177.293 14.8643C 177.697 15.5205 178.307 15.8486 179.121 15.8486C 179.924 15.8486 180.519 15.5381 180.905 14.917C 181.298 14.2959 181.503 13.3174 181.521 11.9814L 181.521 9.31836ZM 193.254 11.542C 193.254 13.4463 192.929 14.8613 192.278 15.7871C 191.628 16.7129 190.611 17.1758 189.229 17.1758C 187.863 17.1758 186.853 16.7246 186.196 15.8223C 185.54 14.9141 185.2 13.5605 185.177 11.7617L 185.177 9.59082C 185.177 7.70996 185.502 6.3125 186.152 5.39844C 186.803 4.48438 187.822 4.02734 189.211 4.02734C 190.588 4.02734 191.602 4.46973 192.252 5.35449C 192.902 6.2334 193.236 7.59277 193.254 9.43262L 193.254 11.542ZM 191.628 9.31836C 191.628 7.94141 191.435 6.93945 191.048 6.3125C 190.661 5.67969 190.049 5.36328 189.211 5.36328C 188.379 5.36328 187.772 5.67676 187.392 6.30371C 187.011 6.93066 186.814 7.89453 186.803 9.19531L 186.803 11.7969C 186.803 13.1797 187.002 14.2021 187.4 14.8643C 187.805 15.5205 188.414 15.8486 189.229 15.8486C 190.031 15.8486 190.626 15.5381 191.013 14.917C 191.405 14.2959 191.61 13.3174 191.628 11.9814L 191.628 9.31836ZM 203.361 11.542C 203.361 13.4463 203.036 14.8613 202.386 15.7871C 201.735 16.7129 200.719 17.1758 199.336 17.1758C 197.971 17.1758 196.96 16.7246 196.304 15.8223C 195.647 14.9141 195.308 13.5605 195.284 11.7617L 195.284 9.59082C 195.284 7.70996 195.609 6.3125 196.26 5.39844C 196.91 4.48438 197.93 4.02734 199.318 4.02734C 200.695 4.02734 201.709 4.46973 202.359 5.35449C 203.01 6.2334 203.344 7.59277 203.361 9.43262L 203.361 11.542ZM 201.735 9.31836C 201.735 7.94141 201.542 6.93945 201.155 6.3125C 200.769 5.67969 200.156 5.36328 199.318 5.36328C 198.486 5.36328 197.88 5.67676 197.499 6.30371C 197.118 6.93066 196.922 7.89453 196.91 9.19531L 196.91 11.7969C 196.91 13.1797 197.109 14.2021 197.508 14.8643C 197.912 15.5205 198.521 15.8486 199.336 15.8486C 200.139 15.8486 200.733 15.5381 201.12 14.917C 201.513 14.2959 201.718 13.3174 201.735 11.9814L 201.735 9.31836ZM 61.04 46L 59.4053 46L 59.4053 35.1631L 56.127 36.3672L 56.127 34.8906L 60.7852 33.1416L 61.04 33.1416L 61.04 46ZM 73.8281 40.542C 73.8281 42.4463 73.5029 43.8613 72.8525 44.7871C 72.2021 45.7129 71.1855 46.1758 69.8027 46.1758C 68.4375 46.1758 67.4268 45.7246 66.7705 44.8223C 66.1143 43.9141 65.7744 42.5605 65.751 40.7617L 65.751 38.5908C 65.751 36.71 66.0762 35.3125 66.7266 34.3984C 67.377 33.4844 68.3965 33.0273 69.7852 33.0273C 71.1621 33.0273 72.1758 33.4697 72.8262 34.3545C 73.4766 35.2334 73.8105 36.5928 73.8281 38.4326L 73.8281 40.542ZM 72.2021 38.3184C 72.2021 36.9414 72.0088 35.9395 71.6221 35.3125C 71.2354 34.6797 70.623 34.3633 69.7852 34.3633C 68.9531 34.3633 68.3467 34.6768 67.9658 35.3037C 67.585 35.9307 67.3887 36.8945 67.377 38.1953L 67.377 40.7969C 67.377 42.1797 67.5762 43.2021 67.9746 43.8643C 68.3789 44.5205 68.9883 44.8486 69.8027 44.8486C 70.6055 44.8486 71.2002 44.5381 71.5869 43.917C 71.9795 43.2959 72.1846 42.3174 72.2021 40.9814L 72.2021 38.3184ZM 85.0781 40.2783L 76.2715 40.2783L 76.2715 38.9512L 85.0781 38.9512L 85.0781 40.2783ZM 90.0879 38.8105L 91.3096 38.8105C 92.0771 38.7988 92.6807 38.5967 93.1201 38.2041C 93.5596 37.8115 93.7793 37.2812 93.7793 36.6133C 93.7793 35.1133 93.0322 34.3633 91.5381 34.3633C 90.835 34.3633 90.2725 34.5654 89.8506 34.9697C 89.4346 35.3682 89.2266 35.8984 89.2266 36.5605L 87.6006 36.5605C 87.6006 35.5469 87.9697 34.7061 88.708 34.0381C 89.4521 33.3643 90.3955 33.0273 91.5381 33.0273C 92.7451 33.0273 93.6914 33.3467 94.377 33.9854C 95.0625 34.624 95.4053 35.5117 95.4053 36.6484C 95.4053 37.2051 95.2236 37.7441 94.8604 38.2656C 94.5029 38.7871 94.0137 39.1768 93.3926 39.4346C 94.0957 39.6572 94.6377 40.0264 95.0186 40.542C 95.4053 41.0576 95.5986 41.6875 95.5986 42.4316C 95.5986 43.5801 95.2236 44.4912 94.4736 45.165C 93.7236 45.8389 92.748 46.1758 91.5469 46.1758C 90.3457 46.1758 89.3672 45.8506 88.6113 45.2002C 87.8613 44.5498 87.4863 43.6914 87.4863 42.625L 89.1211 42.625C 89.1211 43.2988 89.3408 43.8379 89.7803 44.2422C 90.2197 44.6465 90.8086 44.8486 91.5469 44.8486C 92.332 44.8486 92.9326 44.6436 93.3486 44.2334C 93.7646 43.8232 93.9727 43.2344 93.9727 42.4668C 93.9727 41.7227 93.7441 41.1514 93.2871 40.7529C 92.8301 40.3545 92.1709 40.1494 91.3096 40.1377L 90.0879 40.1377L 90.0879 38.8105ZM 105.855 40.542C 105.855 42.4463 105.53 43.8613 104.88 44.7871C 104.229 45.7129 103.213 46.1758 101.83 46.1758C 100.465 46.1758 99.4541 45.7246 98.7979 44.8223C 98.1416 43.9141 97.8018 42.5605 97.7783 40.7617L 97.7783 38.5908C 97.7783 36.71 98.1035 35.3125 98.7539 34.3984C 99.4043 33.4844 100.424 33.0273 101.812 33.0273C 103.189 33.0273 104.203 33.4697 104.854 34.3545C 105.504 35.2334 105.838 36.5928 105.855 38.4326L 105.855 40.542ZM 104.229 38.3184C 104.229 36.9414 104.036 35.9395 103.649 35.3125C 103.263 34.6797 102.65 34.3633 101.812 34.3633C 100.98 34.3633 100.374 34.6768 99.9932 35.3037C 99.6123 35.9307 99.416 36.8945 99.4043 38.1953L 99.4043 40.7969C 99.4043 42.1797 99.6035 43.2021 100.002 43.8643C 100.406 44.5205 101.016 44.8486 101.83 44.8486C 102.633 44.8486 103.228 44.5381 103.614 43.917C 104.007 43.2959 104.212 42.3174 104.229 40.9814L 104.229 38.3184ZM 116.385 44.8486C 116.965 44.8486 117.472 44.6729 117.905 44.3213C 118.339 43.9697 118.579 43.5303 118.626 43.0029L 120.164 43.0029C 120.135 43.5479 119.947 44.0664 119.602 44.5586C 119.256 45.0508 118.793 45.4434 118.213 45.7363C 117.639 46.0293 117.029 46.1758 116.385 46.1758C 115.09 46.1758 114.059 45.7451 113.291 44.8838C 112.529 44.0166 112.148 42.833 112.148 41.333L 112.148 41.0605C 112.148 40.1348 112.318 39.3115 112.658 38.5908C 112.998 37.8701 113.484 37.3105 114.117 36.9121C 114.756 36.5137 115.509 36.3145 116.376 36.3145C 117.442 36.3145 118.327 36.6338 119.03 37.2725C 119.739 37.9111 120.117 38.7402 120.164 39.7598L 118.626 39.7598C 118.579 39.1445 118.345 38.6406 117.923 38.248C 117.507 37.8496 116.991 37.6504 116.376 37.6504C 115.55 37.6504 114.908 37.9492 114.451 38.5469C 114 39.1387 113.774 39.9971 113.774 41.1221L 113.774 41.4297C 113.774 42.5254 114 43.3691 114.451 43.9609C 114.902 44.5527 115.547 44.8486 116.385 44.8486ZM 125.938 46.1758C 124.649 46.1758 123.601 45.7539 122.792 44.9102C 121.983 44.0605 121.579 42.9268 121.579 41.5088L 121.579 41.21C 121.579 40.2666 121.758 39.4258 122.115 38.6875C 122.479 37.9434 122.982 37.3633 123.627 36.9473C 124.277 36.5254 124.98 36.3145 125.736 36.3145C 126.973 36.3145 127.934 36.7217 128.619 37.5361C 129.305 38.3506 129.647 39.5166 129.647 41.0342L 129.647 41.7109L 123.205 41.7109C 123.229 42.6484 123.501 43.4072 124.022 43.9873C 124.55 44.5615 125.218 44.8486 126.026 44.8486C 126.601 44.8486 127.087 44.7314 127.485 44.4971C 127.884 44.2627 128.232 43.9521 128.531 43.5654L 129.524 44.3389C 128.728 45.5635 127.532 46.1758 125.938 46.1758ZM 125.736 37.6504C 125.08 37.6504 124.529 37.8906 124.084 38.3711C 123.639 38.8457 123.363 39.5137 123.258 40.375L 128.021 40.375L 128.021 40.252C 127.975 39.4258 127.752 38.7871 127.354 38.3359C 126.955 37.8789 126.416 37.6504 125.736 37.6504ZM 139.307 46L 137.681 46L 137.681 41.9395L 133.312 41.9395L 133.312 46L 131.678 46L 131.678 36.4902L 133.312 36.4902L 133.312 40.6123L 137.681 40.6123L 137.681 36.4902L 139.307 36.4902L 139.307 46ZM 148.992 37.8086L 145.802 37.8086L 145.802 46L 144.176 46L 144.176 37.8086L 141.047 37.8086L 141.047 36.4902L 148.992 36.4902L 148.992 37.8086ZM 157.843 36.4902L 157.843 46L 156.208 46L 156.208 42.2998L 153.756 42.2998L 151.515 46L 149.757 46L 152.147 42.0537C 151.538 41.8311 151.069 41.4883 150.741 41.0254C 150.419 40.5566 150.258 40.0117 150.258 39.3906C 150.258 38.5234 150.583 37.8262 151.233 37.2988C 151.884 36.7656 152.754 36.4961 153.844 36.4902L 157.843 36.4902ZM 151.893 39.4082C 151.893 39.8711 152.051 40.2461 152.367 40.5332C 152.684 40.8145 153.103 40.958 153.624 40.9639L 156.208 40.9639L 156.208 37.8086L 153.87 37.8086C 153.267 37.8086 152.786 37.958 152.429 38.2568C 152.071 38.5498 151.893 38.9336 151.893 39.4082ZM 164.628 37.0352C 165.823 37.0352 166.778 37.4365 167.493 38.2393C 168.214 39.0361 168.574 40.0879 168.574 41.3945L 168.574 41.5439C 168.574 42.4404 168.401 43.2432 168.056 43.9521C 167.71 44.6553 167.212 45.2031 166.562 45.5957C 165.917 45.9824 165.173 46.1758 164.329 46.1758C 163.052 46.1758 162.023 45.751 161.244 44.9014C 160.465 44.0459 160.075 42.9004 160.075 41.4648L 160.075 40.6738C 160.075 38.6758 160.444 37.0879 161.183 35.9102C 161.927 34.7324 163.022 34.0146 164.47 33.7568C 165.29 33.6104 165.844 33.4316 166.131 33.2207C 166.418 33.0098 166.562 32.7197 166.562 32.3506L 167.897 32.3506C 167.897 33.083 167.73 33.6543 167.396 34.0645C 167.068 34.4746 166.541 34.7646 165.814 34.9346L 164.602 35.207C 163.635 35.4355 162.908 35.8223 162.422 36.3672C 161.941 36.9063 161.628 37.627 161.481 38.5293C 162.343 37.5332 163.392 37.0352 164.628 37.0352ZM 164.312 38.3711C 163.515 38.3711 162.882 38.6406 162.413 39.1797C 161.944 39.7129 161.71 40.4541 161.71 41.4033L 161.71 41.5439C 161.71 42.5635 161.944 43.3721 162.413 43.9697C 162.888 44.5615 163.526 44.8574 164.329 44.8574C 165.138 44.8574 165.776 44.5586 166.245 43.9609C 166.714 43.3633 166.948 42.4902 166.948 41.3418C 166.948 40.4453 166.711 39.7275 166.236 39.1885C 165.768 38.6436 165.126 38.3711 164.312 38.3711ZM 178.277 41.3506C 178.277 42.7979 177.946 43.9639 177.284 44.8486C 176.622 45.7334 175.726 46.1758 174.595 46.1758C 173.44 46.1758 172.532 45.8096 171.87 45.0771L 171.87 49.6562L 170.244 49.6562L 170.244 36.4902L 171.729 36.4902L 171.809 37.5449C 172.471 36.7246 173.391 36.3145 174.568 36.3145C 175.711 36.3145 176.613 36.7451 177.275 37.6064C 177.943 38.4678 178.277 39.666 178.277 41.2012L 178.277 41.3506ZM 176.651 41.166C 176.651 40.0938 176.423 39.2471 175.966 38.626C 175.509 38.0049 174.882 37.6943 174.085 37.6943C 173.101 37.6943 172.362 38.1309 171.87 39.0039L 171.87 43.5479C 172.356 44.415 173.101 44.8486 174.103 44.8486C 174.882 44.8486 175.5 44.541 175.957 43.9258C 176.42 43.3047 176.651 42.3848 176.651 41.166ZM 187.62 36.4902L 187.62 46L 185.985 46L 185.985 42.2998L 183.533 42.2998L 181.292 46L 179.534 46L 181.925 42.0537C 181.315 41.8311 180.847 41.4883 180.519 41.0254C 180.196 40.5566 180.035 40.0117 180.035 39.3906C 180.035 38.5234 180.36 37.8262 181.011 37.2988C 181.661 36.7656 182.531 36.4961 183.621 36.4902L 187.62 36.4902ZM 181.67 39.4082C 181.67 39.8711 181.828 40.2461 182.145 40.5332C 182.461 40.8145 182.88 40.958 183.401 40.9639L 185.985 40.9639L 185.985 37.8086L 183.647 37.8086C 183.044 37.8086 182.563 37.958 182.206 38.2568C 181.849 38.5498 181.67 38.9336 181.67 39.4082Z"/>
<path id="path4_fill" d="M 4.80762 11.252L 3.25195 11.252L 3.25195 17L 1.56445 17L 1.56445 4.20312L 3.25195 4.20312L 3.25195 9.8457L 4.57031 9.8457L 9.04395 4.20312L 11.1445 4.20312L 6.25781 10.4082L 11.5049 17L 9.43945 17L 4.80762 11.252ZM 12.1201 12.1572C 12.1201 11.2256 12.3018 10.3877 12.665 9.64355C 13.0342 8.89941 13.5439 8.3252 14.1943 7.9209C 14.8506 7.5166 15.5977 7.31445 16.4355 7.31445C 17.7305 7.31445 18.7764 7.7627 19.5732 8.65918C 20.376 9.55566 20.7773 10.748 20.7773 12.2363L 20.7773 12.3506C 20.7773 13.2764 20.5986 14.1084 20.2412 14.8467C 19.8896 15.5791 19.3828 16.1504 18.7207 16.5605C 18.0645 16.9707 17.3086 17.1758 16.4531 17.1758C 15.1641 17.1758 14.1182 16.7275 13.3154 15.8311C 12.5186 14.9346 12.1201 13.748 12.1201 12.2715L 12.1201 12.1572ZM 13.7549 12.3506C 13.7549 13.4053 13.998 14.252 14.4844 14.8906C 14.9766 15.5293 15.6328 15.8486 16.4531 15.8486C 17.2793 15.8486 17.9355 15.5264 18.4219 14.8818C 18.9082 14.2314 19.1514 13.3232 19.1514 12.1572C 19.1514 11.1143 18.9023 10.2705 18.4043 9.62598C 17.9121 8.97559 17.2559 8.65039 16.4355 8.65039C 15.6328 8.65039 14.9854 8.96973 14.4932 9.6084C 14.001 10.2471 13.7549 11.1611 13.7549 12.3506ZM 30.4717 7.49023L 30.4717 17L 28.8369 17L 28.8369 8.83496L 25.6025 8.83496L 25.4092 12.3945C 25.3037 14.0293 25.0283 15.1982 24.583 15.9014C 24.1436 16.6045 23.4434 16.9707 22.4824 17L 21.832 17L 21.832 15.5674L 22.2979 15.5322C 22.8252 15.4736 23.2031 15.1689 23.4316 14.6182C 23.6602 14.0674 23.8066 13.0479 23.8711 11.5596L 24.0469 7.49023L 30.4717 7.49023ZM 36.4658 12.2275L 32.1768 12.2275L 32.1768 10.9004L 36.4658 10.9004L 36.4658 12.2275ZM 38.2061 17L 38.2061 7.49023L 41.915 7.49023C 43.1807 7.49023 44.1504 7.71289 44.8242 8.1582C 45.5039 8.59766 45.8438 9.24512 45.8438 10.1006C 45.8438 10.54 45.7119 10.9385 45.4482 11.2959C 45.1846 11.6475 44.7949 11.917 44.2793 12.1045C 44.8535 12.2393 45.3135 12.5029 45.6592 12.8955C 46.0107 13.2881 46.1865 13.7568 46.1865 14.3018C 46.1865 15.1748 45.8643 15.8428 45.2197 16.3057C 44.5811 16.7686 43.6758 17 42.5039 17L 38.2061 17ZM 39.832 12.8252L 39.832 15.6904L 42.5215 15.6904C 43.2012 15.6904 43.708 15.5645 44.042 15.3125C 44.3818 15.0605 44.5518 14.7061 44.5518 14.249C 44.5518 13.2998 43.8545 12.8252 42.46 12.8252L 39.832 12.8252ZM 39.832 11.5244L 41.9326 11.5244C 43.4561 11.5244 44.2178 11.0791 44.2178 10.1885C 44.2178 9.29785 43.4971 8.83789 42.0557 8.80859L 39.832 8.80859L 39.832 11.5244ZM 47.9092 12.1572C 47.9092 11.2256 48.0908 10.3877 48.4541 9.64355C 48.8232 8.89941 49.333 8.3252 49.9834 7.9209C 50.6396 7.5166 51.3867 7.31445 52.2246 7.31445C 53.5195 7.31445 54.5654 7.7627 55.3623 8.65918C 56.165 9.55566 56.5664 10.748 56.5664 12.2363L 56.5664 12.3506C 56.5664 13.2764 56.3877 14.1084 56.0303 14.8467C 55.6787 15.5791 55.1719 16.1504 54.5098 16.5605C 53.8535 16.9707 53.0977 17.1758 52.2422 17.1758C 50.9531 17.1758 49.9072 16.7275 49.1045 15.8311C 48.3076 14.9346 47.9092 13.748 47.9092 12.2715L 47.9092 12.1572ZM 49.5439 12.3506C 49.5439 13.4053 49.7871 14.252 50.2734 14.8906C 50.7656 15.5293 51.4219 15.8486 52.2422 15.8486C 53.0684 15.8486 53.7246 15.5264 54.2109 14.8818C 54.6973 14.2314 54.9404 13.3232 54.9404 12.1572C 54.9404 11.1143 54.6914 10.2705 54.1934 9.62598C 53.7012 8.97559 53.0449 8.65039 52.2246 8.65039C 51.4219 8.65039 50.7744 8.96973 50.2822 9.6084C 49.79 10.2471 49.5439 11.1611 49.5439 12.3506ZM 70.1367 8.80859L 66.9463 8.80859L 66.9463 17L 65.3203 17L 65.3203 8.80859L 62.1914 8.80859L 62.1914 7.49023L 70.1367 7.49023L 70.1367 8.80859ZM 70.9189 12.1572C 70.9189 11.2256 71.1006 10.3877 71.4639 9.64355C 71.833 8.89941 72.3428 8.3252 72.9932 7.9209C 73.6494 7.5166 74.3965 7.31445 75.2344 7.31445C 76.5293 7.31445 77.5752 7.7627 78.3721 8.65918C 79.1748 9.55566 79.5762 10.748 79.5762 12.2363L 79.5762 12.3506C 79.5762 13.2764 79.3975 14.1084 79.04 14.8467C 78.6885 15.5791 78.1816 16.1504 77.5195 16.5605C 76.8633 16.9707 76.1074 17.1758 75.252 17.1758C 73.9629 17.1758 72.917 16.7275 72.1143 15.8311C 71.3174 14.9346 70.9189 13.748 70.9189 12.2715L 70.9189 12.1572ZM 72.5537 12.3506C 72.5537 13.4053 72.7969 14.252 73.2832 14.8906C 73.7754 15.5293 74.4316 15.8486 75.252 15.8486C 76.0781 15.8486 76.7344 15.5264 77.2207 14.8818C 77.707 14.2314 77.9502 13.3232 77.9502 12.1572C 77.9502 11.1143 77.7012 10.2705 77.2031 9.62598C 76.7109 8.97559 76.0547 8.65039 75.2344 8.65039C 74.4316 8.65039 73.7842 8.96973 73.292 9.6084C 72.7998 10.2471 72.5537 11.1611 72.5537 12.3506ZM 84.5771 12.9482L 83.3906 12.9482L 83.3906 17L 81.7559 17L 81.7559 7.49023L 83.3906 7.49023L 83.3906 11.5156L 84.4541 11.5156L 87.6533 7.49023L 89.6221 7.49023L 85.8604 12.0605L 89.9385 17L 87.873 17L 84.5771 12.9482ZM 95.1416 17.1758C 93.8525 17.1758 92.8037 16.7539 91.9951 15.9102C 91.1865 15.0605 90.7822 13.9268 90.7822 12.5088L 90.7822 12.21C 90.7822 11.2666 90.9609 10.4258 91.3184 9.6875C 91.6816 8.94336 92.1855 8.36328 92.8301 7.94727C 93.4805 7.52539 94.1836 7.31445 94.9395 7.31445C 96.1758 7.31445 97.1367 7.72168 97.8223 8.53613C 98.5078 9.35059 98.8506 10.5166 98.8506 12.0342L 98.8506 12.7109L 92.4082 12.7109C 92.4316 13.6484 92.7041 14.4072 93.2256 14.9873C 93.7529 15.5615 94.4209 15.8486 95.2295 15.8486C 95.8037 15.8486 96.29 15.7314 96.6885 15.4971C 97.0869 15.2627 97.4355 14.9521 97.7344 14.5654L 98.7275 15.3389C 97.9307 16.5635 96.7354 17.1758 95.1416 17.1758ZM 94.9395 8.65039C 94.2832 8.65039 93.7324 8.89062 93.2871 9.37109C 92.8418 9.8457 92.5664 10.5137 92.4609 11.375L 97.2246 11.375L 97.2246 11.252C 97.1777 10.4258 96.9551 9.78711 96.5566 9.33594C 96.1582 8.87891 95.6191 8.65039 94.9395 8.65039ZM 108.51 17L 106.884 17L 106.884 12.9395L 102.516 12.9395L 102.516 17L 100.881 17L 100.881 7.49023L 102.516 7.49023L 102.516 11.6123L 106.884 11.6123L 106.884 7.49023L 108.51 7.49023L 108.51 17ZM 110.698 12.1572C 110.698 11.2256 110.88 10.3877 111.243 9.64355C 111.612 8.89941 112.122 8.3252 112.772 7.9209C 113.429 7.5166 114.176 7.31445 115.014 7.31445C 116.309 7.31445 117.354 7.7627 118.151 8.65918C 118.954 9.55566 119.355 10.748 119.355 12.2363L 119.355 12.3506C 119.355 13.2764 119.177 14.1084 118.819 14.8467C 118.468 15.5791 117.961 16.1504 117.299 16.5605C 116.643 16.9707 115.887 17.1758 115.031 17.1758C 113.742 17.1758 112.696 16.7275 111.894 15.8311C 111.097 14.9346 110.698 13.748 110.698 12.2715L 110.698 12.1572ZM 112.333 12.3506C 112.333 13.4053 112.576 14.252 113.062 14.8906C 113.555 15.5293 114.211 15.8486 115.031 15.8486C 115.857 15.8486 116.514 15.5264 117 14.8818C 117.486 14.2314 117.729 13.3232 117.729 12.1572C 117.729 11.1143 117.48 10.2705 116.982 9.62598C 116.49 8.97559 115.834 8.65039 115.014 8.65039C 114.211 8.65039 113.563 8.96973 113.071 9.6084C 112.579 10.2471 112.333 11.1611 112.333 12.3506ZM 121.544 17L 121.544 7.49023L 125.253 7.49023C 126.519 7.49023 127.488 7.71289 128.162 8.1582C 128.842 8.59766 129.182 9.24512 129.182 10.1006C 129.182 10.54 129.05 10.9385 128.786 11.2959C 128.522 11.6475 128.133 11.917 127.617 12.1045C 128.191 12.2393 128.651 12.5029 128.997 12.8955C 129.349 13.2881 129.524 13.7568 129.524 14.3018C 129.524 15.1748 129.202 15.8428 128.558 16.3057C 127.919 16.7686 127.014 17 125.842 17L 121.544 17ZM 123.17 12.8252L 123.17 15.6904L 125.859 15.6904C 126.539 15.6904 127.046 15.5645 127.38 15.3125C 127.72 15.0605 127.89 14.7061 127.89 14.249C 127.89 13.2998 127.192 12.8252 125.798 12.8252L 123.17 12.8252ZM 123.17 11.5244L 125.271 11.5244C 126.794 11.5244 127.556 11.0791 127.556 10.1885C 127.556 9.29785 126.835 8.83789 125.394 8.80859L 123.17 8.80859L 123.17 11.5244ZM 131.625 16.1475C 131.625 15.8662 131.707 15.6318 131.871 15.4443C 132.041 15.2568 132.293 15.1631 132.627 15.1631C 132.961 15.1631 133.213 15.2568 133.383 15.4443C 133.559 15.6318 133.646 15.8662 133.646 16.1475C 133.646 16.417 133.559 16.6426 133.383 16.8242C 133.213 17.0059 132.961 17.0967 132.627 17.0967C 132.293 17.0967 132.041 17.0059 131.871 16.8242C 131.707 16.6426 131.625 16.417 131.625 16.1475ZM 131.634 8.38672C 131.634 8.10547 131.716 7.87109 131.88 7.68359C 132.05 7.49609 132.302 7.40234 132.636 7.40234C 132.97 7.40234 133.222 7.49609 133.392 7.68359C 133.567 7.87109 133.655 8.10547 133.655 8.38672C 133.655 8.65625 133.567 8.88184 133.392 9.06348C 133.222 9.24512 132.97 9.33594 132.636 9.33594C 132.302 9.33594 132.05 9.24512 131.88 9.06348C 131.716 8.88184 131.634 8.65625 131.634 8.38672ZM 12.999 49.1377L 11.3203 49.1377L 11.3203 46L 2.13574 46L 2.13574 49.1465L 0.448242 49.1465L 0.439453 44.6201L 1.48535 44.6201C 2.03613 43.999 2.47266 43.167 2.79492 42.124C 3.12305 41.0752 3.32812 39.9268 3.41016 38.6787L 3.69141 33.2031L 11.3467 33.2031L 11.3467 44.6201L 13.0166 44.6201L 12.999 49.1377ZM 3.41016 44.6201L 9.65039 44.6201L 9.65039 34.5918L 5.31738 34.5918L 5.13281 38.3535C 5.05664 39.8242 4.86035 41.0781 4.54395 42.1152C 4.2334 43.1523 3.85547 43.9873 3.41016 44.6201ZM 20.6367 46C 20.543 45.8125 20.4668 45.4785 20.4082 44.998C 19.6523 45.7832 18.75 46.1758 17.7012 46.1758C 16.7637 46.1758 15.9932 45.9121 15.3896 45.3848C 14.792 44.8516 14.4932 44.1777 14.4932 43.3633C 14.4932 42.373 14.8682 41.6055 15.6182 41.0605C 16.374 40.5098 17.4346 40.2344 18.7998 40.2344L 20.3818 40.2344L 20.3818 39.4873C 20.3818 38.9189 20.2119 38.4678 19.8721 38.1338C 19.5322 37.7939 19.0312 37.624 18.3691 37.624C 17.7891 37.624 17.3027 37.7705 16.9102 38.0635C 16.5176 38.3564 16.3213 38.7109 16.3213 39.127L 14.6865 39.127C 14.6865 38.6523 14.8535 38.1953 15.1875 37.7559C 15.5273 37.3105 15.9844 36.959 16.5586 36.7012C 17.1387 36.4434 17.7744 36.3145 18.4658 36.3145C 19.5615 36.3145 20.4199 36.5898 21.041 37.1406C 21.6621 37.6855 21.9844 38.4385 22.0078 39.3994L 22.0078 43.7764C 22.0078 44.6494 22.1191 45.3438 22.3418 45.8594L 22.3418 46L 20.6367 46ZM 17.9385 44.7607C 18.4482 44.7607 18.9316 44.6289 19.3887 44.3652C 19.8457 44.1016 20.1768 43.7588 20.3818 43.3369L 20.3818 41.3857L 19.1074 41.3857C 17.1152 41.3857 16.1191 41.9688 16.1191 43.1348C 16.1191 43.6445 16.2891 44.043 16.6289 44.3301C 16.9687 44.6172 17.4053 44.7607 17.9385 44.7607ZM 31.4824 37.8086L 28.292 37.8086L 28.292 46L 26.666 46L 26.666 37.8086L 23.5371 37.8086L 23.5371 36.4902L 31.4824 36.4902L 31.4824 37.8086ZM 34.8398 39.7686L 37.3096 39.7686C 38.3877 39.7803 39.2402 40.0615 39.8672 40.6123C 40.4941 41.1631 40.8076 41.9102 40.8076 42.8535C 40.8076 43.8027 40.4854 44.5645 39.8408 45.1387C 39.1963 45.7129 38.3291 46 37.2393 46L 33.2139 46L 33.2139 36.4902L 34.8398 36.4902L 34.8398 39.7686ZM 44.2002 46L 42.5654 46L 42.5654 36.4902L 44.2002 36.4902L 44.2002 46ZM 34.8398 41.0957L 34.8398 44.6729L 37.2568 44.6729C 37.8662 44.6729 38.3379 44.5176 38.6719 44.207C 39.0059 43.8906 39.1729 43.46 39.1729 42.915C 39.1729 42.3877 39.0088 41.957 38.6807 41.623C 38.3584 41.2832 37.9043 41.1074 37.3184 41.0957L 34.8398 41.0957ZM 46.9863 45.1475C 46.9863 44.8662 47.0684 44.6318 47.2324 44.4443C 47.4023 44.2568 47.6543 44.1631 47.9883 44.1631C 48.3223 44.1631 48.5742 44.2568 48.7441 44.4443C 48.9199 44.6318 49.0078 44.8662 49.0078 45.1475C 49.0078 45.417 48.9199 45.6426 48.7441 45.8242C 48.5742 46.0059 48.3223 46.0967 47.9883 46.0967C 47.6543 46.0967 47.4023 46.0059 47.2324 45.8242C 47.0684 45.6426 46.9863 45.417 46.9863 45.1475ZM 46.9951 37.3867C 46.9951 37.1055 47.0771 36.8711 47.2412 36.6836C 47.4111 36.4961 47.6631 36.4023 47.9971 36.4023C 48.3311 36.4023 48.583 36.4961 48.7529 36.6836C 48.9287 36.8711 49.0166 37.1055 49.0166 37.3867C 49.0166 37.6563 48.9287 37.8818 48.7529 38.0635C 48.583 38.2451 48.3311 38.3359 47.9971 38.3359C 47.6631 38.3359 47.4111 38.2451 47.2412 38.0635C 47.0771 37.8818 46.9951 37.6563 46.9951 37.3867Z"/>
<path id="path5_fill" d="M 65.1094 9.81055L 66.3311 9.81055C 67.0986 9.79883 67.7021 9.59668 68.1416 9.2041C 68.5811 8.81152 68.8008 8.28125 68.8008 7.61328C 68.8008 6.11328 68.0537 5.36328 66.5596 5.36328C 65.8564 5.36328 65.2939 5.56543 64.8721 5.96973C 64.4561 6.36816 64.248 6.89844 64.248 7.56055L 62.6221 7.56055C 62.6221 6.54687 62.9912 5.70605 63.7295 5.03809C 64.4736 4.36426 65.417 4.02734 66.5596 4.02734C 67.7666 4.02734 68.7129 4.34668 69.3984 4.98535C 70.084 5.62402 70.4268 6.51172 70.4268 7.64844C 70.4268 8.20508 70.2451 8.74414 69.8818 9.26562C 69.5244 9.78711 69.0352 10.1768 68.4141 10.4346C 69.1172 10.6572 69.6592 11.0264 70.04 11.542C 70.4268 12.0576 70.6201 12.6875 70.6201 13.4316C 70.6201 14.5801 70.2451 15.4912 69.4951 16.165C 68.7451 16.8389 67.7695 17.1758 66.5684 17.1758C 65.3672 17.1758 64.3887 16.8506 63.6328 16.2002C 62.8828 15.5498 62.5078 14.6914 62.5078 13.625L 64.1426 13.625C 64.1426 14.2988 64.3623 14.8379 64.8018 15.2422C 65.2412 15.6465 65.8301 15.8486 66.5684 15.8486C 67.3535 15.8486 67.9541 15.6436 68.3701 15.2334C 68.7861 14.8232 68.9941 14.2344 68.9941 13.4668C 68.9941 12.7227 68.7656 12.1514 68.3086 11.7529C 67.8516 11.3545 67.1924 11.1494 66.3311 11.1377L 65.1094 11.1377L 65.1094 9.81055ZM 73.5996 10.584L 74.25 4.20312L 80.8066 4.20312L 80.8066 5.70605L 75.6299 5.70605L 75.2432 9.19531C 75.8701 8.82617 76.582 8.6416 77.3789 8.6416C 78.5449 8.6416 79.4707 9.02832 80.1562 9.80176C 80.8418 10.5693 81.1846 11.6094 81.1846 12.9219C 81.1846 14.2402 80.8271 15.2803 80.1123 16.042C 79.4033 16.7979 78.4102 17.1758 77.1328 17.1758C 76.002 17.1758 75.0791 16.8623 74.3643 16.2354C 73.6494 15.6084 73.2422 14.7412 73.1426 13.6338L 74.6807 13.6338C 74.7803 14.3662 75.041 14.9199 75.4629 15.2949C 75.8848 15.6641 76.4414 15.8486 77.1328 15.8486C 77.8887 15.8486 78.4805 15.5908 78.9082 15.0752C 79.3418 14.5596 79.5586 13.8477 79.5586 12.9395C 79.5586 12.084 79.3242 11.3984 78.8555 10.8828C 78.3926 10.3613 77.7744 10.1006 77.001 10.1006C 76.292 10.1006 75.7354 10.2559 75.3311 10.5664L 74.9004 10.918L 73.5996 10.584ZM 82.8193 6.66406C 82.8193 5.89648 83.0625 5.26367 83.5488 4.76562C 84.041 4.26758 84.6709 4.01855 85.4385 4.01855C 86.2178 4.01855 86.8477 4.27051 87.3281 4.77441C 87.8145 5.27246 88.0576 5.91992 88.0576 6.7168L 88.0576 7.34082C 88.0576 8.11426 87.8115 8.74707 87.3193 9.23926C 86.833 9.72559 86.2119 9.96875 85.4561 9.96875C 84.6943 9.96875 84.0645 9.72559 83.5664 9.23926C 83.0684 8.74707 82.8193 8.09375 82.8193 7.2793L 82.8193 6.66406ZM 84.0322 7.34082C 84.0322 7.79785 84.1611 8.17578 84.4189 8.47461C 84.6768 8.76758 85.0225 8.91406 85.4561 8.91406C 85.8721 8.91406 86.2061 8.77051 86.458 8.4834C 86.7158 8.19629 86.8447 7.80371 86.8447 7.30566L 86.8447 6.66406C 86.8447 6.20703 86.7188 5.8291 86.4668 5.53027C 86.2148 5.23145 85.8721 5.08203 85.4385 5.08203C 85.0049 5.08203 84.6621 5.23145 84.4102 5.53027C 84.1582 5.8291 84.0322 6.21875 84.0322 6.69922L 84.0322 7.34082ZM 89.0508 13.8623C 89.0508 13.0947 89.2939 12.4648 89.7803 11.9727C 90.2725 11.4746 90.9023 11.2256 91.6699 11.2256C 92.4375 11.2256 93.0674 11.4717 93.5596 11.9639C 94.0518 12.4561 94.2979 13.1094 94.2979 13.9238L 94.2979 14.5479C 94.2979 15.3154 94.0518 15.9482 93.5596 16.4463C 93.0732 16.9385 92.4492 17.1846 91.6875 17.1846C 90.9258 17.1846 90.2959 16.9414 89.7979 16.4551C 89.2998 15.9629 89.0508 15.3096 89.0508 14.4951L 89.0508 13.8623ZM 90.2637 14.5479C 90.2637 15.0107 90.3926 15.3916 90.6504 15.6904C 90.9082 15.9834 91.2539 16.1299 91.6875 16.1299C 92.1094 16.1299 92.4463 15.9863 92.6982 15.6992C 92.9502 15.4063 93.0762 15.0107 93.0762 14.5127L 93.0762 13.8623C 93.0762 13.3994 92.9473 13.0215 92.6895 12.7285C 92.4375 12.4355 92.0977 12.2891 91.6699 12.2891C 91.2539 12.2891 90.9141 12.4355 90.6504 12.7285C 90.3926 13.0156 90.2637 13.4053 90.2637 13.8975L 90.2637 14.5479ZM 85.8252 16.0332L 84.9023 15.4531L 91.1514 5.45117L 92.0742 6.03125L 85.8252 16.0332ZM 104.722 17.1758C 103.433 17.1758 102.384 16.7539 101.575 15.9102C 100.767 15.0605 100.362 13.9268 100.362 12.5088L 100.362 12.21C 100.362 11.2666 100.541 10.4258 100.898 9.6875C 101.262 8.94336 101.766 8.36328 102.41 7.94727C 103.061 7.52539 103.764 7.31445 104.52 7.31445C 105.756 7.31445 106.717 7.72168 107.402 8.53613C 108.088 9.35059 108.431 10.5166 108.431 12.0342L 108.431 12.7109L 101.988 12.7109C 102.012 13.6484 102.284 14.4072 102.806 14.9873C 103.333 15.5615 104.001 15.8486 104.81 15.8486C 105.384 15.8486 105.87 15.7314 106.269 15.4971C 106.667 15.2627 107.016 14.9521 107.314 14.5654L 108.308 15.3389C 107.511 16.5635 106.315 17.1758 104.722 17.1758ZM 104.52 8.65039C 103.863 8.65039 103.312 8.89062 102.867 9.37109C 102.422 9.8457 102.146 10.5137 102.041 11.375L 106.805 11.375L 106.805 11.252C 106.758 10.4258 106.535 9.78711 106.137 9.33594C 105.738 8.87891 105.199 8.65039 104.52 8.65039ZM 117.905 12.8691L 116.763 12.8691L 116.763 17L 115.137 17L 115.137 12.8691L 113.994 12.8691L 111.331 17L 109.274 17L 112.676 12.0781L 109.6 7.49023L 111.568 7.49023L 114.021 11.4277L 115.137 11.4277L 115.137 7.49023L 116.763 7.49023L 116.763 11.4277L 117.87 11.4277L 120.34 7.49023L 122.309 7.49023L 119.224 12.0869L 122.625 17L 120.568 17L 117.905 12.8691ZM 127.872 17.1758C 126.583 17.1758 125.534 16.7539 124.726 15.9102C 123.917 15.0605 123.513 13.9268 123.513 12.5088L 123.513 12.21C 123.513 11.2666 123.691 10.4258 124.049 9.6875C 124.412 8.94336 124.916 8.36328 125.561 7.94727C 126.211 7.52539 126.914 7.31445 127.67 7.31445C 128.906 7.31445 129.867 7.72168 130.553 8.53613C 131.238 9.35059 131.581 10.5166 131.581 12.0342L 131.581 12.7109L 125.139 12.7109C 125.162 13.6484 125.435 14.4072 125.956 14.9873C 126.483 15.5615 127.151 15.8486 127.96 15.8486C 128.534 15.8486 129.021 15.7314 129.419 15.4971C 129.817 15.2627 130.166 14.9521 130.465 14.5654L 131.458 15.3389C 130.661 16.5635 129.466 17.1758 127.872 17.1758ZM 127.67 8.65039C 127.014 8.65039 126.463 8.89062 126.018 9.37109C 125.572 9.8457 125.297 10.5137 125.191 11.375L 129.955 11.375L 129.955 11.252C 129.908 10.4258 129.686 9.78711 129.287 9.33594C 128.889 8.87891 128.35 8.65039 127.67 8.65039ZM 138.946 14.8467L 142.181 7.49023L 144.211 7.49023L 144.211 17L 142.585 17L 142.585 10.083L 139.509 17L 138.384 17L 135.246 9.93359L 135.246 17L 133.62 17L 133.62 7.49023L 135.729 7.49023L 138.946 14.8467ZM 150.776 17.1758C 149.487 17.1758 148.438 16.7539 147.63 15.9102C 146.821 15.0605 146.417 13.9268 146.417 12.5088L 146.417 12.21C 146.417 11.2666 146.596 10.4258 146.953 9.6875C 147.316 8.94336 147.82 8.36328 148.465 7.94727C 149.115 7.52539 149.818 7.31445 150.574 7.31445C 151.811 7.31445 152.771 7.72168 153.457 8.53613C 154.143 9.35059 154.485 10.5166 154.485 12.0342L 154.485 12.7109L 148.043 12.7109C 148.066 13.6484 148.339 14.4072 148.86 14.9873C 149.388 15.5615 150.056 15.8486 150.864 15.8486C 151.438 15.8486 151.925 15.7314 152.323 15.4971C 152.722 15.2627 153.07 14.9521 153.369 14.5654L 154.362 15.3389C 153.565 16.5635 152.37 17.1758 150.776 17.1758ZM 150.574 8.65039C 149.918 8.65039 149.367 8.89062 148.922 9.37109C 148.477 9.8457 148.201 10.5137 148.096 11.375L 152.859 11.375L 152.859 11.252C 152.813 10.4258 152.59 9.78711 152.191 9.33594C 151.793 8.87891 151.254 8.65039 150.574 8.65039ZM 160.189 15.8486C 160.77 15.8486 161.276 15.6729 161.71 15.3213C 162.144 14.9697 162.384 14.5303 162.431 14.0029L 163.969 14.0029C 163.939 14.5479 163.752 15.0664 163.406 15.5586C 163.061 16.0508 162.598 16.4434 162.018 16.7363C 161.443 17.0293 160.834 17.1758 160.189 17.1758C 158.895 17.1758 157.863 16.7451 157.096 15.8838C 156.334 15.0166 155.953 13.833 155.953 12.333L 155.953 12.0605C 155.953 11.1348 156.123 10.3115 156.463 9.59082C 156.803 8.87012 157.289 8.31055 157.922 7.91211C 158.561 7.51367 159.313 7.31445 160.181 7.31445C 161.247 7.31445 162.132 7.63379 162.835 8.27246C 163.544 8.91113 163.922 9.74023 163.969 10.7598L 162.431 10.7598C 162.384 10.1445 162.149 9.64063 161.728 9.24805C 161.312 8.84961 160.796 8.65039 160.181 8.65039C 159.354 8.65039 158.713 8.94922 158.256 9.54688C 157.805 10.1387 157.579 10.9971 157.579 12.1221L 157.579 12.4297C 157.579 13.5254 157.805 14.3691 158.256 14.9609C 158.707 15.5527 159.352 15.8486 160.189 15.8486ZM 173.065 7.49023L 173.065 17L 171.431 17L 171.431 13.2998L 168.979 13.2998L 166.737 17L 164.979 17L 167.37 13.0537C 166.761 12.8311 166.292 12.4883 165.964 12.0254C 165.642 11.5566 165.48 11.0117 165.48 10.3906C 165.48 9.52344 165.806 8.82617 166.456 8.29883C 167.106 7.76563 167.977 7.49609 169.066 7.49023L 173.065 7.49023ZM 167.115 10.4082C 167.115 10.8711 167.273 11.2461 167.59 11.5332C 167.906 11.8145 168.325 11.958 168.847 11.9639L 171.431 11.9639L 171.431 8.80859L 169.093 8.80859C 168.489 8.80859 168.009 8.95801 167.651 9.25684C 167.294 9.5498 167.115 9.93359 167.115 10.4082ZM 182.856 17L 181.222 17L 181.222 13.5547C 180.507 13.7422 179.774 13.8359 179.024 13.8359C 177.835 13.8359 176.927 13.5313 176.3 12.9219C 175.679 12.3125 175.362 11.4453 175.351 10.3203L 175.351 7.48145L 176.977 7.48145L 176.977 10.373C 177.006 11.791 177.688 12.5 179.024 12.5C 179.774 12.5 180.507 12.4062 181.222 12.2188L 181.222 7.49023L 182.856 7.49023L 182.856 17ZM 193.236 17L 191.61 17L 191.61 12.9395L 187.242 12.9395L 187.242 17L 185.607 17L 185.607 7.49023L 187.242 7.49023L 187.242 11.6123L 191.61 11.6123L 191.61 7.49023L 193.236 7.49023L 193.236 17ZM 195.425 12.1572C 195.425 11.2256 195.606 10.3877 195.97 9.64355C 196.339 8.89941 196.849 8.3252 197.499 7.9209C 198.155 7.5166 198.902 7.31445 199.74 7.31445C 201.035 7.31445 202.081 7.7627 202.878 8.65918C 203.681 9.55566 204.082 10.748 204.082 12.2363L 204.082 12.3506C 204.082 13.2764 203.903 14.1084 203.546 14.8467C 203.194 15.5791 202.687 16.1504 202.025 16.5605C 201.369 16.9707 200.613 17.1758 199.758 17.1758C 198.469 17.1758 197.423 16.7275 196.62 15.8311C 195.823 14.9346 195.425 13.748 195.425 12.2715L 195.425 12.1572ZM 197.06 12.3506C 197.06 13.4053 197.303 14.252 197.789 14.8906C 198.281 15.5293 198.937 15.8486 199.758 15.8486C 200.584 15.8486 201.24 15.5264 201.727 14.8818C 202.213 14.2314 202.456 13.3232 202.456 12.1572C 202.456 11.1143 202.207 10.2705 201.709 9.62598C 201.217 8.97559 200.561 8.65039 199.74 8.65039C 198.937 8.65039 198.29 8.96973 197.798 9.6084C 197.306 10.2471 197.06 11.1611 197.06 12.3506Z"/>
<path id="path6_fill" d="M 12.999 20.1377L 11.3203 20.1377L 11.3203 17L 2.13574 17L 2.13574 20.1465L 0.448242 20.1465L 0.439453 15.6201L 1.48535 15.6201C 2.03613 14.999 2.47266 14.167 2.79492 13.124C 3.12305 12.0752 3.32812 10.9268 3.41016 9.67871L 3.69141 4.20312L 11.3467 4.20312L 11.3467 15.6201L 13.0166 15.6201L 12.999 20.1377ZM 3.41016 15.6201L 9.65039 15.6201L 9.65039 5.5918L 5.31738 5.5918L 5.13281 9.35352C 5.05664 10.8242 4.86035 12.0781 4.54395 13.1152C 4.2334 14.1523 3.85547 14.9873 3.41016 15.6201ZM 14.335 12.1572C 14.335 11.2256 14.5166 10.3877 14.8799 9.64355C 15.249 8.89941 15.7588 8.3252 16.4092 7.9209C 17.0654 7.5166 17.8125 7.31445 18.6504 7.31445C 19.9453 7.31445 20.9912 7.7627 21.7881 8.65918C 22.5908 9.55566 22.9922 10.748 22.9922 12.2363L 22.9922 12.3506C 22.9922 13.2764 22.8135 14.1084 22.4561 14.8467C 22.1045 15.5791 21.5977 16.1504 20.9355 16.5605C 20.2793 16.9707 19.5234 17.1758 18.668 17.1758C 17.3789 17.1758 16.333 16.7275 15.5303 15.8311C 14.7334 14.9346 14.335 13.748 14.335 12.2715L 14.335 12.1572ZM 15.9697 12.3506C 15.9697 13.4053 16.2129 14.252 16.6992 14.8906C 17.1914 15.5293 17.8477 15.8486 18.668 15.8486C 19.4941 15.8486 20.1504 15.5264 20.6367 14.8818C 21.123 14.2314 21.3662 13.3232 21.3662 12.1572C 21.3662 11.1143 21.1172 10.2705 20.6191 9.62598C 20.127 8.97559 19.4707 8.65039 18.6504 8.65039C 17.8477 8.65039 17.2002 8.96973 16.708 9.6084C 16.2158 10.2471 15.9697 11.1611 15.9697 12.3506ZM 28.0283 10.9619L 30.1377 7.49023L 32.0361 7.49023L 28.9248 12.1924L 32.1328 17L 30.252 17L 28.0547 13.4404L 25.8574 17L 23.9678 17L 27.1758 12.1924L 24.0645 7.49023L 25.9453 7.49023L 28.0283 10.9619ZM 33.1611 12.1572C 33.1611 11.2256 33.3428 10.3877 33.7061 9.64355C 34.0752 8.89941 34.585 8.3252 35.2354 7.9209C 35.8916 7.5166 36.6387 7.31445 37.4766 7.31445C 38.7715 7.31445 39.8174 7.7627 40.6143 8.65918C 41.417 9.55566 41.8184 10.748 41.8184 12.2363L 41.8184 12.3506C 41.8184 13.2764 41.6396 14.1084 41.2822 14.8467C 40.9307 15.5791 40.4238 16.1504 39.7617 16.5605C 39.1055 16.9707 38.3496 17.1758 37.4941 17.1758C 36.2051 17.1758 35.1592 16.7275 34.3564 15.8311C 33.5596 14.9346 33.1611 13.748 33.1611 12.2715L 33.1611 12.1572ZM 34.7959 12.3506C 34.7959 13.4053 35.0391 14.252 35.5254 14.8906C 36.0176 15.5293 36.6738 15.8486 37.4941 15.8486C 38.3203 15.8486 38.9766 15.5264 39.4629 14.8818C 39.9492 14.2314 40.1924 13.3232 40.1924 12.1572C 40.1924 11.1143 39.9434 10.2705 39.4453 9.62598C 38.9531 8.97559 38.2969 8.65039 37.4766 8.65039C 36.6738 8.65039 36.0264 8.96973 35.5342 9.6084C 35.042 10.2471 34.7959 11.1611 34.7959 12.3506ZM 43.1455 15.6729L 43.708 14.9785C 44.3408 14.1582 44.7012 12.9277 44.7891 11.2871L 44.9385 7.49023L 51.0645 7.49023L 51.0645 15.6729L 52.2861 15.6729L 52.2861 19.7949L 50.6602 19.7949L 50.6602 17L 44.0244 17L 44.0244 19.7949L 42.3984 19.7949L 42.4072 15.6729L 43.1455 15.6729ZM 45.0703 15.6729L 49.4385 15.6729L 49.4385 8.99316L 46.5117 8.99316L 46.415 11.2607C 46.3154 13.1533 45.8672 14.624 45.0703 15.6729ZM 54.0352 16.1475C 54.0352 15.8662 54.1172 15.6318 54.2812 15.4443C 54.4512 15.2568 54.7031 15.1631 55.0371 15.1631C 55.3711 15.1631 55.623 15.2568 55.793 15.4443C 55.9688 15.6318 56.0566 15.8662 56.0566 16.1475C 56.0566 16.417 55.9688 16.6426 55.793 16.8242C 55.623 17.0059 55.3711 17.0967 55.0371 17.0967C 54.7031 17.0967 54.4512 17.0059 54.2812 16.8242C 54.1172 16.6426 54.0352 16.417 54.0352 16.1475ZM 54.0439 8.38672C 54.0439 8.10547 54.126 7.87109 54.29 7.68359C 54.46 7.49609 54.7119 7.40234 55.0459 7.40234C 55.3799 7.40234 55.6318 7.49609 55.8018 7.68359C 55.9775 7.87109 56.0654 8.10547 56.0654 8.38672C 56.0654 8.65625 55.9775 8.88184 55.8018 9.06348C 55.6318 9.24512 55.3799 9.33594 55.0459 9.33594C 54.7119 9.33594 54.46 9.24512 54.29 9.06348C 54.126 8.88184 54.0439 8.65625 54.0439 8.38672Z"/>
</defs>
</svg>
