<svg width="1072" height="1160" viewBox="0 0 1072 1160" version="1.1" xmlns="http://www.w3.org/2000/svg" xmlns:xlink="http://www.w3.org/1999/xlink">
<title>Group</title>
<desc>Created using Figma</desc>
<g id="Canvas" transform="matrix(4 0 0 4 -1552 -19480)">
<g id="Group">
<g id="Rectangle 9">
<use xlink:href="#path0_fill" transform="translate(388.5 4929.74)" fill="url(#paint0_linear)"/>
</g>
<g id="1TRH = 5$">
<use xlink:href="#path1_fill" transform="translate(389.5 4854.74)" fill="#181818"/>
<use xlink:href="#path2_fill" transform="translate(389.5 4854.74)" fill="#07DA91"/>
</g>
<g id="&#208;&#154;&#208;&#190;&#208;&#187;-&#208;&#178;&#208;&#190; &#209;&#130;&#208;&#190;&#208;&#186;&#208;&#181;&#208;&#189;&#208;&#190;&#208;&#178;: 2 320 000 &#208;&#148;&#208;&#176;&#209;&#130;&#209;&#139;: 1&#226;&#128;&#147;31 &#208;&#190;&#208;&#186;&#209;&#130;&#209;&#143;&#208;&#177;&#209;&#128;&#209;&#143;">
<use xlink:href="#path3_fill" transform="translate(408.5 4949.74)" fill="#181818"/>
<use xlink:href="#path4_fill" transform="translate(408.5 4949.74)" fill="#181818" fill-opacity="0.5"/>
</g>
<g id="&#208;&#148;&#208;&#190;&#209;&#133;&#208;&#190;&#208;&#180;: 20% &#208;&#181;&#208;&#182;&#208;&#181;&#208;&#188;&#208;&#181;&#209;&#129;&#209;&#143;&#209;&#135;&#208;&#189;&#208;&#190;">
<use xlink:href="#path5_fill" transform="translate(408.5 5121.24)" fill="#181818"/>
<use xlink:href="#path6_fill" transform="translate(408.5 5121.24)" fill="#181818" fill-opacity="0.5"/>
</g>
</g>
</g>
<defs>
<linearGradient id="paint0_linear" x1="0" y1="0" x2="1" y2="0" gradientUnits="userSpaceOnUse" gradientTransform="matrix(1.6349e-14 229.953 -267 1.40806e-14 267 -1.40806e-14)">
<stop offset="0" stop-color="#1DFCAF"/>
<stop offset="1" stop-color="#00D5D5"/>
</linearGradient>
<path id="path0_fill" d="M 0 5C 0 2.23858 2.23858 0 5 0L 262 0C 264.761 0 267 2.23858 267 5L 267 224.953C 267 227.715 264.761 229.953 262 229.953L 5 229.953C 2.23858 229.953 0 227.715 0 224.953L 0 5Z"/>
<path id="path1_fill" d="M 43.8828 33.7891L 38.3984 33.7891L 38.3984 49L 36.1602 49L 36.1602 33.7891L 30.6875 33.7891L 30.6875 31.9375L 43.8828 31.9375L 43.8828 33.7891ZM 52.6719 42.0977L 48.6641 42.0977L 48.6641 49L 46.4023 49L 46.4023 31.9375L 52.0508 31.9375C 53.9727 31.9375 55.4492 32.375 56.4805 33.25C 57.5195 34.125 58.0391 35.3984 58.0391 37.0703C 58.0391 38.1328 57.75 39.0586 57.1719 39.8477C 56.6016 40.6367 55.8047 41.2266 54.7812 41.6172L 58.7891 48.8594L 58.7891 49L 56.375 49L 52.6719 42.0977ZM 48.6641 40.2578L 52.1211 40.2578C 53.2383 40.2578 54.125 39.9687 54.7812 39.3906C 55.4453 38.8125 55.7773 38.0391 55.7773 37.0703C 55.7773 36.0156 55.4609 35.207 54.8281 34.6445C 54.2031 34.082 53.2969 33.7969 52.1094 33.7891L 48.6641 33.7891L 48.6641 40.2578ZM 74.3164 49L 72.0547 49L 72.0547 41.1133L 63.4531 41.1133L 63.4531 49L 61.2031 49L 61.2031 31.9375L 63.4531 31.9375L 63.4531 39.2734L 72.0547 39.2734L 72.0547 31.9375L 74.3164 31.9375L 74.3164 49ZM 93.8398 39.4609L 84.0664 39.4609L 84.0664 37.5742L 93.8398 37.5742L 93.8398 39.4609ZM 93.8398 44.3242L 84.0664 44.3242L 84.0664 42.4492L 93.8398 42.4492L 93.8398 44.3242ZM 141.422 44.6055C 141.422 43.8867 141.168 43.2812 140.66 42.7891C 140.16 42.2969 139.312 41.8516 138.117 41.4531C 136.453 40.9453 135.238 40.2852 134.473 39.4727C 133.715 38.6523 133.336 37.6133 133.336 36.3555C 133.336 35.0742 133.707 34.0234 134.449 33.2031C 135.199 32.3828 136.227 31.8945 137.531 31.7383L 137.531 29.1719L 139.277 29.1719L 139.277 31.75C 140.59 31.9297 141.609 32.4805 142.336 33.4023C 143.07 34.3242 143.438 35.5859 143.438 37.1875L 141.281 37.1875C 141.281 36.0859 141.02 35.2109 140.496 34.5625C 139.973 33.9141 139.266 33.5898 138.375 33.5898C 137.445 33.5898 136.734 33.832 136.242 34.3164C 135.75 34.793 135.504 35.4609 135.504 36.3203C 135.504 37.1172 135.762 37.7539 136.277 38.2305C 136.801 38.6992 137.656 39.1289 138.844 39.5195C 140.039 39.9023 140.969 40.3281 141.633 40.7969C 142.305 41.2578 142.797 41.7969 143.109 42.4141C 143.43 43.0312 143.59 43.7539 143.59 44.582C 143.59 45.9023 143.191 46.9648 142.395 47.7695C 141.605 48.5742 140.496 49.0508 139.066 49.1992L 139.066 51.4375L 137.332 51.4375L 137.332 49.1992C 135.879 49.0664 134.738 48.5508 133.91 47.6523C 133.09 46.7461 132.68 45.5195 132.68 43.9727L 134.848 43.9727C 134.848 45.0586 135.133 45.8945 135.703 46.4805C 136.273 47.0664 137.082 47.3594 138.129 47.3594C 139.152 47.3594 139.957 47.1133 140.543 46.6211C 141.129 46.1289 141.422 45.457 141.422 44.6055Z"/>
<path id="path2_fill" d="M 11.8328 49L 20.4828 49L 20.4828 15.65L 7.08281 15.65L 7.08281 23L 11.8328 23L 11.8328 49ZM 126.16 15.65L 108.81 15.65L 105.91 33.6C 107.71 32.7 109.71 32.2 112.06 32.2C 113.16 32.2 116.26 32.25 118.06 33.85C 118.81 34.5 119.66 35.7 119.66 37.45C 119.66 38.85 119.11 40.05 118.36 40.85C 117.36 41.9 115.76 42.5 114.01 42.5C 112.36 42.5 110.51 42.05 109.01 41.35C 108.46 41.1 106.76 40.25 105.01 38.65L 103.71 46.75C 106.41 48.45 109.91 49.75 114.96 49.75C 118.16 49.75 122.26 49.2 125.36 46C 126.96 44.35 128.56 41.65 128.56 37.65C 128.56 33.8 127.01 31.25 125.51 29.75C 123.96 28.15 121.16 26.45 116.71 26.45C 116.26 26.45 115.26 26.5 114.01 26.7L 114.61 23L 126.16 23L 126.16 15.65Z"/>
<path id="path3_fill" d="M 148.72 17L 140.335 17L 140.335 15.8311L 144.765 10.9092C 145.421 10.165 145.872 9.56152 146.118 9.09863C 146.37 8.62988 146.496 8.14648 146.496 7.64844C 146.496 6.98047 146.294 6.43262 145.89 6.00488C 145.485 5.57715 144.946 5.36328 144.272 5.36328C 143.464 5.36328 142.834 5.59473 142.383 6.05762C 141.938 6.51465 141.715 7.15332 141.715 7.97363L 140.089 7.97363C 140.089 6.7959 140.467 5.84375 141.223 5.11719C 141.984 4.39063 143.001 4.02734 144.272 4.02734C 145.462 4.02734 146.402 4.34082 147.094 4.96777C 147.785 5.58887 148.131 6.41797 148.131 7.45508C 148.131 8.71484 147.328 10.2148 145.723 11.9551L 142.295 15.6729L 148.72 15.6729L 148.72 17ZM 157.271 9.81055L 158.493 9.81055C 159.261 9.79883 159.864 9.59668 160.304 9.2041C 160.743 8.81152 160.963 8.28125 160.963 7.61328C 160.963 6.11328 160.216 5.36328 158.722 5.36328C 158.019 5.36328 157.456 5.56543 157.034 5.96973C 156.618 6.36816 156.41 6.89844 156.41 7.56055L 154.784 7.56055C 154.784 6.54687 155.153 5.70605 155.892 5.03809C 156.636 4.36426 157.579 4.02734 158.722 4.02734C 159.929 4.02734 160.875 4.34668 161.561 4.98535C 162.246 5.62402 162.589 6.51172 162.589 7.64844C 162.589 8.20508 162.407 8.74414 162.044 9.26562C 161.687 9.78711 161.197 10.1768 160.576 10.4346C 161.279 10.6572 161.821 11.0264 162.202 11.542C 162.589 12.0576 162.782 12.6875 162.782 13.4316C 162.782 14.5801 162.407 15.4912 161.657 16.165C 160.907 16.8389 159.932 17.1758 158.73 17.1758C 157.529 17.1758 156.551 16.8506 155.795 16.2002C 155.045 15.5498 154.67 14.6914 154.67 13.625L 156.305 13.625C 156.305 14.2988 156.524 14.8379 156.964 15.2422C 157.403 15.6465 157.992 15.8486 158.73 15.8486C 159.516 15.8486 160.116 15.6436 160.532 15.2334C 160.948 14.8232 161.156 14.2344 161.156 13.4668C 161.156 12.7227 160.928 12.1514 160.471 11.7529C 160.014 11.3545 159.354 11.1494 158.493 11.1377L 157.271 11.1377L 157.271 9.81055ZM 173.399 17L 165.015 17L 165.015 15.8311L 169.444 10.9092C 170.101 10.165 170.552 9.56152 170.798 9.09863C 171.05 8.62988 171.176 8.14648 171.176 7.64844C 171.176 6.98047 170.974 6.43262 170.569 6.00488C 170.165 5.57715 169.626 5.36328 168.952 5.36328C 168.144 5.36328 167.514 5.59473 167.062 6.05762C 166.617 6.51465 166.395 7.15332 166.395 7.97363L 164.769 7.97363C 164.769 6.7959 165.146 5.84375 165.902 5.11719C 166.664 4.39063 167.681 4.02734 168.952 4.02734C 170.142 4.02734 171.082 4.34082 171.773 4.96777C 172.465 5.58887 172.811 6.41797 172.811 7.45508C 172.811 8.71484 172.008 10.2148 170.402 11.9551L 166.975 15.6729L 173.399 15.6729L 173.399 17ZM 183.146 11.542C 183.146 13.4463 182.821 14.8613 182.171 15.7871C 181.521 16.7129 180.504 17.1758 179.121 17.1758C 177.756 17.1758 176.745 16.7246 176.089 15.8223C 175.433 14.9141 175.093 13.5605 175.069 11.7617L 175.069 9.59082C 175.069 7.70996 175.395 6.3125 176.045 5.39844C 176.695 4.48438 177.715 4.02734 179.104 4.02734C 180.48 4.02734 181.494 4.46973 182.145 5.35449C 182.795 6.2334 183.129 7.59277 183.146 9.43262L 183.146 11.542ZM 181.521 9.31836C 181.521 7.94141 181.327 6.93945 180.94 6.3125C 180.554 5.67969 179.941 5.36328 179.104 5.36328C 178.271 5.36328 177.665 5.67676 177.284 6.30371C 176.903 6.93066 176.707 7.89453 176.695 9.19531L 176.695 11.7969C 176.695 13.1797 176.895 14.2021 177.293 14.8643C 177.697 15.5205 178.307 15.8486 179.121 15.8486C 179.924 15.8486 180.519 15.5381 180.905 14.917C 181.298 14.2959 181.503 13.3174 181.521 11.9814L 181.521 9.31836ZM 197.719 11.542C 197.719 13.4463 197.394 14.8613 196.743 15.7871C 196.093 16.7129 195.076 17.1758 193.693 17.1758C 192.328 17.1758 191.317 16.7246 190.661 15.8223C 190.005 14.9141 189.665 13.5605 189.642 11.7617L 189.642 9.59082C 189.642 7.70996 189.967 6.3125 190.617 5.39844C 191.268 4.48438 192.287 4.02734 193.676 4.02734C 195.053 4.02734 196.066 4.46973 196.717 5.35449C 197.367 6.2334 197.701 7.59277 197.719 9.43262L 197.719 11.542ZM 196.093 9.31836C 196.093 7.94141 195.899 6.93945 195.513 6.3125C 195.126 5.67969 194.514 5.36328 193.676 5.36328C 192.844 5.36328 192.237 5.67676 191.856 6.30371C 191.476 6.93066 191.279 7.89453 191.268 9.19531L 191.268 11.7969C 191.268 13.1797 191.467 14.2021 191.865 14.8643C 192.27 15.5205 192.879 15.8486 193.693 15.8486C 194.496 15.8486 195.091 15.5381 195.478 14.917C 195.87 14.2959 196.075 13.3174 196.093 11.9814L 196.093 9.31836ZM 207.826 11.542C 207.826 13.4463 207.501 14.8613 206.851 15.7871C 206.2 16.7129 205.184 17.1758 203.801 17.1758C 202.436 17.1758 201.425 16.7246 200.769 15.8223C 200.112 14.9141 199.772 13.5605 199.749 11.7617L 199.749 9.59082C 199.749 7.70996 200.074 6.3125 200.725 5.39844C 201.375 4.48438 202.395 4.02734 203.783 4.02734C 205.16 4.02734 206.174 4.46973 206.824 5.35449C 207.475 6.2334 207.809 7.59277 207.826 9.43262L 207.826 11.542ZM 206.2 9.31836C 206.2 7.94141 206.007 6.93945 205.62 6.3125C 205.233 5.67969 204.621 5.36328 203.783 5.36328C 202.951 5.36328 202.345 5.67676 201.964 6.30371C 201.583 6.93066 201.387 7.89453 201.375 9.19531L 201.375 11.7969C 201.375 13.1797 201.574 14.2021 201.973 14.8643C 202.377 15.5205 202.986 15.8486 203.801 15.8486C 204.604 15.8486 205.198 15.5381 205.585 14.917C 205.978 14.2959 206.183 13.3174 206.2 11.9814L 206.2 9.31836ZM 217.934 11.542C 217.934 13.4463 217.608 14.8613 216.958 15.7871C 216.308 16.7129 215.291 17.1758 213.908 17.1758C 212.543 17.1758 211.532 16.7246 210.876 15.8223C 210.22 14.9141 209.88 13.5605 209.856 11.7617L 209.856 9.59082C 209.856 7.70996 210.182 6.3125 210.832 5.39844C 211.482 4.48438 212.502 4.02734 213.891 4.02734C 215.268 4.02734 216.281 4.46973 216.932 5.35449C 217.582 6.2334 217.916 7.59277 217.934 9.43262L 217.934 11.542ZM 216.308 9.31836C 216.308 7.94141 216.114 6.93945 215.728 6.3125C 215.341 5.67969 214.729 5.36328 213.891 5.36328C 213.059 5.36328 212.452 5.67676 212.071 6.30371C 211.69 6.93066 211.494 7.89453 211.482 9.19531L 211.482 11.7969C 211.482 13.1797 211.682 14.2021 212.08 14.8643C 212.484 15.5205 213.094 15.8486 213.908 15.8486C 214.711 15.8486 215.306 15.5381 215.692 14.917C 216.085 14.2959 216.29 13.3174 216.308 11.9814L 216.308 9.31836ZM 61.04 46L 59.4053 46L 59.4053 35.1631L 56.127 36.3672L 56.127 34.8906L 60.7852 33.1416L 61.04 33.1416L 61.04 46ZM 74.9707 40.2783L 66.1641 40.2783L 66.1641 38.9512L 74.9707 38.9512L 74.9707 40.2783ZM 79.9805 38.8105L 81.2021 38.8105C 81.9697 38.7988 82.5732 38.5967 83.0127 38.2041C 83.4521 37.8115 83.6719 37.2812 83.6719 36.6133C 83.6719 35.1133 82.9248 34.3633 81.4307 34.3633C 80.7275 34.3633 80.165 34.5654 79.7432 34.9697C 79.3271 35.3682 79.1191 35.8984 79.1191 36.5605L 77.4932 36.5605C 77.4932 35.5469 77.8623 34.7061 78.6006 34.0381C 79.3447 33.3643 80.2881 33.0273 81.4307 33.0273C 82.6377 33.0273 83.584 33.3467 84.2695 33.9854C 84.9551 34.624 85.2979 35.5117 85.2979 36.6484C 85.2979 37.2051 85.1162 37.7441 84.7529 38.2656C 84.3955 38.7871 83.9063 39.1768 83.2852 39.4346C 83.9883 39.6572 84.5303 40.0264 84.9111 40.542C 85.2979 41.0576 85.4912 41.6875 85.4912 42.4316C 85.4912 43.5801 85.1162 44.4912 84.3662 45.165C 83.6162 45.8389 82.6406 46.1758 81.4395 46.1758C 80.2383 46.1758 79.2598 45.8506 78.5039 45.2002C 77.7539 44.5498 77.3789 43.6914 77.3789 42.625L 79.0137 42.625C 79.0137 43.2988 79.2334 43.8379 79.6729 44.2422C 80.1123 44.6465 80.7012 44.8486 81.4395 44.8486C 82.2246 44.8486 82.8252 44.6436 83.2412 44.2334C 83.6572 43.8232 83.8652 43.2344 83.8652 42.4668C 83.8652 41.7227 83.6367 41.1514 83.1797 40.7529C 82.7227 40.3545 82.0635 40.1494 81.2021 40.1377L 79.9805 40.1377L 79.9805 38.8105ZM 93.0674 46L 91.4326 46L 91.4326 35.1631L 88.1543 36.3672L 88.1543 34.8906L 92.8125 33.1416L 93.0674 33.1416L 93.0674 46ZM 102.032 41.1572C 102.032 40.2256 102.214 39.3877 102.577 38.6436C 102.946 37.8994 103.456 37.3252 104.106 36.9209C 104.763 36.5166 105.51 36.3145 106.348 36.3145C 107.643 36.3145 108.688 36.7627 109.485 37.6592C 110.288 38.5557 110.689 39.748 110.689 41.2363L 110.689 41.3506C 110.689 42.2764 110.511 43.1084 110.153 43.8467C 109.802 44.5791 109.295 45.1504 108.633 45.5605C 107.977 45.9707 107.221 46.1758 106.365 46.1758C 105.076 46.1758 104.03 45.7275 103.228 44.8311C 102.431 43.9346 102.032 42.748 102.032 41.2715L 102.032 41.1572ZM 103.667 41.3506C 103.667 42.4053 103.91 43.252 104.396 43.8906C 104.889 44.5293 105.545 44.8486 106.365 44.8486C 107.191 44.8486 107.848 44.5264 108.334 43.8818C 108.82 43.2314 109.063 42.3232 109.063 41.1572C 109.063 40.1143 108.814 39.2705 108.316 38.626C 107.824 37.9756 107.168 37.6504 106.348 37.6504C 105.545 37.6504 104.897 37.9697 104.405 38.6084C 103.913 39.2471 103.667 40.1611 103.667 41.3506ZM 115.69 41.9482L 114.504 41.9482L 114.504 46L 112.869 46L 112.869 36.4902L 114.504 36.4902L 114.504 40.5156L 115.567 40.5156L 118.767 36.4902L 120.735 36.4902L 116.974 41.0605L 121.052 46L 118.986 46L 115.69 41.9482ZM 129.516 37.8086L 126.325 37.8086L 126.325 46L 124.699 46L 124.699 37.8086L 121.57 37.8086L 121.57 36.4902L 129.516 36.4902L 129.516 37.8086ZM 138.366 36.4902L 138.366 46L 136.731 46L 136.731 42.2998L 134.279 42.2998L 132.038 46L 130.28 46L 132.671 42.0537C 132.062 41.8311 131.593 41.4883 131.265 41.0254C 130.942 40.5566 130.781 40.0117 130.781 39.3906C 130.781 38.5234 131.106 37.8262 131.757 37.2988C 132.407 36.7656 133.277 36.4961 134.367 36.4902L 138.366 36.4902ZM 132.416 39.4082C 132.416 39.8711 132.574 40.2461 132.891 40.5332C 133.207 40.8145 133.626 40.958 134.147 40.9639L 136.731 40.9639L 136.731 37.8086L 134.394 37.8086C 133.79 37.8086 133.31 37.958 132.952 38.2568C 132.595 38.5498 132.416 38.9336 132.416 39.4082ZM 145.151 37.0352C 146.347 37.0352 147.302 37.4365 148.017 38.2393C 148.737 39.0361 149.098 40.0879 149.098 41.3945L 149.098 41.5439C 149.098 42.4404 148.925 43.2432 148.579 43.9521C 148.233 44.6553 147.735 45.2031 147.085 45.5957C 146.44 45.9824 145.696 46.1758 144.853 46.1758C 143.575 46.1758 142.547 45.751 141.768 44.9014C 140.988 44.0459 140.599 42.9004 140.599 41.4648L 140.599 40.6738C 140.599 38.6758 140.968 37.0879 141.706 35.9102C 142.45 34.7324 143.546 34.0146 144.993 33.7568C 145.813 33.6104 146.367 33.4316 146.654 33.2207C 146.941 33.0098 147.085 32.7197 147.085 32.3506L 148.421 32.3506C 148.421 33.083 148.254 33.6543 147.92 34.0645C 147.592 34.4746 147.064 34.7646 146.338 34.9346L 145.125 35.207C 144.158 35.4355 143.432 35.8223 142.945 36.3672C 142.465 36.9063 142.151 37.627 142.005 38.5293C 142.866 37.5332 143.915 37.0352 145.151 37.0352ZM 144.835 38.3711C 144.038 38.3711 143.405 38.6406 142.937 39.1797C 142.468 39.7129 142.233 40.4541 142.233 41.4033L 142.233 41.5439C 142.233 42.5635 142.468 43.3721 142.937 43.9697C 143.411 44.5615 144.05 44.8574 144.853 44.8574C 145.661 44.8574 146.3 44.5586 146.769 43.9609C 147.237 43.3633 147.472 42.4902 147.472 41.3418C 147.472 40.4453 147.234 39.7275 146.76 39.1885C 146.291 38.6436 145.649 38.3711 144.835 38.3711ZM 158.801 41.3506C 158.801 42.7979 158.47 43.9639 157.808 44.8486C 157.146 45.7334 156.249 46.1758 155.118 46.1758C 153.964 46.1758 153.056 45.8096 152.394 45.0771L 152.394 49.6562L 150.768 49.6562L 150.768 36.4902L 152.253 36.4902L 152.332 37.5449C 152.994 36.7246 153.914 36.3145 155.092 36.3145C 156.234 36.3145 157.137 36.7451 157.799 37.6064C 158.467 38.4678 158.801 39.666 158.801 41.2012L 158.801 41.3506ZM 157.175 41.166C 157.175 40.0938 156.946 39.2471 156.489 38.626C 156.032 38.0049 155.405 37.6943 154.608 37.6943C 153.624 37.6943 152.886 38.1309 152.394 39.0039L 152.394 43.5479C 152.88 44.415 153.624 44.8486 154.626 44.8486C 155.405 44.8486 156.023 44.541 156.48 43.9258C 156.943 43.3047 157.175 42.3848 157.175 41.166ZM 168.144 36.4902L 168.144 46L 166.509 46L 166.509 42.2998L 164.057 42.2998L 161.815 46L 160.058 46L 162.448 42.0537C 161.839 41.8311 161.37 41.4883 161.042 41.0254C 160.72 40.5566 160.559 40.0117 160.559 39.3906C 160.559 38.5234 160.884 37.8262 161.534 37.2988C 162.185 36.7656 163.055 36.4961 164.145 36.4902L 168.144 36.4902ZM 162.193 39.4082C 162.193 39.8711 162.352 40.2461 162.668 40.5332C 162.984 40.8145 163.403 40.958 163.925 40.9639L 166.509 40.9639L 166.509 37.8086L 164.171 37.8086C 163.567 37.8086 163.087 37.958 162.729 38.2568C 162.372 38.5498 162.193 38.9336 162.193 39.4082Z"/>
<path id="path4_fill" d="M 4.80762 11.252L 3.25195 11.252L 3.25195 17L 1.56445 17L 1.56445 4.20312L 3.25195 4.20312L 3.25195 9.8457L 4.57031 9.8457L 9.04395 4.20312L 11.1445 4.20312L 6.25781 10.4082L 11.5049 17L 9.43945 17L 4.80762 11.252ZM 12.1201 12.1572C 12.1201 11.2256 12.3018 10.3877 12.665 9.64355C 13.0342 8.89941 13.5439 8.3252 14.1943 7.9209C 14.8506 7.5166 15.5977 7.31445 16.4355 7.31445C 17.7305 7.31445 18.7764 7.7627 19.5732 8.65918C 20.376 9.55566 20.7773 10.748 20.7773 12.2363L 20.7773 12.3506C 20.7773 13.2764 20.5986 14.1084 20.2412 14.8467C 19.8896 15.5791 19.3828 16.1504 18.7207 16.5605C 18.0645 16.9707 17.3086 17.1758 16.4531 17.1758C 15.1641 17.1758 14.1182 16.7275 13.3154 15.8311C 12.5186 14.9346 12.1201 13.748 12.1201 12.2715L 12.1201 12.1572ZM 13.7549 12.3506C 13.7549 13.4053 13.998 14.252 14.4844 14.8906C 14.9766 15.5293 15.6328 15.8486 16.4531 15.8486C 17.2793 15.8486 17.9355 15.5264 18.4219 14.8818C 18.9082 14.2314 19.1514 13.3232 19.1514 12.1572C 19.1514 11.1143 18.9023 10.2705 18.4043 9.62598C 17.9121 8.97559 17.2559 8.65039 16.4355 8.65039C 15.6328 8.65039 14.9854 8.96973 14.4932 9.6084C 14.001 10.2471 13.7549 11.1611 13.7549 12.3506ZM 30.4717 7.49023L 30.4717 17L 28.8369 17L 28.8369 8.83496L 25.6025 8.83496L 25.4092 12.3945C 25.3037 14.0293 25.0283 15.1982 24.583 15.9014C 24.1436 16.6045 23.4434 16.9707 22.4824 17L 21.832 17L 21.832 15.5674L 22.2979 15.5322C 22.8252 15.4736 23.2031 15.1689 23.4316 14.6182C 23.6602 14.0674 23.8066 13.0479 23.8711 11.5596L 24.0469 7.49023L 30.4717 7.49023ZM 36.4658 12.2275L 32.1768 12.2275L 32.1768 10.9004L 36.4658 10.9004L 36.4658 12.2275ZM 38.2061 17L 38.2061 7.49023L 41.915 7.49023C 43.1807 7.49023 44.1504 7.71289 44.8242 8.1582C 45.5039 8.59766 45.8438 9.24512 45.8438 10.1006C 45.8438 10.54 45.7119 10.9385 45.4482 11.2959C 45.1846 11.6475 44.7949 11.917 44.2793 12.1045C 44.8535 12.2393 45.3135 12.5029 45.6592 12.8955C 46.0107 13.2881 46.1865 13.7568 46.1865 14.3018C 46.1865 15.1748 45.8643 15.8428 45.2197 16.3057C 44.5811 16.7686 43.6758 17 42.5039 17L 38.2061 17ZM 39.832 12.8252L 39.832 15.6904L 42.5215 15.6904C 43.2012 15.6904 43.708 15.5645 44.042 15.3125C 44.3818 15.0605 44.5518 14.7061 44.5518 14.249C 44.5518 13.2998 43.8545 12.8252 42.46 12.8252L 39.832 12.8252ZM 39.832 11.5244L 41.9326 11.5244C 43.4561 11.5244 44.2178 11.0791 44.2178 10.1885C 44.2178 9.29785 43.4971 8.83789 42.0557 8.80859L 39.832 8.80859L 39.832 11.5244ZM 47.9092 12.1572C 47.9092 11.2256 48.0908 10.3877 48.4541 9.64355C 48.8232 8.89941 49.333 8.3252 49.9834 7.9209C 50.6396 7.5166 51.3867 7.31445 52.2246 7.31445C 53.5195 7.31445 54.5654 7.7627 55.3623 8.65918C 56.165 9.55566 56.5664 10.748 56.5664 12.2363L 56.5664 12.3506C 56.5664 13.2764 56.3877 14.1084 56.0303 14.8467C 55.6787 15.5791 55.1719 16.1504 54.5098 16.5605C 53.8535 16.9707 53.0977 17.1758 52.2422 17.1758C 50.9531 17.1758 49.9072 16.7275 49.1045 15.8311C 48.3076 14.9346 47.9092 13.748 47.9092 12.2715L 47.9092 12.1572ZM 49.5439 12.3506C 49.5439 13.4053 49.7871 14.252 50.2734 14.8906C 50.7656 15.5293 51.4219 15.8486 52.2422 15.8486C 53.0684 15.8486 53.7246 15.5264 54.2109 14.8818C 54.6973 14.2314 54.9404 13.3232 54.9404 12.1572C 54.9404 11.1143 54.6914 10.2705 54.1934 9.62598C 53.7012 8.97559 53.0449 8.65039 52.2246 8.65039C 51.4219 8.65039 50.7744 8.96973 50.2822 9.6084C 49.79 10.2471 49.5439 11.1611 49.5439 12.3506ZM 70.1367 8.80859L 66.9463 8.80859L 66.9463 17L 65.3203 17L 65.3203 8.80859L 62.1914 8.80859L 62.1914 7.49023L 70.1367 7.49023L 70.1367 8.80859ZM 70.9189 12.1572C 70.9189 11.2256 71.1006 10.3877 71.4639 9.64355C 71.833 8.89941 72.3428 8.3252 72.9932 7.9209C 73.6494 7.5166 74.3965 7.31445 75.2344 7.31445C 76.5293 7.31445 77.5752 7.7627 78.3721 8.65918C 79.1748 9.55566 79.5762 10.748 79.5762 12.2363L 79.5762 12.3506C 79.5762 13.2764 79.3975 14.1084 79.04 14.8467C 78.6885 15.5791 78.1816 16.1504 77.5195 16.5605C 76.8633 16.9707 76.1074 17.1758 75.252 17.1758C 73.9629 17.1758 72.917 16.7275 72.1143 15.8311C 71.3174 14.9346 70.9189 13.748 70.9189 12.2715L 70.9189 12.1572ZM 72.5537 12.3506C 72.5537 13.4053 72.7969 14.252 73.2832 14.8906C 73.7754 15.5293 74.4316 15.8486 75.252 15.8486C 76.0781 15.8486 76.7344 15.5264 77.2207 14.8818C 77.707 14.2314 77.9502 13.3232 77.9502 12.1572C 77.9502 11.1143 77.7012 10.2705 77.2031 9.62598C 76.7109 8.97559 76.0547 8.65039 75.2344 8.65039C 74.4316 8.65039 73.7842 8.96973 73.292 9.6084C 72.7998 10.2471 72.5537 11.1611 72.5537 12.3506ZM 84.5771 12.9482L 83.3906 12.9482L 83.3906 17L 81.7559 17L 81.7559 7.49023L 83.3906 7.49023L 83.3906 11.5156L 84.4541 11.5156L 87.6533 7.49023L 89.6221 7.49023L 85.8604 12.0605L 89.9385 17L 87.873 17L 84.5771 12.9482ZM 95.1416 17.1758C 93.8525 17.1758 92.8037 16.7539 91.9951 15.9102C 91.1865 15.0605 90.7822 13.9268 90.7822 12.5088L 90.7822 12.21C 90.7822 11.2666 90.9609 10.4258 91.3184 9.6875C 91.6816 8.94336 92.1855 8.36328 92.8301 7.94727C 93.4805 7.52539 94.1836 7.31445 94.9395 7.31445C 96.1758 7.31445 97.1367 7.72168 97.8223 8.53613C 98.5078 9.35059 98.8506 10.5166 98.8506 12.0342L 98.8506 12.7109L 92.4082 12.7109C 92.4316 13.6484 92.7041 14.4072 93.2256 14.9873C 93.7529 15.5615 94.4209 15.8486 95.2295 15.8486C 95.8037 15.8486 96.29 15.7314 96.6885 15.4971C 97.0869 15.2627 97.4355 14.9521 97.7344 14.5654L 98.7275 15.3389C 97.9307 16.5635 96.7354 17.1758 95.1416 17.1758ZM 94.9395 8.65039C 94.2832 8.65039 93.7324 8.89062 93.2871 9.37109C 92.8418 9.8457 92.5664 10.5137 92.4609 11.375L 97.2246 11.375L 97.2246 11.252C 97.1777 10.4258 96.9551 9.78711 96.5566 9.33594C 96.1582 8.87891 95.6191 8.65039 94.9395 8.65039ZM 108.51 17L 106.884 17L 106.884 12.9395L 102.516 12.9395L 102.516 17L 100.881 17L 100.881 7.49023L 102.516 7.49023L 102.516 11.6123L 106.884 11.6123L 106.884 7.49023L 108.51 7.49023L 108.51 17ZM 110.698 12.1572C 110.698 11.2256 110.88 10.3877 111.243 9.64355C 111.612 8.89941 112.122 8.3252 112.772 7.9209C 113.429 7.5166 114.176 7.31445 115.014 7.31445C 116.309 7.31445 117.354 7.7627 118.151 8.65918C 118.954 9.55566 119.355 10.748 119.355 12.2363L 119.355 12.3506C 119.355 13.2764 119.177 14.1084 118.819 14.8467C 118.468 15.5791 117.961 16.1504 117.299 16.5605C 116.643 16.9707 115.887 17.1758 115.031 17.1758C 113.742 17.1758 112.696 16.7275 111.894 15.8311C 111.097 14.9346 110.698 13.748 110.698 12.2715L 110.698 12.1572ZM 112.333 12.3506C 112.333 13.4053 112.576 14.252 113.062 14.8906C 113.555 15.5293 114.211 15.8486 115.031 15.8486C 115.857 15.8486 116.514 15.5264 117 14.8818C 117.486 14.2314 117.729 13.3232 117.729 12.1572C 117.729 11.1143 117.48 10.2705 116.982 9.62598C 116.49 8.97559 115.834 8.65039 115.014 8.65039C 114.211 8.65039 113.563 8.96973 113.071 9.6084C 112.579 10.2471 112.333 11.1611 112.333 12.3506ZM 121.544 17L 121.544 7.49023L 125.253 7.49023C 126.519 7.49023 127.488 7.71289 128.162 8.1582C 128.842 8.59766 129.182 9.24512 129.182 10.1006C 129.182 10.54 129.05 10.9385 128.786 11.2959C 128.522 11.6475 128.133 11.917 127.617 12.1045C 128.191 12.2393 128.651 12.5029 128.997 12.8955C 129.349 13.2881 129.524 13.7568 129.524 14.3018C 129.524 15.1748 129.202 15.8428 128.558 16.3057C 127.919 16.7686 127.014 17 125.842 17L 121.544 17ZM 123.17 12.8252L 123.17 15.6904L 125.859 15.6904C 126.539 15.6904 127.046 15.5645 127.38 15.3125C 127.72 15.0605 127.89 14.7061 127.89 14.249C 127.89 13.2998 127.192 12.8252 125.798 12.8252L 123.17 12.8252ZM 123.17 11.5244L 125.271 11.5244C 126.794 11.5244 127.556 11.0791 127.556 10.1885C 127.556 9.29785 126.835 8.83789 125.394 8.80859L 123.17 8.80859L 123.17 11.5244ZM 131.625 16.1475C 131.625 15.8662 131.707 15.6318 131.871 15.4443C 132.041 15.2568 132.293 15.1631 132.627 15.1631C 132.961 15.1631 133.213 15.2568 133.383 15.4443C 133.559 15.6318 133.646 15.8662 133.646 16.1475C 133.646 16.417 133.559 16.6426 133.383 16.8242C 133.213 17.0059 132.961 17.0967 132.627 17.0967C 132.293 17.0967 132.041 17.0059 131.871 16.8242C 131.707 16.6426 131.625 16.417 131.625 16.1475ZM 131.634 8.38672C 131.634 8.10547 131.716 7.87109 131.88 7.68359C 132.05 7.49609 132.302 7.40234 132.636 7.40234C 132.97 7.40234 133.222 7.49609 133.392 7.68359C 133.567 7.87109 133.655 8.10547 133.655 8.38672C 133.655 8.65625 133.567 8.88184 133.392 9.06348C 133.222 9.24512 132.97 9.33594 132.636 9.33594C 132.302 9.33594 132.05 9.24512 131.88 9.06348C 131.716 8.88184 131.634 8.65625 131.634 8.38672ZM 12.999 49.1377L 11.3203 49.1377L 11.3203 46L 2.13574 46L 2.13574 49.1465L 0.448242 49.1465L 0.439453 44.6201L 1.48535 44.6201C 2.03613 43.999 2.47266 43.167 2.79492 42.124C 3.12305 41.0752 3.32812 39.9268 3.41016 38.6787L 3.69141 33.2031L 11.3467 33.2031L 11.3467 44.6201L 13.0166 44.6201L 12.999 49.1377ZM 3.41016 44.6201L 9.65039 44.6201L 9.65039 34.5918L 5.31738 34.5918L 5.13281 38.3535C 5.05664 39.8242 4.86035 41.0781 4.54395 42.1152C 4.2334 43.1523 3.85547 43.9873 3.41016 44.6201ZM 20.6367 46C 20.543 45.8125 20.4668 45.4785 20.4082 44.998C 19.6523 45.7832 18.75 46.1758 17.7012 46.1758C 16.7637 46.1758 15.9932 45.9121 15.3896 45.3848C 14.792 44.8516 14.4932 44.1777 14.4932 43.3633C 14.4932 42.373 14.8682 41.6055 15.6182 41.0605C 16.374 40.5098 17.4346 40.2344 18.7998 40.2344L 20.3818 40.2344L 20.3818 39.4873C 20.3818 38.9189 20.2119 38.4678 19.8721 38.1338C 19.5322 37.7939 19.0312 37.624 18.3691 37.624C 17.7891 37.624 17.3027 37.7705 16.9102 38.0635C 16.5176 38.3564 16.3213 38.7109 16.3213 39.127L 14.6865 39.127C 14.6865 38.6523 14.8535 38.1953 15.1875 37.7559C 15.5273 37.3105 15.9844 36.959 16.5586 36.7012C 17.1387 36.4434 17.7744 36.3145 18.4658 36.3145C 19.5615 36.3145 20.4199 36.5898 21.041 37.1406C 21.6621 37.6855 21.9844 38.4385 22.0078 39.3994L 22.0078 43.7764C 22.0078 44.6494 22.1191 45.3438 22.3418 45.8594L 22.3418 46L 20.6367 46ZM 17.9385 44.7607C 18.4482 44.7607 18.9316 44.6289 19.3887 44.3652C 19.8457 44.1016 20.1768 43.7588 20.3818 43.3369L 20.3818 41.3857L 19.1074 41.3857C 17.1152 41.3857 16.1191 41.9688 16.1191 43.1348C 16.1191 43.6445 16.2891 44.043 16.6289 44.3301C 16.9687 44.6172 17.4053 44.7607 17.9385 44.7607ZM 31.4824 37.8086L 28.292 37.8086L 28.292 46L 26.666 46L 26.666 37.8086L 23.5371 37.8086L 23.5371 36.4902L 31.4824 36.4902L 31.4824 37.8086ZM 34.8398 39.7686L 37.3096 39.7686C 38.3877 39.7803 39.2402 40.0615 39.8672 40.6123C 40.4941 41.1631 40.8076 41.9102 40.8076 42.8535C 40.8076 43.8027 40.4854 44.5645 39.8408 45.1387C 39.1963 45.7129 38.3291 46 37.2393 46L 33.2139 46L 33.2139 36.4902L 34.8398 36.4902L 34.8398 39.7686ZM 44.2002 46L 42.5654 46L 42.5654 36.4902L 44.2002 36.4902L 44.2002 46ZM 34.8398 41.0957L 34.8398 44.6729L 37.2568 44.6729C 37.8662 44.6729 38.3379 44.5176 38.6719 44.207C 39.0059 43.8906 39.1729 43.46 39.1729 42.915C 39.1729 42.3877 39.0088 41.957 38.6807 41.623C 38.3584 41.2832 37.9043 41.1074 37.3184 41.0957L 34.8398 41.0957ZM 46.9863 45.1475C 46.9863 44.8662 47.0684 44.6318 47.2324 44.4443C 47.4023 44.2568 47.6543 44.1631 47.9883 44.1631C 48.3223 44.1631 48.5742 44.2568 48.7441 44.4443C 48.9199 44.6318 49.0078 44.8662 49.0078 45.1475C 49.0078 45.417 48.9199 45.6426 48.7441 45.8242C 48.5742 46.0059 48.3223 46.0967 47.9883 46.0967C 47.6543 46.0967 47.4023 46.0059 47.2324 45.8242C 47.0684 45.6426 46.9863 45.417 46.9863 45.1475ZM 46.9951 37.3867C 46.9951 37.1055 47.0771 36.8711 47.2412 36.6836C 47.4111 36.4961 47.6631 36.4023 47.9971 36.4023C 48.3311 36.4023 48.583 36.4961 48.7529 36.6836C 48.9287 36.8711 49.0166 37.1055 49.0166 37.3867C 49.0166 37.6563 48.9287 37.8818 48.7529 38.0635C 48.583 38.2451 48.3311 38.3359 47.9971 38.3359C 47.6631 38.3359 47.4111 38.2451 47.2412 38.0635C 47.0771 37.8818 46.9951 37.6563 46.9951 37.3867Z"/>
<path id="path5_fill" d="M 71.1299 17L 62.7451 17L 62.7451 15.8311L 67.1748 10.9092C 67.8311 10.165 68.2822 9.56152 68.5283 9.09863C 68.7803 8.62988 68.9062 8.14648 68.9062 7.64844C 68.9062 6.98047 68.7041 6.43262 68.2998 6.00488C 67.8955 5.57715 67.3564 5.36328 66.6826 5.36328C 65.874 5.36328 65.2441 5.59473 64.793 6.05762C 64.3477 6.51465 64.125 7.15332 64.125 7.97363L 62.499 7.97363C 62.499 6.7959 62.877 5.84375 63.6328 5.11719C 64.3945 4.39063 65.4111 4.02734 66.6826 4.02734C 67.8721 4.02734 68.8125 4.34082 69.5039 4.96777C 70.1953 5.58887 70.541 6.41797 70.541 7.45508C 70.541 8.71484 69.7383 10.2148 68.1328 11.9551L 64.7051 15.6729L 71.1299 15.6729L 71.1299 17ZM 80.877 11.542C 80.877 13.4463 80.5518 14.8613 79.9014 15.7871C 79.251 16.7129 78.2344 17.1758 76.8516 17.1758C 75.4863 17.1758 74.4756 16.7246 73.8193 15.8223C 73.1631 14.9141 72.8232 13.5605 72.7998 11.7617L 72.7998 9.59082C 72.7998 7.70996 73.125 6.3125 73.7754 5.39844C 74.4258 4.48438 75.4453 4.02734 76.834 4.02734C 78.2109 4.02734 79.2246 4.46973 79.875 5.35449C 80.5254 6.2334 80.8594 7.59277 80.877 9.43262L 80.877 11.542ZM 79.251 9.31836C 79.251 7.94141 79.0576 6.93945 78.6709 6.3125C 78.2842 5.67969 77.6719 5.36328 76.834 5.36328C 76.002 5.36328 75.3955 5.67676 75.0146 6.30371C 74.6338 6.93066 74.4375 7.89453 74.4258 9.19531L 74.4258 11.7969C 74.4258 13.1797 74.625 14.2021 75.0234 14.8643C 75.4277 15.5205 76.0371 15.8486 76.8516 15.8486C 77.6543 15.8486 78.249 15.5381 78.6357 14.917C 79.0283 14.2959 79.2334 13.3174 79.251 11.9814L 79.251 9.31836ZM 82.8193 6.66406C 82.8193 5.89648 83.0625 5.26367 83.5488 4.76562C 84.041 4.26758 84.6709 4.01855 85.4385 4.01855C 86.2178 4.01855 86.8477 4.27051 87.3281 4.77441C 87.8145 5.27246 88.0576 5.91992 88.0576 6.7168L 88.0576 7.34082C 88.0576 8.11426 87.8115 8.74707 87.3193 9.23926C 86.833 9.72559 86.2119 9.96875 85.4561 9.96875C 84.6943 9.96875 84.0645 9.72559 83.5664 9.23926C 83.0684 8.74707 82.8193 8.09375 82.8193 7.2793L 82.8193 6.66406ZM 84.0322 7.34082C 84.0322 7.79785 84.1611 8.17578 84.4189 8.47461C 84.6768 8.76758 85.0225 8.91406 85.4561 8.91406C 85.8721 8.91406 86.2061 8.77051 86.458 8.4834C 86.7158 8.19629 86.8447 7.80371 86.8447 7.30566L 86.8447 6.66406C 86.8447 6.20703 86.7188 5.8291 86.4668 5.53027C 86.2148 5.23145 85.8721 5.08203 85.4385 5.08203C 85.0049 5.08203 84.6621 5.23145 84.4102 5.53027C 84.1582 5.8291 84.0322 6.21875 84.0322 6.69922L 84.0322 7.34082ZM 89.0508 13.8623C 89.0508 13.0947 89.2939 12.4648 89.7803 11.9727C 90.2725 11.4746 90.9023 11.2256 91.6699 11.2256C 92.4375 11.2256 93.0674 11.4717 93.5596 11.9639C 94.0518 12.4561 94.2979 13.1094 94.2979 13.9238L 94.2979 14.5479C 94.2979 15.3154 94.0518 15.9482 93.5596 16.4463C 93.0732 16.9385 92.4492 17.1846 91.6875 17.1846C 90.9258 17.1846 90.2959 16.9414 89.7979 16.4551C 89.2998 15.9629 89.0508 15.3096 89.0508 14.4951L 89.0508 13.8623ZM 90.2637 14.5479C 90.2637 15.0107 90.3926 15.3916 90.6504 15.6904C 90.9082 15.9834 91.2539 16.1299 91.6875 16.1299C 92.1094 16.1299 92.4463 15.9863 92.6982 15.6992C 92.9502 15.4063 93.0762 15.0107 93.0762 14.5127L 93.0762 13.8623C 93.0762 13.3994 92.9473 13.0215 92.6895 12.7285C 92.4375 12.4355 92.0977 12.2891 91.6699 12.2891C 91.2539 12.2891 90.9141 12.4355 90.6504 12.7285C 90.3926 13.0156 90.2637 13.4053 90.2637 13.8975L 90.2637 14.5479ZM 85.8252 16.0332L 84.9023 15.4531L 91.1514 5.45117L 92.0742 6.03125L 85.8252 16.0332ZM 104.722 17.1758C 103.433 17.1758 102.384 16.7539 101.575 15.9102C 100.767 15.0605 100.362 13.9268 100.362 12.5088L 100.362 12.21C 100.362 11.2666 100.541 10.4258 100.898 9.6875C 101.262 8.94336 101.766 8.36328 102.41 7.94727C 103.061 7.52539 103.764 7.31445 104.52 7.31445C 105.756 7.31445 106.717 7.72168 107.402 8.53613C 108.088 9.35059 108.431 10.5166 108.431 12.0342L 108.431 12.7109L 101.988 12.7109C 102.012 13.6484 102.284 14.4072 102.806 14.9873C 103.333 15.5615 104.001 15.8486 104.81 15.8486C 105.384 15.8486 105.87 15.7314 106.269 15.4971C 106.667 15.2627 107.016 14.9521 107.314 14.5654L 108.308 15.3389C 107.511 16.5635 106.315 17.1758 104.722 17.1758ZM 104.52 8.65039C 103.863 8.65039 103.312 8.89062 102.867 9.37109C 102.422 9.8457 102.146 10.5137 102.041 11.375L 106.805 11.375L 106.805 11.252C 106.758 10.4258 106.535 9.78711 106.137 9.33594C 105.738 8.87891 105.199 8.65039 104.52 8.65039ZM 117.905 12.8691L 116.763 12.8691L 116.763 17L 115.137 17L 115.137 12.8691L 113.994 12.8691L 111.331 17L 109.274 17L 112.676 12.0781L 109.6 7.49023L 111.568 7.49023L 114.021 11.4277L 115.137 11.4277L 115.137 7.49023L 116.763 7.49023L 116.763 11.4277L 117.87 11.4277L 120.34 7.49023L 122.309 7.49023L 119.224 12.0869L 122.625 17L 120.568 17L 117.905 12.8691ZM 127.872 17.1758C 126.583 17.1758 125.534 16.7539 124.726 15.9102C 123.917 15.0605 123.513 13.9268 123.513 12.5088L 123.513 12.21C 123.513 11.2666 123.691 10.4258 124.049 9.6875C 124.412 8.94336 124.916 8.36328 125.561 7.94727C 126.211 7.52539 126.914 7.31445 127.67 7.31445C 128.906 7.31445 129.867 7.72168 130.553 8.53613C 131.238 9.35059 131.581 10.5166 131.581 12.0342L 131.581 12.7109L 125.139 12.7109C 125.162 13.6484 125.435 14.4072 125.956 14.9873C 126.483 15.5615 127.151 15.8486 127.96 15.8486C 128.534 15.8486 129.021 15.7314 129.419 15.4971C 129.817 15.2627 130.166 14.9521 130.465 14.5654L 131.458 15.3389C 130.661 16.5635 129.466 17.1758 127.872 17.1758ZM 127.67 8.65039C 127.014 8.65039 126.463 8.89062 126.018 9.37109C 125.572 9.8457 125.297 10.5137 125.191 11.375L 129.955 11.375L 129.955 11.252C 129.908 10.4258 129.686 9.78711 129.287 9.33594C 128.889 8.87891 128.35 8.65039 127.67 8.65039ZM 138.946 14.8467L 142.181 7.49023L 144.211 7.49023L 144.211 17L 142.585 17L 142.585 10.083L 139.509 17L 138.384 17L 135.246 9.93359L 135.246 17L 133.62 17L 133.62 7.49023L 135.729 7.49023L 138.946 14.8467ZM 150.776 17.1758C 149.487 17.1758 148.438 16.7539 147.63 15.9102C 146.821 15.0605 146.417 13.9268 146.417 12.5088L 146.417 12.21C 146.417 11.2666 146.596 10.4258 146.953 9.6875C 147.316 8.94336 147.82 8.36328 148.465 7.94727C 149.115 7.52539 149.818 7.31445 150.574 7.31445C 151.811 7.31445 152.771 7.72168 153.457 8.53613C 154.143 9.35059 154.485 10.5166 154.485 12.0342L 154.485 12.7109L 148.043 12.7109C 148.066 13.6484 148.339 14.4072 148.86 14.9873C 149.388 15.5615 150.056 15.8486 150.864 15.8486C 151.438 15.8486 151.925 15.7314 152.323 15.4971C 152.722 15.2627 153.07 14.9521 153.369 14.5654L 154.362 15.3389C 153.565 16.5635 152.37 17.1758 150.776 17.1758ZM 150.574 8.65039C 149.918 8.65039 149.367 8.89062 148.922 9.37109C 148.477 9.8457 148.201 10.5137 148.096 11.375L 152.859 11.375L 152.859 11.252C 152.813 10.4258 152.59 9.78711 152.191 9.33594C 151.793 8.87891 151.254 8.65039 150.574 8.65039ZM 160.189 15.8486C 160.77 15.8486 161.276 15.6729 161.71 15.3213C 162.144 14.9697 162.384 14.5303 162.431 14.0029L 163.969 14.0029C 163.939 14.5479 163.752 15.0664 163.406 15.5586C 163.061 16.0508 162.598 16.4434 162.018 16.7363C 161.443 17.0293 160.834 17.1758 160.189 17.1758C 158.895 17.1758 157.863 16.7451 157.096 15.8838C 156.334 15.0166 155.953 13.833 155.953 12.333L 155.953 12.0605C 155.953 11.1348 156.123 10.3115 156.463 9.59082C 156.803 8.87012 157.289 8.31055 157.922 7.91211C 158.561 7.51367 159.313 7.31445 160.181 7.31445C 161.247 7.31445 162.132 7.63379 162.835 8.27246C 163.544 8.91113 163.922 9.74023 163.969 10.7598L 162.431 10.7598C 162.384 10.1445 162.149 9.64063 161.728 9.24805C 161.312 8.84961 160.796 8.65039 160.181 8.65039C 159.354 8.65039 158.713 8.94922 158.256 9.54688C 157.805 10.1387 157.579 10.9971 157.579 12.1221L 157.579 12.4297C 157.579 13.5254 157.805 14.3691 158.256 14.9609C 158.707 15.5527 159.352 15.8486 160.189 15.8486ZM 173.065 7.49023L 173.065 17L 171.431 17L 171.431 13.2998L 168.979 13.2998L 166.737 17L 164.979 17L 167.37 13.0537C 166.761 12.8311 166.292 12.4883 165.964 12.0254C 165.642 11.5566 165.48 11.0117 165.48 10.3906C 165.48 9.52344 165.806 8.82617 166.456 8.29883C 167.106 7.76563 167.977 7.49609 169.066 7.49023L 173.065 7.49023ZM 167.115 10.4082C 167.115 10.8711 167.273 11.2461 167.59 11.5332C 167.906 11.8145 168.325 11.958 168.847 11.9639L 171.431 11.9639L 171.431 8.80859L 169.093 8.80859C 168.489 8.80859 168.009 8.95801 167.651 9.25684C 167.294 9.5498 167.115 9.93359 167.115 10.4082ZM 182.856 17L 181.222 17L 181.222 13.5547C 180.507 13.7422 179.774 13.8359 179.024 13.8359C 177.835 13.8359 176.927 13.5313 176.3 12.9219C 175.679 12.3125 175.362 11.4453 175.351 10.3203L 175.351 7.48145L 176.977 7.48145L 176.977 10.373C 177.006 11.791 177.688 12.5 179.024 12.5C 179.774 12.5 180.507 12.4062 181.222 12.2188L 181.222 7.49023L 182.856 7.49023L 182.856 17ZM 193.236 17L 191.61 17L 191.61 12.9395L 187.242 12.9395L 187.242 17L 185.607 17L 185.607 7.49023L 187.242 7.49023L 187.242 11.6123L 191.61 11.6123L 191.61 7.49023L 193.236 7.49023L 193.236 17ZM 195.425 12.1572C 195.425 11.2256 195.606 10.3877 195.97 9.64355C 196.339 8.89941 196.849 8.3252 197.499 7.9209C 198.155 7.5166 198.902 7.31445 199.74 7.31445C 201.035 7.31445 202.081 7.7627 202.878 8.65918C 203.681 9.55566 204.082 10.748 204.082 12.2363L 204.082 12.3506C 204.082 13.2764 203.903 14.1084 203.546 14.8467C 203.194 15.5791 202.687 16.1504 202.025 16.5605C 201.369 16.9707 200.613 17.1758 199.758 17.1758C 198.469 17.1758 197.423 16.7275 196.62 15.8311C 195.823 14.9346 195.425 13.748 195.425 12.2715L 195.425 12.1572ZM 197.06 12.3506C 197.06 13.4053 197.303 14.252 197.789 14.8906C 198.281 15.5293 198.937 15.8486 199.758 15.8486C 200.584 15.8486 201.24 15.5264 201.727 14.8818C 202.213 14.2314 202.456 13.3232 202.456 12.1572C 202.456 11.1143 202.207 10.2705 201.709 9.62598C 201.217 8.97559 200.561 8.65039 199.74 8.65039C 198.937 8.65039 198.29 8.96973 197.798 9.6084C 197.306 10.2471 197.06 11.1611 197.06 12.3506Z"/>
<path id="path6_fill" d="M 12.999 20.1377L 11.3203 20.1377L 11.3203 17L 2.13574 17L 2.13574 20.1465L 0.448242 20.1465L 0.439453 15.6201L 1.48535 15.6201C 2.03613 14.999 2.47266 14.167 2.79492 13.124C 3.12305 12.0752 3.32812 10.9268 3.41016 9.67871L 3.69141 4.20312L 11.3467 4.20312L 11.3467 15.6201L 13.0166 15.6201L 12.999 20.1377ZM 3.41016 15.6201L 9.65039 15.6201L 9.65039 5.5918L 5.31738 5.5918L 5.13281 9.35352C 5.05664 10.8242 4.86035 12.0781 4.54395 13.1152C 4.2334 14.1523 3.85547 14.9873 3.41016 15.6201ZM 14.335 12.1572C 14.335 11.2256 14.5166 10.3877 14.8799 9.64355C 15.249 8.89941 15.7588 8.3252 16.4092 7.9209C 17.0654 7.5166 17.8125 7.31445 18.6504 7.31445C 19.9453 7.31445 20.9912 7.7627 21.7881 8.65918C 22.5908 9.55566 22.9922 10.748 22.9922 12.2363L 22.9922 12.3506C 22.9922 13.2764 22.8135 14.1084 22.4561 14.8467C 22.1045 15.5791 21.5977 16.1504 20.9355 16.5605C 20.2793 16.9707 19.5234 17.1758 18.668 17.1758C 17.3789 17.1758 16.333 16.7275 15.5303 15.8311C 14.7334 14.9346 14.335 13.748 14.335 12.2715L 14.335 12.1572ZM 15.9697 12.3506C 15.9697 13.4053 16.2129 14.252 16.6992 14.8906C 17.1914 15.5293 17.8477 15.8486 18.668 15.8486C 19.4941 15.8486 20.1504 15.5264 20.6367 14.8818C 21.123 14.2314 21.3662 13.3232 21.3662 12.1572C 21.3662 11.1143 21.1172 10.2705 20.6191 9.62598C 20.127 8.97559 19.4707 8.65039 18.6504 8.65039C 17.8477 8.65039 17.2002 8.96973 16.708 9.6084C 16.2158 10.2471 15.9697 11.1611 15.9697 12.3506ZM 28.0283 10.9619L 30.1377 7.49023L 32.0361 7.49023L 28.9248 12.1924L 32.1328 17L 30.252 17L 28.0547 13.4404L 25.8574 17L 23.9678 17L 27.1758 12.1924L 24.0645 7.49023L 25.9453 7.49023L 28.0283 10.9619ZM 33.1611 12.1572C 33.1611 11.2256 33.3428 10.3877 33.7061 9.64355C 34.0752 8.89941 34.585 8.3252 35.2354 7.9209C 35.8916 7.5166 36.6387 7.31445 37.4766 7.31445C 38.7715 7.31445 39.8174 7.7627 40.6143 8.65918C 41.417 9.55566 41.8184 10.748 41.8184 12.2363L 41.8184 12.3506C 41.8184 13.2764 41.6396 14.1084 41.2822 14.8467C 40.9307 15.5791 40.4238 16.1504 39.7617 16.5605C 39.1055 16.9707 38.3496 17.1758 37.4941 17.1758C 36.2051 17.1758 35.1592 16.7275 34.3564 15.8311C 33.5596 14.9346 33.1611 13.748 33.1611 12.2715L 33.1611 12.1572ZM 34.7959 12.3506C 34.7959 13.4053 35.0391 14.252 35.5254 14.8906C 36.0176 15.5293 36.6738 15.8486 37.4941 15.8486C 38.3203 15.8486 38.9766 15.5264 39.4629 14.8818C 39.9492 14.2314 40.1924 13.3232 40.1924 12.1572C 40.1924 11.1143 39.9434 10.2705 39.4453 9.62598C 38.9531 8.97559 38.2969 8.65039 37.4766 8.65039C 36.6738 8.65039 36.0264 8.96973 35.5342 9.6084C 35.042 10.2471 34.7959 11.1611 34.7959 12.3506ZM 43.1455 15.6729L 43.708 14.9785C 44.3408 14.1582 44.7012 12.9277 44.7891 11.2871L 44.9385 7.49023L 51.0645 7.49023L 51.0645 15.6729L 52.2861 15.6729L 52.2861 19.7949L 50.6602 19.7949L 50.6602 17L 44.0244 17L 44.0244 19.7949L 42.3984 19.7949L 42.4072 15.6729L 43.1455 15.6729ZM 45.0703 15.6729L 49.4385 15.6729L 49.4385 8.99316L 46.5117 8.99316L 46.415 11.2607C 46.3154 13.1533 45.8672 14.624 45.0703 15.6729ZM 54.0352 16.1475C 54.0352 15.8662 54.1172 15.6318 54.2812 15.4443C 54.4512 15.2568 54.7031 15.1631 55.0371 15.1631C 55.3711 15.1631 55.623 15.2568 55.793 15.4443C 55.9688 15.6318 56.0566 15.8662 56.0566 16.1475C 56.0566 16.417 55.9688 16.6426 55.793 16.8242C 55.623 17.0059 55.3711 17.0967 55.0371 17.0967C 54.7031 17.0967 54.4512 17.0059 54.2812 16.8242C 54.1172 16.6426 54.0352 16.417 54.0352 16.1475ZM 54.0439 8.38672C 54.0439 8.10547 54.126 7.87109 54.29 7.68359C 54.46 7.49609 54.7119 7.40234 55.0459 7.40234C 55.3799 7.40234 55.6318 7.49609 55.8018 7.68359C 55.9775 7.87109 56.0654 8.10547 56.0654 8.38672C 56.0654 8.65625 55.9775 8.88184 55.8018 9.06348C 55.6318 9.24512 55.3799 9.33594 55.0459 9.33594C 54.7119 9.33594 54.46 9.24512 54.29 9.06348C 54.126 8.88184 54.0439 8.65625 54.0439 8.38672Z"/>
</defs>
</svg>
