<svg width="1068" height="1520" viewBox="0 0 1068 1520" version="1.1" xmlns="http://www.w3.org/2000/svg" xmlns:xlink="http://www.w3.org/1999/xlink">
<title>Group</title>
<desc>Created using Figma</desc>
<g id="Canvas" transform="matrix(4 0 0 4 -2896 -19120)">
<g id="Group">
<g id="Rectangle 9">
<use xlink:href="#path0_fill" transform="translate(724 4841.14)" fill="url(#paint0_linear)"/>
</g>
<g id="1TRH = 8$">
<use xlink:href="#path1_fill" transform="translate(724 4765.87)" fill="#181818"/>
<use xlink:href="#path2_fill" transform="translate(724 4765.87)" fill="#07DA91"/>
</g>
<g id="&#208;&#154;&#208;&#190;&#208;&#187;-&#208;&#178;&#208;&#190; &#209;&#130;&#208;&#190;&#208;&#186;&#208;&#181;&#208;&#189;&#208;&#190;&#208;&#178;: 200 000 &#208;&#148;&#208;&#176;&#209;&#130;&#209;&#139;: 1&#226;&#128;&#147;15 &#208;&#180;&#208;&#181;&#208;&#186;&#208;&#176;&#208;&#177;&#209;&#128;&#209;&#143;">
<use xlink:href="#path3_fill" transform="translate(744 4878.74)" fill="#181818"/>
<use xlink:href="#path4_fill" transform="translate(744 4878.74)" fill="#181818" fill-opacity="0.5"/>
</g>
<g id="&#208;&#148;&#208;&#190;&#209;&#133;&#208;&#190;&#208;&#180;: 12% &#208;&#181;&#208;&#182;&#208;&#181;&#208;&#188;&#208;&#181;&#209;&#129;&#209;&#143;&#209;&#135;&#208;&#189;&#208;&#190;">
<use xlink:href="#path5_fill" transform="translate(744 5121.24)" fill="#181818"/>
<use xlink:href="#path6_fill" transform="translate(744 5121.24)" fill="#181818" fill-opacity="0.5"/>
</g>
</g>
</g>
<defs>
<linearGradient id="paint0_linear" x1="0" y1="0" x2="1" y2="0" gradientUnits="userSpaceOnUse" gradientTransform="matrix(1.6349e-14 318.552 -267 1.95057e-14 267 -1.95057e-14)">
<stop offset="0" stop-color="#1DFCAF"/>
<stop offset="1" stop-color="#00D5D5"/>
</linearGradient>
<path id="path0_fill" d="M 0 5C 0 2.23858 2.23858 0 5 0L 262 0C 264.761 0 267 2.23858 267 5L 267 313.552C 267 316.314 264.761 318.552 262 318.552L 5 318.552C 2.23858 318.552 0 316.314 0 313.552L 0 5Z"/>
<path id="path1_fill" d="M 43.8828 33.7891L 38.3984 33.7891L 38.3984 49L 36.1602 49L 36.1602 33.7891L 30.6875 33.7891L 30.6875 31.9375L 43.8828 31.9375L 43.8828 33.7891ZM 52.6719 42.0977L 48.6641 42.0977L 48.6641 49L 46.4023 49L 46.4023 31.9375L 52.0508 31.9375C 53.9727 31.9375 55.4492 32.375 56.4805 33.25C 57.5195 34.125 58.0391 35.3984 58.0391 37.0703C 58.0391 38.1328 57.75 39.0586 57.1719 39.8477C 56.6016 40.6367 55.8047 41.2266 54.7812 41.6172L 58.7891 48.8594L 58.7891 49L 56.375 49L 52.6719 42.0977ZM 48.6641 40.2578L 52.1211 40.2578C 53.2383 40.2578 54.125 39.9687 54.7812 39.3906C 55.4453 38.8125 55.7773 38.0391 55.7773 37.0703C 55.7773 36.0156 55.4609 35.207 54.8281 34.6445C 54.2031 34.082 53.2969 33.7969 52.1094 33.7891L 48.6641 33.7891L 48.6641 40.2578ZM 74.3164 49L 72.0547 49L 72.0547 41.1133L 63.4531 41.1133L 63.4531 49L 61.2031 49L 61.2031 31.9375L 63.4531 31.9375L 63.4531 39.2734L 72.0547 39.2734L 72.0547 31.9375L 74.3164 31.9375L 74.3164 49ZM 93.8398 39.4609L 84.0664 39.4609L 84.0664 37.5742L 93.8398 37.5742L 93.8398 39.4609ZM 93.8398 44.3242L 84.0664 44.3242L 84.0664 42.4492L 93.8398 42.4492L 93.8398 44.3242ZM 141.422 44.6055C 141.422 43.8867 141.168 43.2812 140.66 42.7891C 140.16 42.2969 139.312 41.8516 138.117 41.4531C 136.453 40.9453 135.238 40.2852 134.473 39.4727C 133.715 38.6523 133.336 37.6133 133.336 36.3555C 133.336 35.0742 133.707 34.0234 134.449 33.2031C 135.199 32.3828 136.227 31.8945 137.531 31.7383L 137.531 29.1719L 139.277 29.1719L 139.277 31.75C 140.59 31.9297 141.609 32.4805 142.336 33.4023C 143.07 34.3242 143.438 35.5859 143.438 37.1875L 141.281 37.1875C 141.281 36.0859 141.02 35.2109 140.496 34.5625C 139.973 33.9141 139.266 33.5898 138.375 33.5898C 137.445 33.5898 136.734 33.832 136.242 34.3164C 135.75 34.793 135.504 35.4609 135.504 36.3203C 135.504 37.1172 135.762 37.7539 136.277 38.2305C 136.801 38.6992 137.656 39.1289 138.844 39.5195C 140.039 39.9023 140.969 40.3281 141.633 40.7969C 142.305 41.2578 142.797 41.7969 143.109 42.4141C 143.43 43.0312 143.59 43.7539 143.59 44.582C 143.59 45.9023 143.191 46.9648 142.395 47.7695C 141.605 48.5742 140.496 49.0508 139.066 49.1992L 139.066 51.4375L 137.332 51.4375L 137.332 49.1992C 135.879 49.0664 134.738 48.5508 133.91 47.6523C 133.09 46.7461 132.68 45.5195 132.68 43.9727L 134.848 43.9727C 134.848 45.0586 135.133 45.8945 135.703 46.4805C 136.273 47.0664 137.082 47.3594 138.129 47.3594C 139.152 47.3594 139.957 47.1133 140.543 46.6211C 141.129 46.1289 141.422 45.457 141.422 44.6055Z"/>
<path id="path2_fill" d="M 11.8328 49L 20.4828 49L 20.4828 15.65L 7.08281 15.65L 7.08281 23L 11.8328 23L 11.8328 49ZM 122.31 31.45C 123.61 31 124.91 30.2 125.71 29.4C 126.86 28.25 127.76 26.6 127.76 24.2C 127.76 21.35 126.56 19.35 125.31 18.1C 123.36 16.1 120.31 14.9 116.71 14.9C 113.06 14.9 109.86 16.05 107.81 17.95C 106.16 19.5 105.06 21.75 105.06 24.25C 105.06 26.8 106.26 28.5 107.31 29.55C 108.06 30.3 109.16 31 110.31 31.45C 108.86 31.9 107.16 32.85 106.11 33.9C 104.71 35.3 103.66 37.7 103.66 39.9C 103.66 42.05 104.61 44.45 106.41 46.25C 107.71 47.55 110.66 49.75 116.36 49.75C 122.31 49.75 125.31 47.35 126.46 46.2C 128.21 44.45 129.16 42.15 129.16 39.9C 129.16 38.25 128.66 36 126.61 34C 125.56 32.95 124.11 32 122.31 31.45ZM 116.51 20.7C 117.46 20.7 118.21 21.05 118.91 21.7C 119.66 22.4 120.06 23.45 120.06 24.35C 120.06 25.2 119.66 26.15 118.91 26.9C 118.11 27.7 117.21 27.9 116.46 27.9C 115.56 27.9 114.56 27.6 113.81 26.8C 113.21 26.15 112.76 25.25 112.76 24.4C 112.76 23.5 113.11 22.55 113.76 21.85C 114.36 21.2 115.26 20.7 116.51 20.7ZM 116.41 34.95C 117.26 34.95 118.31 35.25 119.21 36.1C 120.01 36.85 120.41 37.75 120.41 38.85C 120.41 40 120.01 40.9 119.21 41.7C 118.46 42.45 117.61 42.85 116.41 42.85C 115.26 42.85 114.26 42.35 113.56 41.65C 112.71 40.8 112.41 39.75 112.41 38.85C 112.41 37.9 112.81 36.9 113.61 36.1C 114.41 35.35 115.46 34.95 116.41 34.95Z"/>
<path id="path3_fill" d="M 148.72 17L 140.335 17L 140.335 15.8311L 144.765 10.9092C 145.421 10.165 145.872 9.56152 146.118 9.09863C 146.37 8.62988 146.496 8.14648 146.496 7.64844C 146.496 6.98047 146.294 6.43262 145.89 6.00488C 145.485 5.57715 144.946 5.36328 144.272 5.36328C 143.464 5.36328 142.834 5.59473 142.383 6.05762C 141.938 6.51465 141.715 7.15332 141.715 7.97363L 140.089 7.97363C 140.089 6.7959 140.467 5.84375 141.223 5.11719C 141.984 4.39063 143.001 4.02734 144.272 4.02734C 145.462 4.02734 146.402 4.34082 147.094 4.96777C 147.785 5.58887 148.131 6.41797 148.131 7.45508C 148.131 8.71484 147.328 10.2148 145.723 11.9551L 142.295 15.6729L 148.72 15.6729L 148.72 17ZM 158.467 11.542C 158.467 13.4463 158.142 14.8613 157.491 15.7871C 156.841 16.7129 155.824 17.1758 154.441 17.1758C 153.076 17.1758 152.065 16.7246 151.409 15.8223C 150.753 14.9141 150.413 13.5605 150.39 11.7617L 150.39 9.59082C 150.39 7.70996 150.715 6.3125 151.365 5.39844C 152.016 4.48438 153.035 4.02734 154.424 4.02734C 155.801 4.02734 156.814 4.46973 157.465 5.35449C 158.115 6.2334 158.449 7.59277 158.467 9.43262L 158.467 11.542ZM 156.841 9.31836C 156.841 7.94141 156.647 6.93945 156.261 6.3125C 155.874 5.67969 155.262 5.36328 154.424 5.36328C 153.592 5.36328 152.985 5.67676 152.604 6.30371C 152.224 6.93066 152.027 7.89453 152.016 9.19531L 152.016 11.7969C 152.016 13.1797 152.215 14.2021 152.613 14.8643C 153.018 15.5205 153.627 15.8486 154.441 15.8486C 155.244 15.8486 155.839 15.5381 156.226 14.917C 156.618 14.2959 156.823 13.3174 156.841 11.9814L 156.841 9.31836ZM 168.574 11.542C 168.574 13.4463 168.249 14.8613 167.599 15.7871C 166.948 16.7129 165.932 17.1758 164.549 17.1758C 163.184 17.1758 162.173 16.7246 161.517 15.8223C 160.86 14.9141 160.521 13.5605 160.497 11.7617L 160.497 9.59082C 160.497 7.70996 160.822 6.3125 161.473 5.39844C 162.123 4.48438 163.143 4.02734 164.531 4.02734C 165.908 4.02734 166.922 4.46973 167.572 5.35449C 168.223 6.2334 168.557 7.59277 168.574 9.43262L 168.574 11.542ZM 166.948 9.31836C 166.948 7.94141 166.755 6.93945 166.368 6.3125C 165.981 5.67969 165.369 5.36328 164.531 5.36328C 163.699 5.36328 163.093 5.67676 162.712 6.30371C 162.331 6.93066 162.135 7.89453 162.123 9.19531L 162.123 11.7969C 162.123 13.1797 162.322 14.2021 162.721 14.8643C 163.125 15.5205 163.734 15.8486 164.549 15.8486C 165.352 15.8486 165.946 15.5381 166.333 14.917C 166.726 14.2959 166.931 13.3174 166.948 11.9814L 166.948 9.31836ZM 183.146 11.542C 183.146 13.4463 182.821 14.8613 182.171 15.7871C 181.521 16.7129 180.504 17.1758 179.121 17.1758C 177.756 17.1758 176.745 16.7246 176.089 15.8223C 175.433 14.9141 175.093 13.5605 175.069 11.7617L 175.069 9.59082C 175.069 7.70996 175.395 6.3125 176.045 5.39844C 176.695 4.48438 177.715 4.02734 179.104 4.02734C 180.48 4.02734 181.494 4.46973 182.145 5.35449C 182.795 6.2334 183.129 7.59277 183.146 9.43262L 183.146 11.542ZM 181.521 9.31836C 181.521 7.94141 181.327 6.93945 180.94 6.3125C 180.554 5.67969 179.941 5.36328 179.104 5.36328C 178.271 5.36328 177.665 5.67676 177.284 6.30371C 176.903 6.93066 176.707 7.89453 176.695 9.19531L 176.695 11.7969C 176.695 13.1797 176.895 14.2021 177.293 14.8643C 177.697 15.5205 178.307 15.8486 179.121 15.8486C 179.924 15.8486 180.519 15.5381 180.905 14.917C 181.298 14.2959 181.503 13.3174 181.521 11.9814L 181.521 9.31836ZM 193.254 11.542C 193.254 13.4463 192.929 14.8613 192.278 15.7871C 191.628 16.7129 190.611 17.1758 189.229 17.1758C 187.863 17.1758 186.853 16.7246 186.196 15.8223C 185.54 14.9141 185.2 13.5605 185.177 11.7617L 185.177 9.59082C 185.177 7.70996 185.502 6.3125 186.152 5.39844C 186.803 4.48438 187.822 4.02734 189.211 4.02734C 190.588 4.02734 191.602 4.46973 192.252 5.35449C 192.902 6.2334 193.236 7.59277 193.254 9.43262L 193.254 11.542ZM 191.628 9.31836C 191.628 7.94141 191.435 6.93945 191.048 6.3125C 190.661 5.67969 190.049 5.36328 189.211 5.36328C 188.379 5.36328 187.772 5.67676 187.392 6.30371C 187.011 6.93066 186.814 7.89453 186.803 9.19531L 186.803 11.7969C 186.803 13.1797 187.002 14.2021 187.4 14.8643C 187.805 15.5205 188.414 15.8486 189.229 15.8486C 190.031 15.8486 190.626 15.5381 191.013 14.917C 191.405 14.2959 191.61 13.3174 191.628 11.9814L 191.628 9.31836ZM 203.361 11.542C 203.361 13.4463 203.036 14.8613 202.386 15.7871C 201.735 16.7129 200.719 17.1758 199.336 17.1758C 197.971 17.1758 196.96 16.7246 196.304 15.8223C 195.647 14.9141 195.308 13.5605 195.284 11.7617L 195.284 9.59082C 195.284 7.70996 195.609 6.3125 196.26 5.39844C 196.91 4.48438 197.93 4.02734 199.318 4.02734C 200.695 4.02734 201.709 4.46973 202.359 5.35449C 203.01 6.2334 203.344 7.59277 203.361 9.43262L 203.361 11.542ZM 201.735 9.31836C 201.735 7.94141 201.542 6.93945 201.155 6.3125C 200.769 5.67969 200.156 5.36328 199.318 5.36328C 198.486 5.36328 197.88 5.67676 197.499 6.30371C 197.118 6.93066 196.922 7.89453 196.91 9.19531L 196.91 11.7969C 196.91 13.1797 197.109 14.2021 197.508 14.8643C 197.912 15.5205 198.521 15.8486 199.336 15.8486C 200.139 15.8486 200.733 15.5381 201.12 14.917C 201.513 14.2959 201.718 13.3174 201.735 11.9814L 201.735 9.31836ZM 61.04 46L 59.4053 46L 59.4053 35.1631L 56.127 36.3672L 56.127 34.8906L 60.7852 33.1416L 61.04 33.1416L 61.04 46ZM 74.9707 40.2783L 66.1641 40.2783L 66.1641 38.9512L 74.9707 38.9512L 74.9707 40.2783ZM 82.96 46L 81.3252 46L 81.3252 35.1631L 78.0469 36.3672L 78.0469 34.8906L 82.7051 33.1416L 82.96 33.1416L 82.96 46ZM 88.4707 39.584L 89.1211 33.2031L 95.6777 33.2031L 95.6777 34.7061L 90.501 34.7061L 90.1143 38.1953C 90.7412 37.8262 91.4531 37.6416 92.25 37.6416C 93.416 37.6416 94.3418 38.0283 95.0273 38.8018C 95.7129 39.5693 96.0557 40.6094 96.0557 41.9219C 96.0557 43.2402 95.6982 44.2803 94.9834 45.042C 94.2744 45.7979 93.2812 46.1758 92.0039 46.1758C 90.873 46.1758 89.9502 45.8623 89.2354 45.2354C 88.5205 44.6084 88.1133 43.7412 88.0137 42.6338L 89.5518 42.6338C 89.6514 43.3662 89.9121 43.9199 90.334 44.2949C 90.7559 44.6641 91.3125 44.8486 92.0039 44.8486C 92.7598 44.8486 93.3516 44.5908 93.7793 44.0752C 94.2129 43.5596 94.4297 42.8477 94.4297 41.9395C 94.4297 41.084 94.1953 40.3984 93.7266 39.8828C 93.2637 39.3613 92.6455 39.1006 91.8721 39.1006C 91.1631 39.1006 90.6064 39.2559 90.2021 39.5664L 89.7715 39.918L 88.4707 39.584ZM 102.384 44.6729L 102.946 43.9785C 103.579 43.1582 103.939 41.9277 104.027 40.2871L 104.177 36.4902L 110.303 36.4902L 110.303 44.6729L 111.524 44.6729L 111.524 48.7949L 109.898 48.7949L 109.898 46L 103.263 46L 103.263 48.7949L 101.637 48.7949L 101.646 44.6729L 102.384 44.6729ZM 104.309 44.6729L 108.677 44.6729L 108.677 37.9932L 105.75 37.9932L 105.653 40.2607C 105.554 42.1533 105.105 43.624 104.309 44.6729ZM 117.272 46.1758C 115.983 46.1758 114.935 45.7539 114.126 44.9102C 113.317 44.0605 112.913 42.9268 112.913 41.5088L 112.913 41.21C 112.913 40.2666 113.092 39.4258 113.449 38.6875C 113.812 37.9434 114.316 37.3633 114.961 36.9473C 115.611 36.5254 116.314 36.3145 117.07 36.3145C 118.307 36.3145 119.268 36.7217 119.953 37.5361C 120.639 38.3506 120.981 39.5166 120.981 41.0342L 120.981 41.7109L 114.539 41.7109C 114.562 42.6484 114.835 43.4072 115.356 43.9873C 115.884 44.5615 116.552 44.8486 117.36 44.8486C 117.935 44.8486 118.421 44.7314 118.819 44.4971C 119.218 44.2627 119.566 43.9521 119.865 43.5654L 120.858 44.3389C 120.062 45.5635 118.866 46.1758 117.272 46.1758ZM 117.07 37.6504C 116.414 37.6504 115.863 37.8906 115.418 38.3711C 114.973 38.8457 114.697 39.5137 114.592 40.375L 119.355 40.375L 119.355 40.252C 119.309 39.4258 119.086 38.7871 118.688 38.3359C 118.289 37.8789 117.75 37.6504 117.07 37.6504ZM 125.833 41.9482L 124.646 41.9482L 124.646 46L 123.012 46L 123.012 36.4902L 124.646 36.4902L 124.646 40.5156L 125.71 40.5156L 128.909 36.4902L 130.878 36.4902L 127.116 41.0605L 131.194 46L 129.129 46L 125.833 41.9482ZM 138.463 46C 138.369 45.8125 138.293 45.4785 138.234 44.998C 137.479 45.7832 136.576 46.1758 135.527 46.1758C 134.59 46.1758 133.819 45.9121 133.216 45.3848C 132.618 44.8516 132.319 44.1777 132.319 43.3633C 132.319 42.373 132.694 41.6055 133.444 41.0605C 134.2 40.5098 135.261 40.2344 136.626 40.2344L 138.208 40.2344L 138.208 39.4873C 138.208 38.9189 138.038 38.4678 137.698 38.1338C 137.358 37.7939 136.857 37.624 136.195 37.624C 135.615 37.624 135.129 37.7705 134.736 38.0635C 134.344 38.3564 134.147 38.7109 134.147 39.127L 132.513 39.127C 132.513 38.6523 132.68 38.1953 133.014 37.7559C 133.354 37.3105 133.811 36.959 134.385 36.7012C 134.965 36.4434 135.601 36.3145 136.292 36.3145C 137.388 36.3145 138.246 36.5898 138.867 37.1406C 139.488 37.6855 139.811 38.4385 139.834 39.3994L 139.834 43.7764C 139.834 44.6494 139.945 45.3438 140.168 45.8594L 140.168 46L 138.463 46ZM 135.765 44.7607C 136.274 44.7607 136.758 44.6289 137.215 44.3652C 137.672 44.1016 138.003 43.7588 138.208 43.3369L 138.208 41.3857L 136.934 41.3857C 134.941 41.3857 133.945 41.9688 133.945 43.1348C 133.945 43.6445 134.115 44.043 134.455 44.3301C 134.795 44.6172 135.231 44.7607 135.765 44.7607ZM 146.558 37.0352C 147.753 37.0352 148.708 37.4365 149.423 38.2393C 150.144 39.0361 150.504 40.0879 150.504 41.3945L 150.504 41.5439C 150.504 42.4404 150.331 43.2432 149.985 43.9521C 149.64 44.6553 149.142 45.2031 148.491 45.5957C 147.847 45.9824 147.103 46.1758 146.259 46.1758C 144.981 46.1758 143.953 45.751 143.174 44.9014C 142.395 44.0459 142.005 42.9004 142.005 41.4648L 142.005 40.6738C 142.005 38.6758 142.374 37.0879 143.112 35.9102C 143.856 34.7324 144.952 34.0146 146.399 33.7568C 147.22 33.6104 147.773 33.4316 148.061 33.2207C 148.348 33.0098 148.491 32.7197 148.491 32.3506L 149.827 32.3506C 149.827 33.083 149.66 33.6543 149.326 34.0645C 148.998 34.4746 148.471 34.7646 147.744 34.9346L 146.531 35.207C 145.564 35.4355 144.838 35.8223 144.352 36.3672C 143.871 36.9063 143.558 37.627 143.411 38.5293C 144.272 37.5332 145.321 37.0352 146.558 37.0352ZM 146.241 38.3711C 145.444 38.3711 144.812 38.6406 144.343 39.1797C 143.874 39.7129 143.64 40.4541 143.64 41.4033L 143.64 41.5439C 143.64 42.5635 143.874 43.3721 144.343 43.9697C 144.817 44.5615 145.456 44.8574 146.259 44.8574C 147.067 44.8574 147.706 44.5586 148.175 43.9609C 148.644 43.3633 148.878 42.4902 148.878 41.3418C 148.878 40.4453 148.641 39.7275 148.166 39.1885C 147.697 38.6436 147.056 38.3711 146.241 38.3711ZM 160.207 41.3506C 160.207 42.7979 159.876 43.9639 159.214 44.8486C 158.552 45.7334 157.655 46.1758 156.524 46.1758C 155.37 46.1758 154.462 45.8096 153.8 45.0771L 153.8 49.6562L 152.174 49.6562L 152.174 36.4902L 153.659 36.4902L 153.738 37.5449C 154.4 36.7246 155.32 36.3145 156.498 36.3145C 157.641 36.3145 158.543 36.7451 159.205 37.6064C 159.873 38.4678 160.207 39.666 160.207 41.2012L 160.207 41.3506ZM 158.581 41.166C 158.581 40.0938 158.353 39.2471 157.896 38.626C 157.438 38.0049 156.812 37.6943 156.015 37.6943C 155.03 37.6943 154.292 38.1309 153.8 39.0039L 153.8 43.5479C 154.286 44.415 155.03 44.8486 156.032 44.8486C 156.812 44.8486 157.43 44.541 157.887 43.9258C 158.35 43.3047 158.581 42.3848 158.581 41.166ZM 169.55 36.4902L 169.55 46L 167.915 46L 167.915 42.2998L 165.463 42.2998L 163.222 46L 161.464 46L 163.854 42.0537C 163.245 41.8311 162.776 41.4883 162.448 41.0254C 162.126 40.5566 161.965 40.0117 161.965 39.3906C 161.965 38.5234 162.29 37.8262 162.94 37.2988C 163.591 36.7656 164.461 36.4961 165.551 36.4902L 169.55 36.4902ZM 163.6 39.4082C 163.6 39.8711 163.758 40.2461 164.074 40.5332C 164.391 40.8145 164.81 40.958 165.331 40.9639L 167.915 40.9639L 167.915 37.8086L 165.577 37.8086C 164.974 37.8086 164.493 37.958 164.136 38.2568C 163.778 38.5498 163.6 38.9336 163.6 39.4082Z"/>
<path id="path4_fill" d="M 4.80762 11.252L 3.25195 11.252L 3.25195 17L 1.56445 17L 1.56445 4.20312L 3.25195 4.20312L 3.25195 9.8457L 4.57031 9.8457L 9.04395 4.20312L 11.1445 4.20312L 6.25781 10.4082L 11.5049 17L 9.43945 17L 4.80762 11.252ZM 12.1201 12.1572C 12.1201 11.2256 12.3018 10.3877 12.665 9.64355C 13.0342 8.89941 13.5439 8.3252 14.1943 7.9209C 14.8506 7.5166 15.5977 7.31445 16.4355 7.31445C 17.7305 7.31445 18.7764 7.7627 19.5732 8.65918C 20.376 9.55566 20.7773 10.748 20.7773 12.2363L 20.7773 12.3506C 20.7773 13.2764 20.5986 14.1084 20.2412 14.8467C 19.8896 15.5791 19.3828 16.1504 18.7207 16.5605C 18.0645 16.9707 17.3086 17.1758 16.4531 17.1758C 15.1641 17.1758 14.1182 16.7275 13.3154 15.8311C 12.5186 14.9346 12.1201 13.748 12.1201 12.2715L 12.1201 12.1572ZM 13.7549 12.3506C 13.7549 13.4053 13.998 14.252 14.4844 14.8906C 14.9766 15.5293 15.6328 15.8486 16.4531 15.8486C 17.2793 15.8486 17.9355 15.5264 18.4219 14.8818C 18.9082 14.2314 19.1514 13.3232 19.1514 12.1572C 19.1514 11.1143 18.9023 10.2705 18.4043 9.62598C 17.9121 8.97559 17.2559 8.65039 16.4355 8.65039C 15.6328 8.65039 14.9854 8.96973 14.4932 9.6084C 14.001 10.2471 13.7549 11.1611 13.7549 12.3506ZM 30.4717 7.49023L 30.4717 17L 28.8369 17L 28.8369 8.83496L 25.6025 8.83496L 25.4092 12.3945C 25.3037 14.0293 25.0283 15.1982 24.583 15.9014C 24.1436 16.6045 23.4434 16.9707 22.4824 17L 21.832 17L 21.832 15.5674L 22.2979 15.5322C 22.8252 15.4736 23.2031 15.1689 23.4316 14.6182C 23.6602 14.0674 23.8066 13.0479 23.8711 11.5596L 24.0469 7.49023L 30.4717 7.49023ZM 36.4658 12.2275L 32.1768 12.2275L 32.1768 10.9004L 36.4658 10.9004L 36.4658 12.2275ZM 38.2061 17L 38.2061 7.49023L 41.915 7.49023C 43.1807 7.49023 44.1504 7.71289 44.8242 8.1582C 45.5039 8.59766 45.8438 9.24512 45.8438 10.1006C 45.8438 10.54 45.7119 10.9385 45.4482 11.2959C 45.1846 11.6475 44.7949 11.917 44.2793 12.1045C 44.8535 12.2393 45.3135 12.5029 45.6592 12.8955C 46.0107 13.2881 46.1865 13.7568 46.1865 14.3018C 46.1865 15.1748 45.8643 15.8428 45.2197 16.3057C 44.5811 16.7686 43.6758 17 42.5039 17L 38.2061 17ZM 39.832 12.8252L 39.832 15.6904L 42.5215 15.6904C 43.2012 15.6904 43.708 15.5645 44.042 15.3125C 44.3818 15.0605 44.5518 14.7061 44.5518 14.249C 44.5518 13.2998 43.8545 12.8252 42.46 12.8252L 39.832 12.8252ZM 39.832 11.5244L 41.9326 11.5244C 43.4561 11.5244 44.2178 11.0791 44.2178 10.1885C 44.2178 9.29785 43.4971 8.83789 42.0557 8.80859L 39.832 8.80859L 39.832 11.5244ZM 47.9092 12.1572C 47.9092 11.2256 48.0908 10.3877 48.4541 9.64355C 48.8232 8.89941 49.333 8.3252 49.9834 7.9209C 50.6396 7.5166 51.3867 7.31445 52.2246 7.31445C 53.5195 7.31445 54.5654 7.7627 55.3623 8.65918C 56.165 9.55566 56.5664 10.748 56.5664 12.2363L 56.5664 12.3506C 56.5664 13.2764 56.3877 14.1084 56.0303 14.8467C 55.6787 15.5791 55.1719 16.1504 54.5098 16.5605C 53.8535 16.9707 53.0977 17.1758 52.2422 17.1758C 50.9531 17.1758 49.9072 16.7275 49.1045 15.8311C 48.3076 14.9346 47.9092 13.748 47.9092 12.2715L 47.9092 12.1572ZM 49.5439 12.3506C 49.5439 13.4053 49.7871 14.252 50.2734 14.8906C 50.7656 15.5293 51.4219 15.8486 52.2422 15.8486C 53.0684 15.8486 53.7246 15.5264 54.2109 14.8818C 54.6973 14.2314 54.9404 13.3232 54.9404 12.1572C 54.9404 11.1143 54.6914 10.2705 54.1934 9.62598C 53.7012 8.97559 53.0449 8.65039 52.2246 8.65039C 51.4219 8.65039 50.7744 8.96973 50.2822 9.6084C 49.79 10.2471 49.5439 11.1611 49.5439 12.3506ZM 70.1367 8.80859L 66.9463 8.80859L 66.9463 17L 65.3203 17L 65.3203 8.80859L 62.1914 8.80859L 62.1914 7.49023L 70.1367 7.49023L 70.1367 8.80859ZM 70.9189 12.1572C 70.9189 11.2256 71.1006 10.3877 71.4639 9.64355C 71.833 8.89941 72.3428 8.3252 72.9932 7.9209C 73.6494 7.5166 74.3965 7.31445 75.2344 7.31445C 76.5293 7.31445 77.5752 7.7627 78.3721 8.65918C 79.1748 9.55566 79.5762 10.748 79.5762 12.2363L 79.5762 12.3506C 79.5762 13.2764 79.3975 14.1084 79.04 14.8467C 78.6885 15.5791 78.1816 16.1504 77.5195 16.5605C 76.8633 16.9707 76.1074 17.1758 75.252 17.1758C 73.9629 17.1758 72.917 16.7275 72.1143 15.8311C 71.3174 14.9346 70.9189 13.748 70.9189 12.2715L 70.9189 12.1572ZM 72.5537 12.3506C 72.5537 13.4053 72.7969 14.252 73.2832 14.8906C 73.7754 15.5293 74.4316 15.8486 75.252 15.8486C 76.0781 15.8486 76.7344 15.5264 77.2207 14.8818C 77.707 14.2314 77.9502 13.3232 77.9502 12.1572C 77.9502 11.1143 77.7012 10.2705 77.2031 9.62598C 76.7109 8.97559 76.0547 8.65039 75.2344 8.65039C 74.4316 8.65039 73.7842 8.96973 73.292 9.6084C 72.7998 10.2471 72.5537 11.1611 72.5537 12.3506ZM 84.5771 12.9482L 83.3906 12.9482L 83.3906 17L 81.7559 17L 81.7559 7.49023L 83.3906 7.49023L 83.3906 11.5156L 84.4541 11.5156L 87.6533 7.49023L 89.6221 7.49023L 85.8604 12.0605L 89.9385 17L 87.873 17L 84.5771 12.9482ZM 95.1416 17.1758C 93.8525 17.1758 92.8037 16.7539 91.9951 15.9102C 91.1865 15.0605 90.7822 13.9268 90.7822 12.5088L 90.7822 12.21C 90.7822 11.2666 90.9609 10.4258 91.3184 9.6875C 91.6816 8.94336 92.1855 8.36328 92.8301 7.94727C 93.4805 7.52539 94.1836 7.31445 94.9395 7.31445C 96.1758 7.31445 97.1367 7.72168 97.8223 8.53613C 98.5078 9.35059 98.8506 10.5166 98.8506 12.0342L 98.8506 12.7109L 92.4082 12.7109C 92.4316 13.6484 92.7041 14.4072 93.2256 14.9873C 93.7529 15.5615 94.4209 15.8486 95.2295 15.8486C 95.8037 15.8486 96.29 15.7314 96.6885 15.4971C 97.0869 15.2627 97.4355 14.9521 97.7344 14.5654L 98.7275 15.3389C 97.9307 16.5635 96.7354 17.1758 95.1416 17.1758ZM 94.9395 8.65039C 94.2832 8.65039 93.7324 8.89062 93.2871 9.37109C 92.8418 9.8457 92.5664 10.5137 92.4609 11.375L 97.2246 11.375L 97.2246 11.252C 97.1777 10.4258 96.9551 9.78711 96.5566 9.33594C 96.1582 8.87891 95.6191 8.65039 94.9395 8.65039ZM 108.51 17L 106.884 17L 106.884 12.9395L 102.516 12.9395L 102.516 17L 100.881 17L 100.881 7.49023L 102.516 7.49023L 102.516 11.6123L 106.884 11.6123L 106.884 7.49023L 108.51 7.49023L 108.51 17ZM 110.698 12.1572C 110.698 11.2256 110.88 10.3877 111.243 9.64355C 111.612 8.89941 112.122 8.3252 112.772 7.9209C 113.429 7.5166 114.176 7.31445 115.014 7.31445C 116.309 7.31445 117.354 7.7627 118.151 8.65918C 118.954 9.55566 119.355 10.748 119.355 12.2363L 119.355 12.3506C 119.355 13.2764 119.177 14.1084 118.819 14.8467C 118.468 15.5791 117.961 16.1504 117.299 16.5605C 116.643 16.9707 115.887 17.1758 115.031 17.1758C 113.742 17.1758 112.696 16.7275 111.894 15.8311C 111.097 14.9346 110.698 13.748 110.698 12.2715L 110.698 12.1572ZM 112.333 12.3506C 112.333 13.4053 112.576 14.252 113.062 14.8906C 113.555 15.5293 114.211 15.8486 115.031 15.8486C 115.857 15.8486 116.514 15.5264 117 14.8818C 117.486 14.2314 117.729 13.3232 117.729 12.1572C 117.729 11.1143 117.48 10.2705 116.982 9.62598C 116.49 8.97559 115.834 8.65039 115.014 8.65039C 114.211 8.65039 113.563 8.96973 113.071 9.6084C 112.579 10.2471 112.333 11.1611 112.333 12.3506ZM 121.544 17L 121.544 7.49023L 125.253 7.49023C 126.519 7.49023 127.488 7.71289 128.162 8.1582C 128.842 8.59766 129.182 9.24512 129.182 10.1006C 129.182 10.54 129.05 10.9385 128.786 11.2959C 128.522 11.6475 128.133 11.917 127.617 12.1045C 128.191 12.2393 128.651 12.5029 128.997 12.8955C 129.349 13.2881 129.524 13.7568 129.524 14.3018C 129.524 15.1748 129.202 15.8428 128.558 16.3057C 127.919 16.7686 127.014 17 125.842 17L 121.544 17ZM 123.17 12.8252L 123.17 15.6904L 125.859 15.6904C 126.539 15.6904 127.046 15.5645 127.38 15.3125C 127.72 15.0605 127.89 14.7061 127.89 14.249C 127.89 13.2998 127.192 12.8252 125.798 12.8252L 123.17 12.8252ZM 123.17 11.5244L 125.271 11.5244C 126.794 11.5244 127.556 11.0791 127.556 10.1885C 127.556 9.29785 126.835 8.83789 125.394 8.80859L 123.17 8.80859L 123.17 11.5244ZM 131.625 16.1475C 131.625 15.8662 131.707 15.6318 131.871 15.4443C 132.041 15.2568 132.293 15.1631 132.627 15.1631C 132.961 15.1631 133.213 15.2568 133.383 15.4443C 133.559 15.6318 133.646 15.8662 133.646 16.1475C 133.646 16.417 133.559 16.6426 133.383 16.8242C 133.213 17.0059 132.961 17.0967 132.627 17.0967C 132.293 17.0967 132.041 17.0059 131.871 16.8242C 131.707 16.6426 131.625 16.417 131.625 16.1475ZM 131.634 8.38672C 131.634 8.10547 131.716 7.87109 131.88 7.68359C 132.05 7.49609 132.302 7.40234 132.636 7.40234C 132.97 7.40234 133.222 7.49609 133.392 7.68359C 133.567 7.87109 133.655 8.10547 133.655 8.38672C 133.655 8.65625 133.567 8.88184 133.392 9.06348C 133.222 9.24512 132.97 9.33594 132.636 9.33594C 132.302 9.33594 132.05 9.24512 131.88 9.06348C 131.716 8.88184 131.634 8.65625 131.634 8.38672ZM 12.999 49.1377L 11.3203 49.1377L 11.3203 46L 2.13574 46L 2.13574 49.1465L 0.448242 49.1465L 0.439453 44.6201L 1.48535 44.6201C 2.03613 43.999 2.47266 43.167 2.79492 42.124C 3.12305 41.0752 3.32812 39.9268 3.41016 38.6787L 3.69141 33.2031L 11.3467 33.2031L 11.3467 44.6201L 13.0166 44.6201L 12.999 49.1377ZM 3.41016 44.6201L 9.65039 44.6201L 9.65039 34.5918L 5.31738 34.5918L 5.13281 38.3535C 5.05664 39.8242 4.86035 41.0781 4.54395 42.1152C 4.2334 43.1523 3.85547 43.9873 3.41016 44.6201ZM 20.6367 46C 20.543 45.8125 20.4668 45.4785 20.4082 44.998C 19.6523 45.7832 18.75 46.1758 17.7012 46.1758C 16.7637 46.1758 15.9932 45.9121 15.3896 45.3848C 14.792 44.8516 14.4932 44.1777 14.4932 43.3633C 14.4932 42.373 14.8682 41.6055 15.6182 41.0605C 16.374 40.5098 17.4346 40.2344 18.7998 40.2344L 20.3818 40.2344L 20.3818 39.4873C 20.3818 38.9189 20.2119 38.4678 19.8721 38.1338C 19.5322 37.7939 19.0312 37.624 18.3691 37.624C 17.7891 37.624 17.3027 37.7705 16.9102 38.0635C 16.5176 38.3564 16.3213 38.7109 16.3213 39.127L 14.6865 39.127C 14.6865 38.6523 14.8535 38.1953 15.1875 37.7559C 15.5273 37.3105 15.9844 36.959 16.5586 36.7012C 17.1387 36.4434 17.7744 36.3145 18.4658 36.3145C 19.5615 36.3145 20.4199 36.5898 21.041 37.1406C 21.6621 37.6855 21.9844 38.4385 22.0078 39.3994L 22.0078 43.7764C 22.0078 44.6494 22.1191 45.3438 22.3418 45.8594L 22.3418 46L 20.6367 46ZM 17.9385 44.7607C 18.4482 44.7607 18.9316 44.6289 19.3887 44.3652C 19.8457 44.1016 20.1768 43.7588 20.3818 43.3369L 20.3818 41.3857L 19.1074 41.3857C 17.1152 41.3857 16.1191 41.9688 16.1191 43.1348C 16.1191 43.6445 16.2891 44.043 16.6289 44.3301C 16.9687 44.6172 17.4053 44.7607 17.9385 44.7607ZM 31.4824 37.8086L 28.292 37.8086L 28.292 46L 26.666 46L 26.666 37.8086L 23.5371 37.8086L 23.5371 36.4902L 31.4824 36.4902L 31.4824 37.8086ZM 34.8398 39.7686L 37.3096 39.7686C 38.3877 39.7803 39.2402 40.0615 39.8672 40.6123C 40.4941 41.1631 40.8076 41.9102 40.8076 42.8535C 40.8076 43.8027 40.4854 44.5645 39.8408 45.1387C 39.1963 45.7129 38.3291 46 37.2393 46L 33.2139 46L 33.2139 36.4902L 34.8398 36.4902L 34.8398 39.7686ZM 44.2002 46L 42.5654 46L 42.5654 36.4902L 44.2002 36.4902L 44.2002 46ZM 34.8398 41.0957L 34.8398 44.6729L 37.2568 44.6729C 37.8662 44.6729 38.3379 44.5176 38.6719 44.207C 39.0059 43.8906 39.1729 43.46 39.1729 42.915C 39.1729 42.3877 39.0088 41.957 38.6807 41.623C 38.3584 41.2832 37.9043 41.1074 37.3184 41.0957L 34.8398 41.0957ZM 46.9863 45.1475C 46.9863 44.8662 47.0684 44.6318 47.2324 44.4443C 47.4023 44.2568 47.6543 44.1631 47.9883 44.1631C 48.3223 44.1631 48.5742 44.2568 48.7441 44.4443C 48.9199 44.6318 49.0078 44.8662 49.0078 45.1475C 49.0078 45.417 48.9199 45.6426 48.7441 45.8242C 48.5742 46.0059 48.3223 46.0967 47.9883 46.0967C 47.6543 46.0967 47.4023 46.0059 47.2324 45.8242C 47.0684 45.6426 46.9863 45.417 46.9863 45.1475ZM 46.9951 37.3867C 46.9951 37.1055 47.0771 36.8711 47.2412 36.6836C 47.4111 36.4961 47.6631 36.4023 47.9971 36.4023C 48.3311 36.4023 48.583 36.4961 48.7529 36.6836C 48.9287 36.8711 49.0166 37.1055 49.0166 37.3867C 49.0166 37.6563 48.9287 37.8818 48.7529 38.0635C 48.583 38.2451 48.3311 38.3359 47.9971 38.3359C 47.6631 38.3359 47.4111 38.2451 47.2412 38.0635C 47.0771 37.8818 46.9951 37.6563 46.9951 37.3867Z"/>
<path id="path5_fill" d="M 68.0889 17L 66.4541 17L 66.4541 6.16309L 63.1758 7.36719L 63.1758 5.89062L 67.834 4.1416L 68.0889 4.1416L 68.0889 17ZM 81.2373 17L 72.8525 17L 72.8525 15.8311L 77.2822 10.9092C 77.9385 10.165 78.3896 9.56152 78.6357 9.09863C 78.8877 8.62988 79.0137 8.14648 79.0137 7.64844C 79.0137 6.98047 78.8115 6.43262 78.4072 6.00488C 78.0029 5.57715 77.4639 5.36328 76.79 5.36328C 75.9814 5.36328 75.3516 5.59473 74.9004 6.05762C 74.4551 6.51465 74.2324 7.15332 74.2324 7.97363L 72.6064 7.97363C 72.6064 6.7959 72.9844 5.84375 73.7402 5.11719C 74.502 4.39063 75.5186 4.02734 76.79 4.02734C 77.9795 4.02734 78.9199 4.34082 79.6113 4.96777C 80.3027 5.58887 80.6484 6.41797 80.6484 7.45508C 80.6484 8.71484 79.8457 10.2148 78.2402 11.9551L 74.8125 15.6729L 81.2373 15.6729L 81.2373 17ZM 82.8193 6.66406C 82.8193 5.89648 83.0625 5.26367 83.5488 4.76562C 84.041 4.26758 84.6709 4.01855 85.4385 4.01855C 86.2178 4.01855 86.8477 4.27051 87.3281 4.77441C 87.8145 5.27246 88.0576 5.91992 88.0576 6.7168L 88.0576 7.34082C 88.0576 8.11426 87.8115 8.74707 87.3193 9.23926C 86.833 9.72559 86.2119 9.96875 85.4561 9.96875C 84.6943 9.96875 84.0645 9.72559 83.5664 9.23926C 83.0684 8.74707 82.8193 8.09375 82.8193 7.2793L 82.8193 6.66406ZM 84.0322 7.34082C 84.0322 7.79785 84.1611 8.17578 84.4189 8.47461C 84.6768 8.76758 85.0225 8.91406 85.4561 8.91406C 85.8721 8.91406 86.2061 8.77051 86.458 8.4834C 86.7158 8.19629 86.8447 7.80371 86.8447 7.30566L 86.8447 6.66406C 86.8447 6.20703 86.7188 5.8291 86.4668 5.53027C 86.2148 5.23145 85.8721 5.08203 85.4385 5.08203C 85.0049 5.08203 84.6621 5.23145 84.4102 5.53027C 84.1582 5.8291 84.0322 6.21875 84.0322 6.69922L 84.0322 7.34082ZM 89.0508 13.8623C 89.0508 13.0947 89.2939 12.4648 89.7803 11.9727C 90.2725 11.4746 90.9023 11.2256 91.6699 11.2256C 92.4375 11.2256 93.0674 11.4717 93.5596 11.9639C 94.0518 12.4561 94.2979 13.1094 94.2979 13.9238L 94.2979 14.5479C 94.2979 15.3154 94.0518 15.9482 93.5596 16.4463C 93.0732 16.9385 92.4492 17.1846 91.6875 17.1846C 90.9258 17.1846 90.2959 16.9414 89.7979 16.4551C 89.2998 15.9629 89.0508 15.3096 89.0508 14.4951L 89.0508 13.8623ZM 90.2637 14.5479C 90.2637 15.0107 90.3926 15.3916 90.6504 15.6904C 90.9082 15.9834 91.2539 16.1299 91.6875 16.1299C 92.1094 16.1299 92.4463 15.9863 92.6982 15.6992C 92.9502 15.4063 93.0762 15.0107 93.0762 14.5127L 93.0762 13.8623C 93.0762 13.3994 92.9473 13.0215 92.6895 12.7285C 92.4375 12.4355 92.0977 12.2891 91.6699 12.2891C 91.2539 12.2891 90.9141 12.4355 90.6504 12.7285C 90.3926 13.0156 90.2637 13.4053 90.2637 13.8975L 90.2637 14.5479ZM 85.8252 16.0332L 84.9023 15.4531L 91.1514 5.45117L 92.0742 6.03125L 85.8252 16.0332ZM 104.722 17.1758C 103.433 17.1758 102.384 16.7539 101.575 15.9102C 100.767 15.0605 100.362 13.9268 100.362 12.5088L 100.362 12.21C 100.362 11.2666 100.541 10.4258 100.898 9.6875C 101.262 8.94336 101.766 8.36328 102.41 7.94727C 103.061 7.52539 103.764 7.31445 104.52 7.31445C 105.756 7.31445 106.717 7.72168 107.402 8.53613C 108.088 9.35059 108.431 10.5166 108.431 12.0342L 108.431 12.7109L 101.988 12.7109C 102.012 13.6484 102.284 14.4072 102.806 14.9873C 103.333 15.5615 104.001 15.8486 104.81 15.8486C 105.384 15.8486 105.87 15.7314 106.269 15.4971C 106.667 15.2627 107.016 14.9521 107.314 14.5654L 108.308 15.3389C 107.511 16.5635 106.315 17.1758 104.722 17.1758ZM 104.52 8.65039C 103.863 8.65039 103.312 8.89062 102.867 9.37109C 102.422 9.8457 102.146 10.5137 102.041 11.375L 106.805 11.375L 106.805 11.252C 106.758 10.4258 106.535 9.78711 106.137 9.33594C 105.738 8.87891 105.199 8.65039 104.52 8.65039ZM 117.905 12.8691L 116.763 12.8691L 116.763 17L 115.137 17L 115.137 12.8691L 113.994 12.8691L 111.331 17L 109.274 17L 112.676 12.0781L 109.6 7.49023L 111.568 7.49023L 114.021 11.4277L 115.137 11.4277L 115.137 7.49023L 116.763 7.49023L 116.763 11.4277L 117.87 11.4277L 120.34 7.49023L 122.309 7.49023L 119.224 12.0869L 122.625 17L 120.568 17L 117.905 12.8691ZM 127.872 17.1758C 126.583 17.1758 125.534 16.7539 124.726 15.9102C 123.917 15.0605 123.513 13.9268 123.513 12.5088L 123.513 12.21C 123.513 11.2666 123.691 10.4258 124.049 9.6875C 124.412 8.94336 124.916 8.36328 125.561 7.94727C 126.211 7.52539 126.914 7.31445 127.67 7.31445C 128.906 7.31445 129.867 7.72168 130.553 8.53613C 131.238 9.35059 131.581 10.5166 131.581 12.0342L 131.581 12.7109L 125.139 12.7109C 125.162 13.6484 125.435 14.4072 125.956 14.9873C 126.483 15.5615 127.151 15.8486 127.96 15.8486C 128.534 15.8486 129.021 15.7314 129.419 15.4971C 129.817 15.2627 130.166 14.9521 130.465 14.5654L 131.458 15.3389C 130.661 16.5635 129.466 17.1758 127.872 17.1758ZM 127.67 8.65039C 127.014 8.65039 126.463 8.89062 126.018 9.37109C 125.572 9.8457 125.297 10.5137 125.191 11.375L 129.955 11.375L 129.955 11.252C 129.908 10.4258 129.686 9.78711 129.287 9.33594C 128.889 8.87891 128.35 8.65039 127.67 8.65039ZM 138.946 14.8467L 142.181 7.49023L 144.211 7.49023L 144.211 17L 142.585 17L 142.585 10.083L 139.509 17L 138.384 17L 135.246 9.93359L 135.246 17L 133.62 17L 133.62 7.49023L 135.729 7.49023L 138.946 14.8467ZM 150.776 17.1758C 149.487 17.1758 148.438 16.7539 147.63 15.9102C 146.821 15.0605 146.417 13.9268 146.417 12.5088L 146.417 12.21C 146.417 11.2666 146.596 10.4258 146.953 9.6875C 147.316 8.94336 147.82 8.36328 148.465 7.94727C 149.115 7.52539 149.818 7.31445 150.574 7.31445C 151.811 7.31445 152.771 7.72168 153.457 8.53613C 154.143 9.35059 154.485 10.5166 154.485 12.0342L 154.485 12.7109L 148.043 12.7109C 148.066 13.6484 148.339 14.4072 148.86 14.9873C 149.388 15.5615 150.056 15.8486 150.864 15.8486C 151.438 15.8486 151.925 15.7314 152.323 15.4971C 152.722 15.2627 153.07 14.9521 153.369 14.5654L 154.362 15.3389C 153.565 16.5635 152.37 17.1758 150.776 17.1758ZM 150.574 8.65039C 149.918 8.65039 149.367 8.89062 148.922 9.37109C 148.477 9.8457 148.201 10.5137 148.096 11.375L 152.859 11.375L 152.859 11.252C 152.813 10.4258 152.59 9.78711 152.191 9.33594C 151.793 8.87891 151.254 8.65039 150.574 8.65039ZM 160.189 15.8486C 160.77 15.8486 161.276 15.6729 161.71 15.3213C 162.144 14.9697 162.384 14.5303 162.431 14.0029L 163.969 14.0029C 163.939 14.5479 163.752 15.0664 163.406 15.5586C 163.061 16.0508 162.598 16.4434 162.018 16.7363C 161.443 17.0293 160.834 17.1758 160.189 17.1758C 158.895 17.1758 157.863 16.7451 157.096 15.8838C 156.334 15.0166 155.953 13.833 155.953 12.333L 155.953 12.0605C 155.953 11.1348 156.123 10.3115 156.463 9.59082C 156.803 8.87012 157.289 8.31055 157.922 7.91211C 158.561 7.51367 159.313 7.31445 160.181 7.31445C 161.247 7.31445 162.132 7.63379 162.835 8.27246C 163.544 8.91113 163.922 9.74023 163.969 10.7598L 162.431 10.7598C 162.384 10.1445 162.149 9.64063 161.728 9.24805C 161.312 8.84961 160.796 8.65039 160.181 8.65039C 159.354 8.65039 158.713 8.94922 158.256 9.54688C 157.805 10.1387 157.579 10.9971 157.579 12.1221L 157.579 12.4297C 157.579 13.5254 157.805 14.3691 158.256 14.9609C 158.707 15.5527 159.352 15.8486 160.189 15.8486ZM 173.065 7.49023L 173.065 17L 171.431 17L 171.431 13.2998L 168.979 13.2998L 166.737 17L 164.979 17L 167.37 13.0537C 166.761 12.8311 166.292 12.4883 165.964 12.0254C 165.642 11.5566 165.48 11.0117 165.48 10.3906C 165.48 9.52344 165.806 8.82617 166.456 8.29883C 167.106 7.76563 167.977 7.49609 169.066 7.49023L 173.065 7.49023ZM 167.115 10.4082C 167.115 10.8711 167.273 11.2461 167.59 11.5332C 167.906 11.8145 168.325 11.958 168.847 11.9639L 171.431 11.9639L 171.431 8.80859L 169.093 8.80859C 168.489 8.80859 168.009 8.95801 167.651 9.25684C 167.294 9.5498 167.115 9.93359 167.115 10.4082ZM 182.856 17L 181.222 17L 181.222 13.5547C 180.507 13.7422 179.774 13.8359 179.024 13.8359C 177.835 13.8359 176.927 13.5313 176.3 12.9219C 175.679 12.3125 175.362 11.4453 175.351 10.3203L 175.351 7.48145L 176.977 7.48145L 176.977 10.373C 177.006 11.791 177.688 12.5 179.024 12.5C 179.774 12.5 180.507 12.4062 181.222 12.2188L 181.222 7.49023L 182.856 7.49023L 182.856 17ZM 193.236 17L 191.61 17L 191.61 12.9395L 187.242 12.9395L 187.242 17L 185.607 17L 185.607 7.49023L 187.242 7.49023L 187.242 11.6123L 191.61 11.6123L 191.61 7.49023L 193.236 7.49023L 193.236 17ZM 195.425 12.1572C 195.425 11.2256 195.606 10.3877 195.97 9.64355C 196.339 8.89941 196.849 8.3252 197.499 7.9209C 198.155 7.5166 198.902 7.31445 199.74 7.31445C 201.035 7.31445 202.081 7.7627 202.878 8.65918C 203.681 9.55566 204.082 10.748 204.082 12.2363L 204.082 12.3506C 204.082 13.2764 203.903 14.1084 203.546 14.8467C 203.194 15.5791 202.687 16.1504 202.025 16.5605C 201.369 16.9707 200.613 17.1758 199.758 17.1758C 198.469 17.1758 197.423 16.7275 196.62 15.8311C 195.823 14.9346 195.425 13.748 195.425 12.2715L 195.425 12.1572ZM 197.06 12.3506C 197.06 13.4053 197.303 14.252 197.789 14.8906C 198.281 15.5293 198.937 15.8486 199.758 15.8486C 200.584 15.8486 201.24 15.5264 201.727 14.8818C 202.213 14.2314 202.456 13.3232 202.456 12.1572C 202.456 11.1143 202.207 10.2705 201.709 9.62598C 201.217 8.97559 200.561 8.65039 199.74 8.65039C 198.937 8.65039 198.29 8.96973 197.798 9.6084C 197.306 10.2471 197.06 11.1611 197.06 12.3506Z"/>
<path id="path6_fill" d="M 12.999 20.1377L 11.3203 20.1377L 11.3203 17L 2.13574 17L 2.13574 20.1465L 0.448242 20.1465L 0.439453 15.6201L 1.48535 15.6201C 2.03613 14.999 2.47266 14.167 2.79492 13.124C 3.12305 12.0752 3.32812 10.9268 3.41016 9.67871L 3.69141 4.20312L 11.3467 4.20312L 11.3467 15.6201L 13.0166 15.6201L 12.999 20.1377ZM 3.41016 15.6201L 9.65039 15.6201L 9.65039 5.5918L 5.31738 5.5918L 5.13281 9.35352C 5.05664 10.8242 4.86035 12.0781 4.54395 13.1152C 4.2334 14.1523 3.85547 14.9873 3.41016 15.6201ZM 14.335 12.1572C 14.335 11.2256 14.5166 10.3877 14.8799 9.64355C 15.249 8.89941 15.7588 8.3252 16.4092 7.9209C 17.0654 7.5166 17.8125 7.31445 18.6504 7.31445C 19.9453 7.31445 20.9912 7.7627 21.7881 8.65918C 22.5908 9.55566 22.9922 10.748 22.9922 12.2363L 22.9922 12.3506C 22.9922 13.2764 22.8135 14.1084 22.4561 14.8467C 22.1045 15.5791 21.5977 16.1504 20.9355 16.5605C 20.2793 16.9707 19.5234 17.1758 18.668 17.1758C 17.3789 17.1758 16.333 16.7275 15.5303 15.8311C 14.7334 14.9346 14.335 13.748 14.335 12.2715L 14.335 12.1572ZM 15.9697 12.3506C 15.9697 13.4053 16.2129 14.252 16.6992 14.8906C 17.1914 15.5293 17.8477 15.8486 18.668 15.8486C 19.4941 15.8486 20.1504 15.5264 20.6367 14.8818C 21.123 14.2314 21.3662 13.3232 21.3662 12.1572C 21.3662 11.1143 21.1172 10.2705 20.6191 9.62598C 20.127 8.97559 19.4707 8.65039 18.6504 8.65039C 17.8477 8.65039 17.2002 8.96973 16.708 9.6084C 16.2158 10.2471 15.9697 11.1611 15.9697 12.3506ZM 28.0283 10.9619L 30.1377 7.49023L 32.0361 7.49023L 28.9248 12.1924L 32.1328 17L 30.252 17L 28.0547 13.4404L 25.8574 17L 23.9678 17L 27.1758 12.1924L 24.0645 7.49023L 25.9453 7.49023L 28.0283 10.9619ZM 33.1611 12.1572C 33.1611 11.2256 33.3428 10.3877 33.7061 9.64355C 34.0752 8.89941 34.585 8.3252 35.2354 7.9209C 35.8916 7.5166 36.6387 7.31445 37.4766 7.31445C 38.7715 7.31445 39.8174 7.7627 40.6143 8.65918C 41.417 9.55566 41.8184 10.748 41.8184 12.2363L 41.8184 12.3506C 41.8184 13.2764 41.6396 14.1084 41.2822 14.8467C 40.9307 15.5791 40.4238 16.1504 39.7617 16.5605C 39.1055 16.9707 38.3496 17.1758 37.4941 17.1758C 36.2051 17.1758 35.1592 16.7275 34.3564 15.8311C 33.5596 14.9346 33.1611 13.748 33.1611 12.2715L 33.1611 12.1572ZM 34.7959 12.3506C 34.7959 13.4053 35.0391 14.252 35.5254 14.8906C 36.0176 15.5293 36.6738 15.8486 37.4941 15.8486C 38.3203 15.8486 38.9766 15.5264 39.4629 14.8818C 39.9492 14.2314 40.1924 13.3232 40.1924 12.1572C 40.1924 11.1143 39.9434 10.2705 39.4453 9.62598C 38.9531 8.97559 38.2969 8.65039 37.4766 8.65039C 36.6738 8.65039 36.0264 8.96973 35.5342 9.6084C 35.042 10.2471 34.7959 11.1611 34.7959 12.3506ZM 43.1455 15.6729L 43.708 14.9785C 44.3408 14.1582 44.7012 12.9277 44.7891 11.2871L 44.9385 7.49023L 51.0645 7.49023L 51.0645 15.6729L 52.2861 15.6729L 52.2861 19.7949L 50.6602 19.7949L 50.6602 17L 44.0244 17L 44.0244 19.7949L 42.3984 19.7949L 42.4072 15.6729L 43.1455 15.6729ZM 45.0703 15.6729L 49.4385 15.6729L 49.4385 8.99316L 46.5117 8.99316L 46.415 11.2607C 46.3154 13.1533 45.8672 14.624 45.0703 15.6729ZM 54.0352 16.1475C 54.0352 15.8662 54.1172 15.6318 54.2812 15.4443C 54.4512 15.2568 54.7031 15.1631 55.0371 15.1631C 55.3711 15.1631 55.623 15.2568 55.793 15.4443C 55.9688 15.6318 56.0566 15.8662 56.0566 16.1475C 56.0566 16.417 55.9688 16.6426 55.793 16.8242C 55.623 17.0059 55.3711 17.0967 55.0371 17.0967C 54.7031 17.0967 54.4512 17.0059 54.2812 16.8242C 54.1172 16.6426 54.0352 16.417 54.0352 16.1475ZM 54.0439 8.38672C 54.0439 8.10547 54.126 7.87109 54.29 7.68359C 54.46 7.49609 54.7119 7.40234 55.0459 7.40234C 55.3799 7.40234 55.6318 7.49609 55.8018 7.68359C 55.9775 7.87109 56.0654 8.10547 56.0654 8.38672C 56.0654 8.65625 55.9775 8.88184 55.8018 9.06348C 55.6318 9.24512 55.3799 9.33594 55.0459 9.33594C 54.7119 9.33594 54.46 9.24512 54.29 9.06348C 54.126 8.88184 54.0439 8.65625 54.0439 8.38672Z"/>
</defs>
</svg>
