<svg width="55" height="55" viewBox="0 0 55 55" version="1.1" xmlns="http://www.w3.org/2000/svg" xmlns:xlink="http://www.w3.org/1999/xlink">
<title>Group</title>
<desc>Created using Figma</desc>
<g id="Canvas" transform="translate(-996 310)">
<g id="Group">
<g id="Ellipse 6" filter="url(#filter0_d)">
<mask id="mask0_outline_ins">
<use xlink:href="#path0_fill" fill="white" transform="translate(1006.47 -302.373)"/>
</mask>
<g mask="url(#mask0_outline_ins)">
<use xlink:href="#path1_stroke_2x" transform="translate(1006.47 -302.373)" fill="#07DA91"/>
</g>
</g>
<g id="instagram-logo (1)">
<g id="Group">
<g id="Vector">
<use xlink:href="#path2_fill" transform="translate(1015.1 -293.749)" fill="#07DA91"/>
</g>
<g id="Vector">
<use xlink:href="#path3_fill" transform="translate(1019.15 -289.69)" fill="#07DA91"/>
</g>
<g id="Vector">
<use xlink:href="#path4_fill" transform="translate(1026.88 -290.95)" fill="#07DA91"/>
</g>
</g>
</g>
</g>
</g>
<defs>
<filter id="filter0_d" filterUnits="userSpaceOnUse" x="996" y="-310" width="55" height="55" color-interpolation-filters="sRGB">
<feFlood flood-opacity="0" result="BackgroundImageFix"/>
<feColorMatrix in="SourceAlpha" type="matrix" values="0 0 0 0 0 0 0 0 0 0 0 0 0 0 0 0 0 0 255 0"/>
<feOffset dx="0" dy="3"/>
<feGaussianBlur stdDeviation="5"/>
<feColorMatrix type="matrix" values="0 0 0 0 0 0 0 0 0 0 0 0 0 0 0 0 0 0 0.05 0"/>
<feBlend mode="normal" in2="BackgroundImageFix" result="effect1_dropShadow"/>
<feBlend mode="normal" in="SourceGraphic" in2="effect1_dropShadow" result="shape"/>
</filter>
<path id="path0_fill" d="M 34 17C 34 26.3888 26.3888 34 17 34C 7.61116 34 0 26.3888 0 17C 0 7.61116 7.61116 0 17 0C 26.3888 0 34 7.61116 34 17Z"/>
<path id="path1_stroke_2x" d="M 33 17C 33 25.8366 25.8366 33 17 33L 17 35C 26.9411 35 35 26.9411 35 17L 33 17ZM 17 33C 8.16344 33 1 25.8366 1 17L -1 17C -1 26.9411 7.05887 35 17 35L 17 33ZM 1 17C 1 8.16344 8.16344 1 17 1L 17 -1C 7.05887 -1 -1 7.05887 -1 17L 1 17ZM 17 1C 25.8366 1 33 8.16344 33 17L 35 17C 35 7.05887 26.9411 -1 17 -1L 17 1Z"/>
<path id="path2_fill" d="M 12.1293 0L 4.62297 0C 2.07387 0 0 2.07396 0 4.62307L 0 12.1294C 0 14.6786 2.07387 16.7524 4.62297 16.7524L 12.1293 16.7524C 14.6786 16.7524 16.7524 14.6785 16.7524 12.1294L 16.7524 4.62307C 16.7525 2.07396 14.6786 0 12.1293 0ZM 15.2662 12.1294C 15.2662 13.859 13.859 15.2661 12.1294 15.2661L 4.62297 15.2661C 2.89344 15.2662 1.48636 13.859 1.48636 12.1294L 1.48636 4.62307C 1.48636 2.89354 2.89344 1.48636 4.62297 1.48636L 12.1293 1.48636C 13.8589 1.48636 15.2661 2.89354 15.2661 4.62307L 15.2661 12.1294L 15.2662 12.1294Z"/>
<path id="path3_fill" d="M 4.31668 1.2096e-07C 1.93643 1.2096e-07 -1.48176e-07 1.93643 -1.48176e-07 4.31668C -1.48176e-07 6.69683 1.93643 8.63316 4.31668 8.63316C 6.69693 8.63316 8.63336 6.69683 8.63336 4.31668C 8.63336 1.93643 6.69693 1.2096e-07 4.31668 1.2096e-07ZM 4.31668 7.1467C 2.7561 7.1467 1.48636 5.87716 1.48636 4.31658C 1.48636 2.7559 2.756 1.48626 4.31668 1.48626C 5.87735 1.48626 7.147 2.7559 7.147 4.31658C 7.147 5.87716 5.87726 7.1467 4.31668 7.1467Z"/>
<path id="path4_fill" d="M 1.09 -5.4432e-08C 0.803625 -5.4432e-08 0.522306 0.115936 0.320062 0.319072C 0.116828 0.521216 -2.35872e-07 0.802633 -2.35872e-07 1.09C -2.35872e-07 1.37647 0.116927 1.65778 0.320062 1.86092C 0.522207 2.06306 0.803625 2.17999 1.09 2.17999C 1.37736 2.17999 1.65778 2.06306 1.86092 1.86092C 2.06406 1.65778 2.17999 1.37637 2.17999 1.09C 2.17999 0.802633 2.06406 0.521216 1.86092 0.319072C 1.65878 0.115936 1.37736 -5.4432e-08 1.09 -5.4432e-08Z"/>
</defs>
</svg>
