<svg width="60" height="60" viewBox="0 0 60 60" version="1.1" xmlns="http://www.w3.org/2000/svg" xmlns:xlink="http://www.w3.org/1999/xlink">
<title>Group</title>
<desc>Created using Figma</desc>
<g id="Canvas" transform="translate(-492 -6892)">
<g id="Group">
<g id="2">
<use xlink:href="#path0_fill" transform="translate(507 6889.48)" fill="#07DA91"/>
</g>
<g id="Ellipse 3">
<mask id="mask0_outline_ins">
<use xlink:href="#path1_fill" fill="white" transform="translate(492.272 6892.25)"/>
</mask>
<g mask="url(#mask0_outline_ins)">
<use xlink:href="#path2_stroke_2x" transform="translate(492.272 6892.25)" fill="#07DA91"/>
</g>
</g>
</g>
</g>
<defs>
<path id="path0_fill" d="M 28.0598 41.65L 17.1598 41.65L 22.7598 36.45C 25.7598 33.65 27.7098 30.75 27.7098 26.55C 27.7098 22.25 25.8098 19.7 24.4598 18.35C 22.9598 16.85 20.0598 14.9 15.0598 14.9C 10.9098 14.9 7.85977 16.25 5.60977 18.5C 3.85977 20.25 1.95977 23.4 1.90977 27.75L 10.8598 27.75C 10.9098 26.6 11.2598 24.7 12.0598 23.65C 12.6098 22.95 13.5598 22.3 14.9598 22.3C 16.0598 22.3 16.9098 22.75 17.4098 23.3C 18.4098 24.4 18.4098 26.15 18.4098 26.5C 18.4098 28.65 17.5098 30.3 16.6098 31.7C 15.0098 34.25 12.7598 37 9.75977 40.15L 1.30977 49L 28.0598 49L 28.0598 41.65Z"/>
<path id="path1_fill" d="M 59.4568 29.7284C 59.4568 46.1469 46.1469 59.4568 29.7284 59.4568C 13.3098 59.4568 0 46.1469 0 29.7284C 0 13.3098 13.3098 0 29.7284 0C 46.1469 0 59.4568 13.3098 59.4568 29.7284Z"/>
<path id="path2_stroke_2x" d="M 58.4568 29.7284C 58.4568 45.5946 45.5946 58.4568 29.7284 58.4568L 29.7284 60.4568C 46.6992 60.4568 60.4568 46.6992 60.4568 29.7284L 58.4568 29.7284ZM 29.7284 58.4568C 13.8621 58.4568 1 45.5946 1 29.7284L -1 29.7284C -1 46.6992 12.7576 60.4568 29.7284 60.4568L 29.7284 58.4568ZM 1 29.7284C 1 13.8621 13.8621 1 29.7284 1L 29.7284 -1C 12.7576 -1 -1 12.7576 -1 29.7284L 1 29.7284ZM 29.7284 1C 45.5946 1 58.4568 13.8621 58.4568 29.7284L 60.4568 29.7284C 60.4568 12.7576 46.6992 -1 29.7284 -1L 29.7284 1Z"/>
</defs>
</svg>
