<svg width="60" height="61" viewBox="0 0 60 61" version="1.1" xmlns="http://www.w3.org/2000/svg" xmlns:xlink="http://www.w3.org/1999/xlink">
<title>Group</title>
<desc>Created using Figma</desc>
<g id="Canvas" transform="translate(-492 -7375)">
<g id="Group">
<g id="4">
<use xlink:href="#path0_fill" transform="translate(507 7372.88)" fill="#07DA91"/>
</g>
<g id="Ellipse 3">
<mask id="mask0_outline_ins">
<use xlink:href="#path1_fill" fill="white" transform="translate(492.272 7375.65)"/>
</mask>
<g mask="url(#mask0_outline_ins)">
<use xlink:href="#path2_stroke_2x" transform="translate(492.272 7375.65)" fill="#07DA91"/>
</g>
</g>
</g>
</g>
<defs>
<path id="path0_fill" d="M 24.7098 15.65L 13.4098 15.65L 0.559766 37.15L 0.559766 42.7L 16.7098 42.7L 16.7098 49L 24.7098 49L 24.7098 42.7L 28.7598 42.7L 28.7598 36.05L 24.7098 36.05L 24.7098 15.65ZM 8.85977 36.05L 16.7098 22.45L 16.7098 36.05L 8.85977 36.05Z"/>
<path id="path1_fill" d="M 59.4568 29.7284C 59.4568 46.1469 46.1469 59.4568 29.7284 59.4568C 13.3098 59.4568 0 46.1469 0 29.7284C 0 13.3098 13.3098 0 29.7284 0C 46.1469 0 59.4568 13.3098 59.4568 29.7284Z"/>
<path id="path2_stroke_2x" d="M 58.4568 29.7284C 58.4568 45.5946 45.5946 58.4568 29.7284 58.4568L 29.7284 60.4568C 46.6992 60.4568 60.4568 46.6992 60.4568 29.7284L 58.4568 29.7284ZM 29.7284 58.4568C 13.8621 58.4568 1 45.5946 1 29.7284L -1 29.7284C -1 46.6992 12.7576 60.4568 29.7284 60.4568L 29.7284 58.4568ZM 1 29.7284C 1 13.8621 13.8621 1 29.7284 1L 29.7284 -1C 12.7576 -1 -1 12.7576 -1 29.7284L 1 29.7284ZM 29.7284 1C 45.5946 1 58.4568 13.8621 58.4568 29.7284L 60.4568 29.7284C 60.4568 12.7576 46.6992 -1 29.7284 -1L 29.7284 1Z"/>
</defs>
</svg>
