<svg width="60" height="60" viewBox="0 0 60 60" version="1.1" xmlns="http://www.w3.org/2000/svg" xmlns:xlink="http://www.w3.org/1999/xlink">
<title>Group</title>
<desc>Created using Figma</desc>
<g id="Canvas" transform="translate(-492 -7859)">
<g id="Group">
<g id="6">
<use xlink:href="#path0_fill" transform="translate(507 7856.28)" fill="#07DA91"/>
</g>
<g id="Ellipse 3">
<mask id="mask0_outline_ins">
<use xlink:href="#path1_fill" fill="white" transform="translate(492.272 7859.05)"/>
</mask>
<g mask="url(#mask0_outline_ins)">
<use xlink:href="#path2_stroke_2x" transform="translate(492.272 7859.05)" fill="#07DA91"/>
</g>
</g>
</g>
</g>
<defs>
<path id="path0_fill" d="M 13.3598 15.65L 5.90977 25.45C 3.25977 28.95 0.959766 33.35 0.959766 37.9C 0.959766 41.5 2.40977 44.05 4.00977 45.7C 5.85977 47.6 9.20977 49.75 14.9598 49.75C 18.1598 49.75 22.3098 49.1 25.6098 45.8C 28.2098 43.2 29.0598 40.2 29.0598 37.1C 29.0598 34.25 28.2598 31.5 25.9098 29.15C 23.7098 26.95 20.8598 25.95 18.3598 25.95C 16.7098 25.95 15.0598 26.4 13.7098 27L 23.2098 15.65L 13.3598 15.65ZM 14.8098 42.9C 13.7098 42.9 12.1598 42.55 10.8598 41.2C 9.90977 40.2 9.40977 38.8 9.40977 37.4C 9.40977 36.25 10.0098 34.9 11.0598 33.95C 12.0598 33.05 13.5098 32.5 14.8098 32.5C 15.8098 32.5 17.3098 32.75 18.6598 34.05C 19.8598 35.2 20.2098 36.5 20.2098 37.55C 20.2098 39.05 19.6098 40.4 18.6598 41.35C 17.9098 42.1 16.6598 42.9 14.8098 42.9Z"/>
<path id="path1_fill" d="M 59.4568 29.7284C 59.4568 46.1469 46.1469 59.4568 29.7284 59.4568C 13.3098 59.4568 0 46.1469 0 29.7284C 0 13.3098 13.3098 0 29.7284 0C 46.1469 0 59.4568 13.3098 59.4568 29.7284Z"/>
<path id="path2_stroke_2x" d="M 58.4568 29.7284C 58.4568 45.5946 45.5946 58.4568 29.7284 58.4568L 29.7284 60.4568C 46.6992 60.4568 60.4568 46.6992 60.4568 29.7284L 58.4568 29.7284ZM 29.7284 58.4568C 13.8621 58.4568 1 45.5946 1 29.7284L -1 29.7284C -1 46.6992 12.7576 60.4568 29.7284 60.4568L 29.7284 58.4568ZM 1 29.7284C 1 13.8621 13.8621 1 29.7284 1L 29.7284 -1C 12.7576 -1 -1 12.7576 -1 29.7284L 1 29.7284ZM 29.7284 1C 45.5946 1 58.4568 13.8621 58.4568 29.7284L 60.4568 29.7284C 60.4568 12.7576 46.6992 -1 29.7284 -1L 29.7284 1Z"/>
</defs>
</svg>
