<svg width="80" height="81" viewBox="0 0 80 81" version="1.1" xmlns="http://www.w3.org/2000/svg" xmlns:xlink="http://www.w3.org/1999/xlink">
<title>Group</title>
<desc>Created using Figma</desc>
<g id="Canvas" transform="translate(-702 -11470)">
<g id="Group">
<g id="Ellipse 6" filter="url(#filter0_d)">
<mask id="mask0_outline_ins">
<use xlink:href="#path0_fill" fill="white" transform="translate(712 11477.5)"/>
</mask>
<g mask="url(#mask0_outline_ins)">
<use xlink:href="#path1_stroke_2x" transform="translate(712 11477.5)" fill="#07DA91"/>
</g>
</g>
<g id="Support">
<use xlink:href="#path2_fill" transform="translate(718.5 11500)" fill="#07DA91"/>
</g>
</g>
</g>
<defs>
<filter id="filter0_d" filterUnits="userSpaceOnUse" x="702" y="11470" width="80" height="81" color-interpolation-filters="sRGB">
<feFlood flood-opacity="0" result="BackgroundImageFix"/>
<feColorMatrix in="SourceAlpha" type="matrix" values="0 0 0 0 0 0 0 0 0 0 0 0 0 0 0 0 0 0 255 0"/>
<feOffset dx="0" dy="3"/>
<feGaussianBlur stdDeviation="5"/>
<feColorMatrix type="matrix" values="0 0 0 0 0 0 0 0 0 0 0 0 0 0 0 0 0 0 0.05 0"/>
<feBlend mode="normal" in2="BackgroundImageFix" result="effect1_dropShadow"/>
<feBlend mode="normal" in="SourceGraphic" in2="effect1_dropShadow" result="shape"/>
</filter>
<path id="path0_fill" d="M 60 30C 60 46.5685 46.5685 60 30 60C 13.4315 60 0 46.5685 0 30C 0 13.4315 13.4315 0 30 0C 46.5685 0 60 13.4315 60 30Z"/>
<path id="path1_stroke_2x" d="M 59 30C 59 46.0163 46.0163 59 30 59L 30 61C 47.1208 61 61 47.1208 61 30L 59 30ZM 30 59C 13.9837 59 1 46.0163 1 30L -1 30C -1 47.1208 12.8792 61 30 61L 30 59ZM 1 30C 1 13.9837 13.9837 1 30 1L 30 -1C 12.8792 -1 -1 12.8792 -1 30L 1 30ZM 30 1C 46.0163 1 59 13.9837 59 30L 61 30C 61 12.8792 47.1208 -1 30 -1L 30 1Z"/>
<path id="path2_fill" d="M 5.61768 9.5752C 5.61768 9.21549 5.49072 8.94043 5.23682 8.75C 4.98291 8.55534 4.52588 8.35221 3.86572 8.14062C 3.20557 7.9248 2.68294 7.71322 2.29785 7.50586C 1.24837 6.9388 0.723633 6.17497 0.723633 5.21436C 0.723633 4.71501 0.863281 4.27067 1.14258 3.88135C 1.42611 3.48779 1.83024 3.18099 2.35498 2.96094C 2.88395 2.74089 3.4764 2.63086 4.13232 2.63086C 4.79248 2.63086 5.3807 2.75146 5.89697 2.99268C 6.41325 3.22966 6.81315 3.56608 7.09668 4.00195C 7.38444 4.43783 7.52832 4.93294 7.52832 5.4873L 5.62402 5.4873C 5.62402 5.06413 5.49072 4.73617 5.22412 4.50342C 4.95752 4.26644 4.58301 4.14795 4.10059 4.14795C 3.63509 4.14795 3.27327 4.2474 3.01514 4.44629C 2.757 4.64095 2.62793 4.89909 2.62793 5.2207C 2.62793 5.52116 2.77816 5.77295 3.07861 5.97607C 3.3833 6.1792 3.82975 6.36963 4.41797 6.54736C 5.5013 6.87321 6.29053 7.27734 6.78564 7.75977C 7.28076 8.24219 7.52832 8.8431 7.52832 9.5625C 7.52832 10.3623 7.22575 10.9907 6.62061 11.4478C 6.01546 11.9006 5.20085 12.127 4.17676 12.127C 3.46582 12.127 2.81836 11.9979 2.23438 11.7397C 1.65039 11.4774 1.20394 11.1198 0.89502 10.667C 0.590332 10.2142 0.437988 9.68945 0.437988 9.09277L 2.34863 9.09277C 2.34863 10.1126 2.95801 10.6226 4.17676 10.6226C 4.62956 10.6226 4.98291 10.5316 5.23682 10.3496C 5.49072 10.1634 5.61768 9.90527 5.61768 9.5752ZM 12.8159 11.3018C 12.3631 11.8519 11.7368 12.127 10.937 12.127C 10.2007 12.127 9.63786 11.9154 9.24854 11.4922C 8.86344 11.069 8.66667 10.4491 8.6582 9.63232L 8.6582 5.13184L 10.4927 5.13184L 10.4927 9.56885C 10.4927 10.284 10.8185 10.6416 11.4702 10.6416C 12.0923 10.6416 12.5197 10.4258 12.7524 9.99414L 12.7524 5.13184L 14.5933 5.13184L 14.5933 12L 12.8667 12L 12.8159 11.3018ZM 22.1597 8.62939C 22.1597 9.68734 21.9185 10.5358 21.436 11.1748C 20.9578 11.8096 20.3104 12.127 19.4937 12.127C 18.7996 12.127 18.2389 11.8857 17.8115 11.4033L 17.8115 14.6406L 15.9771 14.6406L 15.9771 5.13184L 17.6782 5.13184L 17.7417 5.80469C 18.186 5.27148 18.7658 5.00488 19.481 5.00488C 20.3273 5.00488 20.9854 5.31803 21.4551 5.94434C 21.9248 6.57064 22.1597 7.43392 22.1597 8.53418L 22.1597 8.62939ZM 20.3252 8.49609C 20.3252 7.8571 20.2109 7.3641 19.9824 7.01709C 19.7581 6.67008 19.4302 6.49658 18.9985 6.49658C 18.423 6.49658 18.0273 6.71663 17.8115 7.15674L 17.8115 9.96875C 18.0358 10.4215 18.4357 10.6479 19.0112 10.6479C 19.8872 10.6479 20.3252 9.93066 20.3252 8.49609ZM 29.4849 8.62939C 29.4849 9.68734 29.2437 10.5358 28.7612 11.1748C 28.283 11.8096 27.6356 12.127 26.8188 12.127C 26.1248 12.127 25.5641 11.8857 25.1367 11.4033L 25.1367 14.6406L 23.3022 14.6406L 23.3022 5.13184L 25.0034 5.13184L 25.0669 5.80469C 25.5112 5.27148 26.091 5.00488 26.8062 5.00488C 27.6525 5.00488 28.3105 5.31803 28.7803 5.94434C 29.25 6.57064 29.4849 7.43392 29.4849 8.53418L 29.4849 8.62939ZM 27.6504 8.49609C 27.6504 7.8571 27.5361 7.3641 27.3076 7.01709C 27.0833 6.67008 26.7554 6.49658 26.3237 6.49658C 25.7482 6.49658 25.3525 6.71663 25.1367 7.15674L 25.1367 9.96875C 25.361 10.4215 25.7609 10.6479 26.3364 10.6479C 27.2124 10.6479 27.6504 9.93066 27.6504 8.49609ZM 30.3418 8.50244C 30.3418 7.82113 30.473 7.21387 30.7354 6.68066C 30.9977 6.14746 31.3743 5.73486 31.8652 5.44287C 32.3604 5.15088 32.9338 5.00488 33.5854 5.00488C 34.5122 5.00488 35.2676 5.28841 35.8516 5.85547C 36.4398 6.42253 36.7677 7.19271 36.8354 8.16602L 36.8481 8.63574C 36.8481 9.68945 36.554 10.5358 35.9658 11.1748C 35.3776 11.8096 34.5884 12.127 33.5981 12.127C 32.6079 12.127 31.8166 11.8096 31.2241 11.1748C 30.6359 10.54 30.3418 9.67676 30.3418 8.58496L 30.3418 8.50244ZM 32.1763 8.63574C 32.1763 9.28743 32.299 9.78678 32.5444 10.1338C 32.7899 10.4766 33.1411 10.6479 33.5981 10.6479C 34.0425 10.6479 34.3895 10.4787 34.6392 10.1401C 34.8888 9.79736 35.0137 9.25146 35.0137 8.50244C 35.0137 7.86344 34.8888 7.36833 34.6392 7.01709C 34.3895 6.66585 34.0382 6.49023 33.5854 6.49023C 33.1369 6.49023 32.7899 6.66585 32.5444 7.01709C 32.299 7.3641 32.1763 7.90365 32.1763 8.63574ZM 41.8374 6.85205C 41.5877 6.8182 41.3677 6.80127 41.1772 6.80127C 40.4832 6.80127 40.0283 7.03613 39.8125 7.50586L 39.8125 12L 37.978 12L 37.978 5.13184L 39.7109 5.13184L 39.7617 5.95068C 40.1299 5.32015 40.6398 5.00488 41.2915 5.00488C 41.4946 5.00488 41.6851 5.03239 41.8628 5.0874L 41.8374 6.85205ZM 45.2397 3.44336L 45.2397 5.13184L 46.4141 5.13184L 46.4141 6.47754L 45.2397 6.47754L 45.2397 9.90527C 45.2397 10.1592 45.2884 10.3411 45.3857 10.4512C 45.4831 10.5612 45.6693 10.6162 45.9443 10.6162C 46.1475 10.6162 46.3273 10.6014 46.4839 10.5718L 46.4839 11.9619C 46.1242 12.0719 45.7539 12.127 45.373 12.127C 44.0866 12.127 43.4307 11.4774 43.4053 10.1782L 43.4053 6.47754L 42.4023 6.47754L 42.4023 5.13184L 43.4053 5.13184L 43.4053 3.44336L 45.2397 3.44336Z"/>
</defs>
</svg>
