<svg width="80" height="81" viewBox="0 0 80 81" version="1.1" xmlns="http://www.w3.org/2000/svg" xmlns:xlink="http://www.w3.org/1999/xlink">
<title>Group</title>
<desc>Created using Figma</desc>
<g id="Canvas" transform="translate(-592 -11470)">
<g id="Group">
<g id="Ellipse 6" filter="url(#filter0_d)">
<mask id="mask0_outline_ins">
<use xlink:href="#path0_fill" fill="white" transform="translate(602 11477.5)"/>
</mask>
<g mask="url(#mask0_outline_ins)">
<use xlink:href="#path1_stroke_2x" transform="translate(602 11477.5)" fill="#07DA91"/>
</g>
</g>
<g id="telegram">
<g id="XMLID 496">
<g id="XMLID 497">
<use xlink:href="#path2_fill" transform="translate(615.461 11494.2)" fill="#07DA91"/>
</g>
</g>
</g>
</g>
</g>
<defs>
<filter id="filter0_d" filterUnits="userSpaceOnUse" x="592" y="11470" width="80" height="81" color-interpolation-filters="sRGB">
<feFlood flood-opacity="0" result="BackgroundImageFix"/>
<feColorMatrix in="SourceAlpha" type="matrix" values="0 0 0 0 0 0 0 0 0 0 0 0 0 0 0 0 0 0 255 0"/>
<feOffset dx="0" dy="3"/>
<feGaussianBlur stdDeviation="5"/>
<feColorMatrix type="matrix" values="0 0 0 0 0 0 0 0 0 0 0 0 0 0 0 0 0 0 0.05 0"/>
<feBlend mode="normal" in2="BackgroundImageFix" result="effect1_dropShadow"/>
<feBlend mode="normal" in="SourceGraphic" in2="effect1_dropShadow" result="shape"/>
</filter>
<path id="path0_fill" d="M 60 30C 60 46.5685 46.5685 60 30 60C 13.4315 60 0 46.5685 0 30C 0 13.4315 13.4315 0 30 0C 46.5685 0 60 13.4315 60 30Z"/>
<path id="path1_stroke_2x" d="M 59 30C 59 46.0163 46.0163 59 30 59L 30 61C 47.1208 61 61 47.1208 61 30L 59 30ZM 30 59C 13.9837 59 1 46.0163 1 30L -1 30C -1 47.1208 12.8792 61 30 61L 30 59ZM 1 30C 1 13.9837 13.9837 1 30 1L 30 -1C 12.8792 -1 -1 12.8792 -1 30L 1 30ZM 30 1C 46.0163 1 59 13.9837 59 30L 61 30C 61 12.8792 47.1208 -1 30 -1L 30 1Z"/>
<path id="path2_fill" d="M 0.540175 12.7676L 7.58696 15.3977L 10.3145 24.1694C 10.489 24.7312 11.176 24.9388 11.632 24.566L 15.56 21.3639C 15.9717 21.0284 16.5582 21.0117 16.9885 21.324L 24.0732 26.4677C 24.561 26.8222 25.252 26.5549 25.3744 25.9655L 30.5643 1.00101C 30.6979 0.357147 30.0652 -0.179981 29.4521 0.0571343L 0.531917 11.2137C -0.181773 11.4889 -0.175555 12.4994 0.540175 12.7676ZM 9.87493 13.9976L 23.647 5.51537C 23.8945 5.36338 24.1491 5.69805 23.9366 5.89521L 12.5707 16.4604C 12.1712 16.8323 11.9135 17.33 11.8405 17.8701L 11.4533 20.7394C 11.402 21.1225 10.8639 21.1605 10.7582 20.7897L 9.2691 15.5576C 9.09855 14.9608 9.34708 14.3234 9.87493 13.9976Z"/>
</defs>
</svg>
