<svg width="54" height="55" viewBox="0 0 54 55" version="1.1" xmlns="http://www.w3.org/2000/svg" xmlns:xlink="http://www.w3.org/1999/xlink">
<title>Group</title>
<desc>Created using Figma</desc>
<g id="Canvas" transform="translate(-1100 310)">
<g id="Group">
<g id="Ellipse 6" filter="url(#filter0_d)">
<mask id="mask0_outline_ins">
<use xlink:href="#path0_fill" fill="white" transform="translate(1110 -302.373)"/>
</mask>
<g mask="url(#mask0_outline_ins)">
<use xlink:href="#path1_stroke_2x" transform="translate(1110 -302.373)" fill="#07DA91"/>
</g>
</g>
<g id="telegram">
<g id="XMLID 496">
<g id="XMLID 497">
<use xlink:href="#path2_fill" transform="translate(1117.63 -292.918)" fill="#07DA91"/>
</g>
</g>
</g>
</g>
</g>
<defs>
<filter id="filter0_d" filterUnits="userSpaceOnUse" x="1100" y="-310" width="54" height="55" color-interpolation-filters="sRGB">
<feFlood flood-opacity="0" result="BackgroundImageFix"/>
<feColorMatrix in="SourceAlpha" type="matrix" values="0 0 0 0 0 0 0 0 0 0 0 0 0 0 0 0 0 0 255 0"/>
<feOffset dx="0" dy="3"/>
<feGaussianBlur stdDeviation="5"/>
<feColorMatrix type="matrix" values="0 0 0 0 0 0 0 0 0 0 0 0 0 0 0 0 0 0 0.05 0"/>
<feBlend mode="normal" in2="BackgroundImageFix" result="effect1_dropShadow"/>
<feBlend mode="normal" in="SourceGraphic" in2="effect1_dropShadow" result="shape"/>
</filter>
<path id="path0_fill" d="M 34 17C 34 26.3888 26.3888 34 17 34C 7.61116 34 0 26.3888 0 17C 0 7.61116 7.61116 0 17 0C 26.3888 0 34 7.61116 34 17Z"/>
<path id="path1_stroke_2x" d="M 33 17C 33 25.8366 25.8366 33 17 33L 17 35C 26.9411 35 35 26.9411 35 17L 33 17ZM 17 33C 8.16344 33 1 25.8366 1 17L -1 17C -1 26.9411 7.05887 35 17 35L 17 33ZM 1 17C 1 8.16344 8.16344 1 17 1L 17 -1C 7.05887 -1 -1 7.05887 -1 17L 1 17ZM 17 1C 25.8366 1 33 8.16344 33 17L 35 17C 35 7.05887 26.9411 -1 17 -1L 17 1Z"/>
<path id="path2_fill" d="M 0.306099 7.23496L 4.29928 8.72534L 5.84488 13.696C 5.94378 14.0143 6.33307 14.132 6.59146 13.9208L 8.81733 12.1062C 9.05065 11.9161 9.38298 11.9066 9.62681 12.0836L 13.6415 14.9983C 13.9179 15.1992 14.3095 15.0478 14.3788 14.7138L 17.3198 0.567238C 17.3954 0.202383 17.0369 -0.101989 16.6895 0.0323761L 0.30142 6.35442C -0.103005 6.51039 -0.0994809 7.08297 0.306099 7.23496ZM 5.59579 7.93197L 13.4 3.12538C 13.5402 3.03925 13.6845 3.2289 13.5641 3.34062L 7.12338 9.32755C 6.89699 9.53829 6.75096 9.8203 6.70959 10.1264L 6.4902 11.7523C 6.46114 11.9694 6.15619 11.9909 6.09628 11.7808L 5.25249 8.81597C 5.15584 8.47781 5.29668 8.11659 5.59579 7.93197Z"/>
</defs>
</svg>
