<svg width="55" height="55" viewBox="0 0 55 55" version="1.1" xmlns="http://www.w3.org/2000/svg" xmlns:xlink="http://www.w3.org/1999/xlink">
<title>Group</title>
<desc>Created using Figma</desc>
<g id="Canvas" transform="translate(-1048 310)">
<g id="Group">
<g id="Ellipse 6" filter="url(#filter0_d)">
<mask id="mask0_outline_ins">
<use xlink:href="#path0_fill" fill="white" transform="translate(1058.24 -302.373)"/>
</mask>
<g mask="url(#mask0_outline_ins)">
<use xlink:href="#path1_stroke_2x" transform="translate(1058.24 -302.373)" fill="#07DA91"/>
</g>
</g>
<g id="twitter-logo-silhouette">
<g id="Group">
<g id="Group">
<g id="Vector">
<use xlink:href="#path2_fill" transform="translate(1066.96 -292.65)" fill="#07DA91"/>
</g>
</g>
</g>
</g>
</g>
</g>
<defs>
<filter id="filter0_d" filterUnits="userSpaceOnUse" x="1048" y="-310" width="55" height="55" color-interpolation-filters="sRGB">
<feFlood flood-opacity="0" result="BackgroundImageFix"/>
<feColorMatrix in="SourceAlpha" type="matrix" values="0 0 0 0 0 0 0 0 0 0 0 0 0 0 0 0 0 0 255 0"/>
<feOffset dx="0" dy="3"/>
<feGaussianBlur stdDeviation="5"/>
<feColorMatrix type="matrix" values="0 0 0 0 0 0 0 0 0 0 0 0 0 0 0 0 0 0 0.05 0"/>
<feBlend mode="normal" in2="BackgroundImageFix" result="effect1_dropShadow"/>
<feBlend mode="normal" in="SourceGraphic" in2="effect1_dropShadow" result="shape"/>
</filter>
<path id="path0_fill" d="M 34 17C 34 26.3888 26.3888 34 17 34C 7.61116 34 0 26.3888 0 17C 0 7.61116 7.61116 0 17 0C 26.3888 0 34 7.61116 34 17Z"/>
<path id="path1_stroke_2x" d="M 33 17C 33 25.8366 25.8366 33 17 33L 17 35C 26.9411 35 35 26.9411 35 17L 33 17ZM 17 33C 8.16344 33 1 25.8366 1 17L -1 17C -1 26.9411 7.05887 35 17 35L 17 33ZM 1 17C 1 8.16344 8.16344 1 17 1L 17 -1C 7.05887 -1 -1 7.05887 -1 17L 1 17ZM 17 1C 25.8366 1 33 8.16344 33 17L 35 17C 35 7.05887 26.9411 -1 17 -1L 17 1Z"/>
<path id="path2_fill" d="M 17.9179 1.72203C 17.2585 2.01425 16.5508 2.21243 15.8074 2.30091C 16.5665 1.84631 17.1476 1.12526 17.423 0.268711C 16.7109 0.689695 15.9249 0.995384 15.0874 1.1611C 14.4167 0.445636 13.4628 5.53961e-08 12.4047 5.53961e-08C 10.3747 5.53961e-08 8.72883 1.64591 8.72883 3.67473C 8.72883 3.96248 8.7613 4.24351 8.82401 4.51225C 5.76958 4.35884 3.06113 2.89545 1.2484 0.671777C 0.931529 1.21371 0.751266 1.84517 0.751266 2.51923C 0.751266 3.79454 1.40068 4.9198 2.38599 5.57814C 1.7836 5.55799 1.21705 5.39228 0.721052 5.11684L 0.721052 5.16275C 0.721052 6.94301 1.98851 8.42879 3.66911 8.76695C 3.3612 8.84981 3.03651 8.89571 2.70061 8.89571C 2.46325 8.89571 2.23371 8.8722 2.00866 8.82741C 2.47666 10.2886 3.83371 11.3511 5.44156 11.3802C 4.18417 12.3656 2.59872 12.9511 0.876692 12.9511C 0.579992 12.9511 0.287741 12.9332 1.39079e-12 12.9008C 1.62688 13.9454 3.5583 14.5545 5.63415 14.5545C 12.3958 14.5545 16.0918 8.95395 16.0918 4.09686L 16.0795 3.62101C 16.8016 3.10593 17.4264 2.45877 17.9179 1.72203Z"/>
</defs>
</svg>
